  0
SECTION
  2
HEADER
  9
$ACADVER
  1
AC1014
  9
$HANDSEED
  5
FFFF
  9
$MEASUREMENT
 70
     1
  0
ENDSEC
  0
SECTION
  2
TABLES
  0
TABLE
  2
VPORT
  5
8
330
0
100
AcDbSymbolTable
 70
     4
  0
VPORT
  5
2E
330
8
100
AcDbSymbolTableRecord
100
AcDbViewportTableRecord
  2
*ACTIVE
 70
     0
 10
0.0
 20
0.0
 11
1.0
 21
1.0
 12
210.0
 22
148.5
 13
0.0
 23
0.0
 14
10.0
 24
10.0
 15
10.0
 25
10.0
 16
0.0
 26
0.0
 36
1.0
 17
0.0
 27
0.0
 37
0.0
 40
341.0
 41
1.24
 42
50.0
 43
0.0
 44
0.0
 50
0.0
 51
0.0
 71
     0
 72
   100
 73
     1
 74
     3
 75
     0
 76
     0
 77
     0
 78
     0
  0
ENDTAB
  0
TABLE
  2
LTYPE
  5
5
330
0
100
AcDbSymbolTable
 70
     1
  0
LTYPE
  5
14
330
5
100
AcDbSymbolTableRecord
100
AcDbLinetypeTableRecord
  2
BYBLOCK
 70
     0
  3

 72
    65
 73
     0
 40
0.0
  0
LTYPE
  5
15
330
5
100
AcDbSymbolTableRecord
100
AcDbLinetypeTableRecord
  2
BYLAYER
 70
     0
  3

 72
    65
 73
     0
 40
0.0
  0
LTYPE
  5
16
330
5
100
AcDbSymbolTableRecord
100
AcDbLinetypeTableRecord
  2
CONTINUOUS
 70
     0
  3
Solid line
 72
    65
 73
     0
 40
0.0
  0
ENDTAB
  0
TABLE
  2
LAYER
  5
2
100
AcDbSymbolTable
 70
2
  0
LAYER
  5
50
100
AcDbSymbolTableRecord
100
AcDbLayerTableRecord
  2
0
 70
0
  6
CONTINUOUS
  0
LAYER
  5
51
100
AcDbSymbolTableRecord
100
AcDbLayerTableRecord
  2
Layer_1
 70
0
  6
CONTINUOUS
  0
ENDTAB
  0
TABLE
  2
STYLE
  5
3
330
0
100
AcDbSymbolTable
 70
     1
  0
STYLE
  5
11
330
3
100
AcDbSymbolTableRecord
100
AcDbTextStyleTableRecord
  2
STANDARD
 70
     0
 40
0.0
 41
1.0
 50
0.0
 71
     0
 42
2.5
  3
txt
  4

  0
ENDTAB
  0
TABLE
  2
VIEW
  5
6
330
0
100
AcDbSymbolTable
 70
     0
  0
ENDTAB
  0
TABLE
  2
UCS
  5
7
330
0
100
AcDbSymbolTable
 70
     0
  0
ENDTAB
  0
TABLE
  2
APPID
  5
9
330
0
100
AcDbSymbolTable
 70
     2
  0
APPID
  5
12
330
9
100
AcDbSymbolTableRecord
100
AcDbRegAppTableRecord
  2
ACAD
 70
     0
  0
ENDTAB
  0
TABLE
  2
DIMSTYLE
  5
A
330
0
100
AcDbSymbolTable
 70
     1
  0
DIMSTYLE
105
27
330
A
100
AcDbSymbolTableRecord
100
AcDbDimStyleTableRecord
  2
ISO-25
 70
     0
  3

  4

  5

  6

  7

 40
1.0
 41
2.5
 42
0.625
 43
3.75
 44
1.25
 45
0.0
 46
0.0
 47
0.0
 48
0.0
140
2.5
141
2.5
142
0.0
143
0.03937007874016
144
1.0
145
0.0
146
1.0
147
0.625
 71
     0
 72
     0
 73
     0
 74
     0
 75
     0
 76
     0
 77
     1
 78
     8
170
     0
171
     3
172
     1
173
     0
174
     0
175
     0
176
     0
177
     0
178
     0
270
     2
271
     2
272
     2
273
     2
274
     3
340
11
275
     0
280
     0
281
     0
282
     0
283
     0
284
     8
285
     0
286
     0
287
     3
288
     0
  0
ENDTAB
  0
TABLE
  2
BLOCK_RECORD
  5
1
330
0
100
AcDbSymbolTable
 70
     1
  0
BLOCK_RECORD
  5
1F
330
1
100
AcDbSymbolTableRecord
100
AcDbBlockTableRecord
  2
*MODEL_SPACE
  0
BLOCK_RECORD
  5
1B
330
1
100
AcDbSymbolTableRecord
100
AcDbBlockTableRecord
  2
*PAPER_SPACE
  0
ENDTAB
  0
ENDSEC
  0
SECTION
  2
BLOCKS
  0
BLOCK
  5
20
330
1F
100
AcDbEntity
  8
0
100
AcDbBlockBegin
  2
*MODEL_SPACE
 70
     0
 10
0.0
 20
0.0
 30
0.0
  3
*MODEL_SPACE
  1

  0
ENDBLK
  5
21
330
1F
100
AcDbEntity
  8
0
100
AcDbBlockEnd
  0
BLOCK
  5
1C
330
1B
100
AcDbEntity
 67
     1
  8
0
100
AcDbBlockBegin
  2
*PAPER_SPACE
  1

  0
ENDBLK
  5
1D
330
1B
100
AcDbEntity
 67
     1
  8
0
100
AcDbBlockEnd
  0
ENDSEC
  0
SECTION
  2
ENTITIES
  0
LWPOLYLINE
  5
100
100
AcDbEntity
  8
Layer_1
 62
7
100
AcDbPolyline
 90
280
 70
1
 10
7.500000
 20
168.127825
 30
0.0
 10
-17.599609
 20
167.926655
 30
0.0
 10
-19.300781
 20
167.827055
 30
0.0
 10
-23.150391
 20
167.440335
 30
0.0
 10
-27.000000
 20
167.127835
 30
0.0
 10
-38.386719
 20
166.614165
 30
0.0
 10
-49.699219
 20
166.026275
 30
0.0
 10
-59.250000
 20
165.315335
 30
0.0
 10
-68.800781
 20
164.526275
 30
0.0
 10
-74.699219
 20
163.926665
 30
0.0
 10
-81.099609
 20
163.127835
 30
0.0
 10
-89.650391
 20
162.315335
 30
0.0
 10
-98.199219
 20
161.426665
 30
0.0
 10
-109.087890
 20
159.901275
 30
0.0
 10
-119.900390
 20
158.227445
 30
0.0
 10
-137.400390
 20
155.426665
 30
0.0
 10
-147.900390
 20
153.627835
 30
0.0
 10
-155.449220
 20
152.114165
 30
0.0
 10
-163.000000
 20
150.526275
 30
0.0
 10
-168.687500
 20
149.477445
 30
0.0
 10
-174.300780
 20
148.426665
 30
0.0
 10
-182.099610
 20
146.651275
 30
0.0
 10
-189.900390
 20
145.026275
 30
0.0
 10
-199.425780
 20
143.088775
 30
0.0
 10
-208.800780
 20
140.627835
 30
0.0
 10
-211.900390
 20
139.651275
 30
0.0
 10
-215.000000
 20
138.827055
 30
0.0
 10
-218.939450
 20
138.030185
 30
0.0
 10
-222.812500
 20
137.102445
 30
0.0
 10
-226.628910
 20
135.987215
 30
0.0
 10
-230.400390
 20
134.627835
 30
0.0
 10
-233.011720
 20
133.815335
 30
0.0
 10
-235.699220
 20
133.227445
 30
0.0
 10
-241.000000
 20
131.926665
 30
0.0
 10
-248.062500
 20
129.588775
 30
0.0
 10
-255.199220
 20
127.327055
 30
0.0
 10
-263.386720
 20
124.864165
 30
0.0
 10
-267.476560
 20
123.543855
 30
0.0
 10
-271.500000
 20
122.026275
 30
0.0
 10
-274.699220
 20
120.832915
 30
0.0
 10
-277.962890
 20
119.752835
 30
0.0
 10
-284.500000
 20
117.627835
 30
0.0
 10
-290.599610
 20
115.426665
 30
0.0
 10
-304.099610
 20
111.127835
 30
0.0
 10
-311.537110
 20
108.502835
 30
0.0
 10
-318.900390
 20
105.727445
 30
0.0
 10
-325.449220
 20
103.065335
 30
0.0
 10
-332.000000
 20
100.327055
 30
0.0
 10
-332.787110
 20
99.914945
 30
0.0
 10
-333.500000
 20
99.426665
 30
0.0
 10
-334.841800
 20
98.190335
 30
0.0
 10
-335.837890
 20
96.739165
 30
0.0
 10
-336.439450
 20
95.080965
 30
0.0
 10
-336.599610
 20
93.227445
 30
0.0
 10
-336.199220
 20
71.827055
 30
0.0
 10
-336.312500
 20
66.727445
 30
0.0
 10
-336.500000
 20
61.627835
 30
0.0
 10
-336.099610
 20
48.227415
 30
0.0
 10
-335.712890
 20
42.315315
 30
0.0
 10
-335.400390
 20
36.327015
 30
0.0
 10
-334.900390
 20
16.127815
 30
0.0
 10
-334.099610
 20
1.227415
 30
0.0
 10
-333.732420
 20
-1.612385
 30
0.0
 10
-333.353520
 20
-2.772585
 30
0.0
 10
-332.812500
 20
-3.786185
 30
0.0
 10
-332.089840
 20
-4.672985
 30
0.0
 10
-331.160160
 20
-5.452285
 30
0.0
 10
-330.005860
 20
-6.145585
 30
0.0
 10
-328.599610
 20
-6.772585
 30
0.0
 10
-321.150390
 20
-9.747185
 30
0.0
 10
-313.699220
 20
-12.573285
 30
0.0
 10
-291.099610
 20
-20.473685
 30
0.0
 10
-284.699220
 20
-22.372185
 30
0.0
 10
-269.000000
 20
-27.372185
 30
0.0
 10
-264.150390
 20
-28.610485
 30
0.0
 10
-259.300780
 20
-29.772585
 30
0.0
 10
-256.802730
 20
-30.651485
 30
0.0
 10
-255.724610
 20
-31.260785
 30
0.0
 10
-254.775390
 20
-31.997185
 30
0.0
 10
-253.966800
 20
-32.876085
 30
0.0
 10
-253.308590
 20
-33.907285
 30
0.0
 10
-252.816410
 20
-35.102585
 30
0.0
 10
-252.500000
 20
-36.473685
 30
0.0
 10
-252.136720
 20
-39.073285
 30
0.0
 10
-252.000000
 20
-41.672985
 30
0.0
 10
-252.087900
 20
-51.272585
 30
0.0
 10
-252.013700
 20
-56.073285
 30
0.0
 10
-251.800810
 20
-60.872185
 30
0.0
 10
-251.599640
 20
-67.073285
 30
0.0
 10
-251.824250
 20
-71.172985
 30
0.0
 10
-251.900450
 20
-75.272585
 30
0.0
 10
-251.412170
 20
-84.973685
 30
0.0
 10
-251.000060
 20
-94.672985
 30
0.0
 10
-251.113340
 20
-99.772585
 30
0.0
 10
-251.300840
 20
-104.872185
 30
0.0
 10
-251.125060
 20
-108.973685
 30
0.0
 10
-251.046960
 20
-111.032285
 30
0.0
 10
-251.099660
 20
-113.073285
 30
0.0
 10
-251.113360
 20
-116.772585
 30
0.0
 10
-250.900470
 20
-120.473685
 30
0.0
 10
-250.642660
 20
-122.409285
 30
0.0
 10
-250.037190
 20
-124.184685
 30
0.0
 10
-249.113360
 20
-125.831185
 30
0.0
 10
-247.900470
 20
-127.372185
 30
0.0
 10
-242.863360
 20
-132.684685
 30
0.0
 10
-237.675860
 20
-137.835085
 30
0.0
 10
-227.000080
 20
-147.772585
 30
0.0
 10
-223.349690
 20
-151.059685
 30
0.0
 10
-221.599690
 20
-152.764785
 30
0.0
 10
-220.000080
 20
-154.573285
 30
0.0
 10
-217.484460
 20
-157.456185
 30
0.0
 10
-214.800860
 20
-160.161185
 30
0.0
 10
-209.300860
 20
-165.372185
 30
0.0
 10
-208.185630
 20
-166.374085
 30
0.0
 10
-207.019610
 20
-167.135785
 30
0.0
 10
-205.804770
 20
-167.672985
 30
0.0
 10
-204.550860
 20
-167.997185
 30
0.0
 10
-203.257890
 20
-168.126085
 30
0.0
 10
-201.931720
 20
-168.073085
 30
0.0
 10
-200.578200
 20
-167.850485
 30
0.0
 10
-199.199300
 20
-167.473485
 30
0.0
 10
-179.400470
 20
-160.672785
 30
0.0
 10
-173.699300
 20
-158.772385
 30
0.0
 10
-164.099690
 20
-156.073085
 30
0.0
 10
-159.400470
 20
-154.698085
 30
0.0
 10
-154.699300
 20
-153.473485
 30
0.0
 10
-144.025470
 20
-151.022385
 30
0.0
 10
-138.724690
 20
-149.590685
 30
0.0
 10
-133.500080
 20
-147.973485
 30
0.0
 10
-129.599690
 20
-147.073085
 30
0.0
 10
-122.312580
 20
-145.848485
 30
0.0
 10
-115.099690
 20
-144.473485
 30
0.0
 10
-104.238360
 20
-141.973485
 30
0.0
 10
-98.800861
 20
-140.957885
 30
0.0
 10
-93.300861
 20
-140.371985
 30
0.0
 10
-92.599689
 20
-140.172785
 30
0.0
 10
-75.199299
 20
-137.371985
 30
0.0
 10
-66.300861
 20
-136.172785
 30
0.0
 10
-47.800861
 20
-133.871985
 30
0.0
 10
-43.949299
 20
-133.397385
 30
0.0
 10
-40.099689
 20
-133.073085
 30
0.0
 10
-35.363361
 20
-132.785985
 30
0.0
 10
-33.027424
 20
-132.467685
 30
0.0
 10
-30.699299
 20
-131.973485
 30
0.0
 10
-30.500080
 20
-131.973485
 30
0.0
 10
-18.300861
 20
-131.973485
 30
0.0
 10
-13.599689
 20
-131.973485
 30
0.0
 10
1.900311
 20
-131.473485
 30
0.0
 10
10.599529
 20
-131.172785
 30
0.0
 10
15.800701
 20
-131.272785
 30
0.0
 10
32.400311
 20
-132.473885
 30
0.0
 10
40.099529
 20
-132.786385
 30
0.0
 10
47.800701
 20
-133.173185
 30
0.0
 10
72.400311
 20
-135.173185
 30
0.0
 10
77.136639
 20
-135.786385
 30
0.0
 10
81.800701
 20
-136.473885
 30
0.0
 10
84.300701
 20
-136.673185
 30
0.0
 10
95.400311
 20
-137.973885
 30
0.0
 10
99.599529
 20
-138.573485
 30
0.0
 10
112.999920
 20
-140.973885
 30
0.0
 10
122.499920
 20
-142.973885
 30
0.0
 10
131.849530
 20
-144.485685
 30
0.0
 10
141.199140
 20
-146.073485
 30
0.0
 10
144.706950
 20
-146.862585
 30
0.0
 10
148.187420
 20
-147.809885
 30
0.0
 10
155.099530
 20
-149.772785
 30
0.0
 10
158.999920
 20
-150.673185
 30
0.0
 10
167.988200
 20
-152.473885
 30
0.0
 10
172.456950
 20
-153.598885
 30
0.0
 10
176.900310
 20
-154.872385
 30
0.0
 10
184.738200
 20
-156.948485
 30
0.0
 10
188.642500
 20
-157.995385
 30
0.0
 10
192.499920
 20
-159.173185
 30
0.0
 10
199.699140
 20
-161.223885
 30
0.0
 10
206.900310
 20
-163.272785
 30
0.0
 10
208.376870
 20
-163.663385
 30
0.0
 10
209.808510
 20
-163.856785
 30
0.0
 10
211.193280
 20
-163.856785
 30
0.0
 10
212.537030
 20
-163.663385
 30
0.0
 10
213.837810
 20
-163.276685
 30
0.0
 10
215.097580
 20
-162.698585
 30
0.0
 10
216.318280
 20
-161.930985
 30
0.0
 10
217.499920
 20
-160.975885
 30
0.0
 10
220.574140
 20
-158.163385
 30
0.0
 10
223.499920
 20
-155.274785
 30
0.0
 10
226.238200
 20
-152.475885
 30
0.0
 10
228.900310
 20
-149.675185
 30
0.0
 10
240.400310
 20
-138.675185
 30
0.0
 10
245.300700
 20
-133.774785
 30
0.0
 10
249.437420
 20
-129.225885
 30
0.0
 10
251.529220
 20
-126.997385
 30
0.0
 10
253.800700
 20
-124.975885
 30
0.0
 10
255.464760
 20
-123.421185
 30
0.0
 10
256.699140
 20
-121.612685
 30
0.0
 10
257.484300
 20
-119.561885
 30
0.0
 10
257.800700
 20
-117.274785
 30
0.0
 10
258.099530
 20
-106.075485
 30
0.0
 10
257.900310
 20
-101.475885
 30
0.0
 10
257.699140
 20
-96.874385
 30
0.0
 10
258.199140
 20
-82.874385
 30
0.0
 10
257.900310
 20
-75.675185
 30
0.0
 10
258.136640
 20
-70.637985
 30
0.0
 10
258.279220
 20
-68.151685
 30
0.0
 10
258.300720
 20
-65.675185
 30
0.0
 10
258.124940
 20
-61.012985
 30
0.0
 10
258.099540
 20
-56.274785
 30
0.0
 10
258.238210
 20
-44.425185
 30
0.0
 10
258.300710
 20
-32.575485
 30
0.0
 10
258.380810
 20
-31.112685
 30
0.0
 10
258.626900
 20
-29.800185
 30
0.0
 10
259.042920
 20
-28.637985
 30
0.0
 10
259.636670
 20
-27.624385
 30
0.0
 10
260.414010
 20
-26.762985
 30
0.0
 10
261.378860
 20
-26.050185
 30
0.0
 10
262.539010
 20
-25.487685
 30
0.0
 10
263.900340
 20
-25.075485
 30
0.0
 10
270.206980
 20
-23.300185
 30
0.0
 10
276.412060
 20
-21.225885
 30
0.0
 10
288.699170
 20
-16.774785
 30
0.0
 10
292.249950
 20
-15.712285
 30
0.0
 10
295.800730
 20
-14.575485
 30
0.0
 10
315.599560
 20
-7.075485
 30
0.0
 10
324.412060
 20
-3.887985
 30
0.0
 10
328.748000
 20
-2.139985
 30
0.0
 10
332.999950
 20
-0.175185
 30
0.0
 10
334.359330
 20
0.625615
 30
0.0
 10
335.400340
 20
1.586615
 30
0.0
 10
336.066360
 20
2.791615
 30
0.0
 10
336.300730
 20
4.324815
 30
0.0
 10
336.449170
 20
6.362015
 30
0.0
 10
336.599560
 20
8.324815
 30
0.0
 10
336.599560
 20
38.524115
 30
0.0
 10
336.599560
 20
47.225215
 30
0.0
 10
336.099560
 20
64.924465
 30
0.0
 10
336.099560
 20
66.625635
 30
0.0
 10
335.824170
 20
74.125635
 30
0.0
 10
335.699170
 20
81.625635
 30
0.0
 10
335.925730
 20
87.074855
 30
0.0
 10
336.300730
 20
92.522125
 30
0.0
 10
335.705030
 20
92.324855
 30
0.0
 10
335.705030
 20
97.324855
 30
0.0
 10
335.695030
 20
99.777985
 30
0.0
 10
335.448940
 20
101.723295
 30
0.0
 10
334.960660
 20
103.254545
 30
0.0
 10
334.224330
 20
104.461575
 30
0.0
 10
333.234100
 20
105.440095
 30
0.0
 10
331.988000
 20
106.281895
 30
0.0
 10
328.698940
 20
107.924465
 30
0.0
 10
328.198940
 20
108.125635
 30
0.0
 10
308.599330
 20
115.625635
 30
0.0
 10
304.636440
 20
116.887355
 30
0.0
 10
300.599330
 20
118.225245
 30
0.0
 10
289.187220
 20
122.412745
 30
0.0
 10
277.698940
 20
126.524075
 30
0.0
 10
267.187220
 20
129.986965
 30
0.0
 10
256.599330
 20
133.225245
 30
0.0
 10
245.448940
 20
136.412745
 30
0.0
 10
234.300500
 20
139.524075
 30
0.0
 10
227.099330
 20
141.625635
 30
0.0
 10
207.999720
 20
146.125635
 30
0.0
 10
199.099330
 20
148.324855
 30
0.0
 10
196.198940
 20
148.824855
 30
0.0
 10
188.288780
 20
150.707675
 30
0.0
 10
180.312220
 20
152.336575
 30
0.0
 10
172.279020
 20
153.760405
 30
0.0
 10
164.198940
 20
155.024075
 30
0.0
 10
150.900110
 20
157.125635
 30
0.0
 10
135.900110
 20
159.524075
 30
0.0
 10
109.000000
 20
163.127825
 30
0.0
 10
104.800780
 20
163.565325
 30
0.0
 10
100.599610
 20
163.926655
 30
0.0
 10
96.599609
 20
164.327045
 30
0.0
 10
88.949219
 20
165.213765
 30
0.0
 10
81.300781
 20
166.026265
 30
0.0
 10
73.699219
 20
166.588765
 30
0.0
 10
66.099609
 20
166.926655
 30
0.0
 10
52.199219
 20
167.426655
 30
0.0
 10
48.599609
 20
167.713765
 30
0.0
 10
45.000000
 20
167.926655
 30
0.0
 10
7.500000
 20
168.127825
 30
0.0
  0
LWPOLYLINE
  5
101
100
AcDbEntity
  8
Layer_1
 62
7
100
AcDbPolyline
 90
224
 70
1
 10
-0.294922
 20
159.926655
 30
0.0
 10
31.904297
 20
159.727435
 30
0.0
 10
48.304688
 20
159.227435
 30
0.0
 10
64.705078
 20
158.227435
 30
0.0
 10
66.742188
 20
158.002825
 30
0.0
 10
68.705078
 20
157.926625
 30
0.0
 10
72.886719
 20
157.963725
 30
0.0
 10
77.042969
 20
157.614115
 30
0.0
 10
85.304688
 20
156.627785
 30
0.0
 10
91.503906
 20
156.190285
 30
0.0
 10
97.705078
 20
155.827005
 30
0.0
 10
108.304690
 20
154.627785
 30
0.0
 10
126.304690
 20
152.327005
 30
0.0
 10
133.142580
 20
151.463725
 30
0.0
 10
139.904300
 20
150.526225
 30
0.0
 10
148.441410
 20
149.252785
 30
0.0
 10
156.904300
 20
147.827005
 30
0.0
 10
158.955080
 20
147.239115
 30
0.0
 10
161.003910
 20
146.727395
 30
0.0
 10
167.003910
 20
145.852395
 30
0.0
 10
173.003910
 20
144.827005
 30
0.0
 10
186.404300
 20
141.926615
 30
0.0
 10
190.003910
 20
141.127785
 30
0.0
 10
197.847660
 20
139.518415
 30
0.0
 10
205.642580
 20
137.639505
 30
0.0
 10
221.205080
 20
133.627785
 30
0.0
 10
231.242190
 20
131.051615
 30
0.0
 10
241.205080
 20
128.327005
 30
0.0
 10
251.642580
 20
125.213725
 30
0.0
 10
262.003910
 20
122.026225
 30
0.0
 10
271.605470
 20
119.127785
 30
0.0
 10
278.503910
 20
117.026225
 30
0.0
 10
280.205080
 20
116.627785
 30
0.0
 10
282.761720
 20
116.166855
 30
0.0
 10
285.216800
 20
115.426615
 30
0.0
 10
287.615230
 20
114.461775
 30
0.0
 10
290.003910
 20
113.327005
 30
0.0
 10
292.980470
 20
112.018415
 30
0.0
 10
296.029300
 20
110.889505
 30
0.0
 10
302.205080
 20
108.827005
 30
0.0
 10
308.105470
 20
106.827005
 30
0.0
 10
321.105470
 20
101.827005
 30
0.0
 10
323.304690
 20
100.727395
 30
0.0
 10
324.345700
 20
100.114115
 30
0.0
 10
325.228520
 20
99.403185
 30
0.0
 10
325.957030
 20
98.602395
 30
0.0
 10
326.542970
 20
97.713725
 30
0.0
 10
327.312500
 20
95.705915
 30
0.0
 10
327.605470
 20
93.426615
 30
0.0
 10
327.705070
 20
84.227395
 30
0.0
 10
328.005850
 20
72.065285
 30
0.0
 10
328.005850
 20
59.827005
 30
0.0
 10
327.955050
 20
49.477365
 30
0.0
 10
327.904250
 20
39.127765
 30
0.0
 10
328.404250
 20
20.227365
 30
0.0
 10
328.316350
 20
15.627765
 30
0.0
 10
328.003850
 20
11.026265
 30
0.0
 10
327.734320
 20
9.604365
 30
0.0
 10
327.117130
 20
8.338765
 30
0.0
 10
326.218690
 20
7.244965
 30
0.0
 10
325.105410
 20
6.326965
 30
0.0
 10
323.128850
 20
5.065265
 30
0.0
 10
321.003850
 20
4.026265
 30
0.0
 10
309.503850
 20
-0.548035
 30
0.0
 10
298.003850
 20
-4.973735
 30
0.0
 10
294.294860
 20
-6.317535
 30
0.0
 10
290.529240
 20
-7.548035
 30
0.0
 10
282.904240
 20
-9.973735
 30
0.0
 10
276.503850
 20
-12.173035
 30
0.0
 10
262.105410
 20
-16.973735
 30
0.0
 10
249.804630
 20
-20.872235
 30
0.0
 10
241.404240
 20
-23.173035
 30
0.0
 10
228.404240
 20
-26.673035
 30
0.0
 10
223.455020
 20
-28.098735
 30
0.0
 10
218.503850
 20
-29.372235
 30
0.0
 10
215.753850
 20
-29.673035
 30
0.0
 10
213.003850
 20
-29.673035
 30
0.0
 10
211.312440
 20
-29.370235
 30
0.0
 10
209.816350
 20
-28.673035
 30
0.0
 10
208.490170
 20
-27.676935
 30
0.0
 10
207.304630
 20
-26.473735
 30
0.0
 10
202.779240
 20
-21.335135
 30
0.0
 10
198.105410
 20
-16.272635
 30
0.0
 10
192.804630
 20
-10.823335
 30
0.0
 10
190.060490
 20
-8.200335
 30
0.0
 10
187.205020
 20
-5.673035
 30
0.0
 10
177.517520
 20
2.377765
 30
0.0
 10
167.605410
 20
10.127765
 30
0.0
 10
162.775330
 20
13.707865
 30
0.0
 10
157.841740
 20
17.176665
 30
0.0
 10
152.740170
 20
20.420765
 30
0.0
 10
147.404240
 20
23.326965
 30
0.0
 10
146.066350
 20
24.002765
 30
0.0
 10
144.804630
 20
24.826965
 30
0.0
 10
141.492130
 20
27.045765
 30
0.0
 10
138.093690
 20
29.075065
 30
0.0
 10
131.091740
 20
32.713765
 30
0.0
 10
123.921820
 20
36.034065
 30
0.0
 10
116.705020
 20
39.326965
 30
0.0
 10
108.804630
 20
42.748865
 30
0.0
 10
100.753850
 20
45.776265
 30
0.0
 10
84.503846
 20
51.326965
 30
0.0
 10
81.378846
 20
52.276265
 30
0.0
 10
78.179628
 20
53.065285
 30
0.0
 10
71.705018
 20
54.426615
 30
0.0
 10
54.804628
 20
57.627785
 30
0.0
 10
50.355409
 20
58.252785
 30
0.0
 10
45.904237
 20
58.727395
 30
0.0
 10
38.167909
 20
59.588725
 30
0.0
 10
30.503846
 20
60.227395
 30
0.0
 10
24.904237
 20
60.364115
 30
0.0
 10
19.304628
 20
60.426615
 30
0.0
 10
15.304628
 20
60.577005
 30
0.0
 10
11.304628
 20
60.727395
 30
0.0
 10
6.105409
 20
60.526225
 30
0.0
 10
3.904237
 20
60.426625
 30
0.0
 10
-3.544982
 20
60.364125
 30
0.0
 10
-10.996154
 20
60.227405
 30
0.0
 10
-15.257872
 20
59.752795
 30
0.0
 10
-19.595763
 20
59.127795
 30
0.0
 10
-29.496154
 20
57.926625
 30
0.0
 10
-35.595763
 20
56.827015
 30
0.0
 10
-42.433654
 20
55.952015
 30
0.0
 10
-45.818419
 20
55.504755
 30
0.0
 10
-49.195372
 20
54.926625
 30
0.0
 10
-57.332091
 20
53.039905
 30
0.0
 10
-65.394591
 20
50.926675
 30
0.0
 10
-72.382872
 20
49.002775
 30
0.0
 10
-79.294982
 20
46.926675
 30
0.0
 10
-85.634826
 20
44.869975
 30
0.0
 10
-91.908263
 20
42.614175
 30
0.0
 10
-98.125060
 20
40.190275
 30
0.0
 10
-104.294980
 20
37.627775
 30
0.0
 10
-110.902400
 20
34.641475
 30
0.0
 10
-117.394590
 20
31.440275
 30
0.0
 10
-130.195370
 20
24.727375
 30
0.0
 10
-136.646540
 20
21.166875
 30
0.0
 10
-142.957090
 20
17.389475
 30
0.0
 10
-149.136780
 20
13.407075
 30
0.0
 10
-155.195370
 20
9.227375
 30
0.0
 10
-160.152400
 20
5.541875
 30
0.0
 10
-164.996150
 20
1.713775
 30
0.0
 10
-174.496150
 20
-6.173025
 30
0.0
 10
-183.271540
 20
-13.598725
 30
0.0
 10
-191.896540
 20
-21.173025
 30
0.0
 10
-194.212950
 20
-23.356625
 30
0.0
 10
-196.408260
 20
-25.661225
 30
0.0
 10
-200.695370
 20
-30.372225
 30
0.0
 10
-202.560610
 20
-32.020625
 30
0.0
 10
-203.554750
 20
-32.618325
 30
0.0
 10
-204.595760
 20
-33.059725
 30
0.0
 10
-205.693420
 20
-33.348725
 30
0.0
 10
-206.855530
 20
-33.481625
 30
0.0
 10
-208.086000
 20
-33.456625
 30
0.0
 10
-209.396540
 20
-33.273025
 30
0.0
 10
-215.586000
 20
-32.071825
 30
0.0
 10
-221.720760
 20
-30.710525
 30
0.0
 10
-227.816470
 20
-29.181225
 30
0.0
 10
-233.896540
 20
-27.474125
 30
0.0
 10
-246.146540
 20
-24.073725
 30
0.0
 10
-258.396540
 20
-20.673425
 30
0.0
 10
-270.783260
 20
-16.849125
 30
0.0
 10
-283.095760
 20
-12.872625
 30
0.0
 10
-303.996150
 20
-6.073725
 30
0.0
 10
-306.195370
 20
-5.298425
 30
0.0
 10
-308.396540
 20
-4.372625
 30
0.0
 10
-315.595760
 20
-1.673425
 30
0.0
 10
-318.632870
 20
-0.511225
 30
0.0
 10
-321.595760
 20
0.726975
 30
0.0
 10
-323.046940
 20
1.652775
 30
0.0
 10
-324.132870
 20
2.889075
 30
0.0
 10
-324.900450
 20
4.369575
 30
0.0
 10
-325.396540
 20
6.025875
 30
0.0
 10
-325.720760
 20
8.189875
 30
0.0
 10
-325.896540
 20
10.426275
 30
0.0
 10
-326.169980
 20
21.275875
 30
0.0
 10
-326.595760
 20
32.127375
 30
0.0
 10
-327.107480
 20
41.226975
 30
0.0
 10
-327.396540
 20
50.326575
 30
0.0
 10
-327.621150
 20
60.676225
 30
0.0
 10
-327.996150
 20
71.025835
 30
0.0
 10
-327.982450
 20
73.525835
 30
0.0
 10
-327.896550
 20
76.025835
 30
0.0
 10
-327.996150
 20
88.727005
 30
0.0
 10
-327.771540
 20
91.150835
 30
0.0
 10
-327.468810
 20
92.129355
 30
0.0
 10
-327.021540
 20
92.977005
 30
0.0
 10
-326.414120
 20
93.711385
 30
0.0
 10
-325.632870
 20
94.352005
 30
0.0
 10
-323.496150
 20
95.426225
 30
0.0
 10
-305.896540
 20
101.826615
 30
0.0
 10
-280.195370
 20
111.426225
 30
0.0
 10
-279.496150
 20
111.727005
 30
0.0
 10
-277.375060
 20
112.035605
 30
0.0
 10
-275.285220
 20
112.486775
 30
0.0
 10
-271.169980
 20
113.689895
 30
0.0
 10
-267.091860
 20
115.059045
 30
0.0
 10
-262.996150
 20
116.326615
 30
0.0
 10
-253.396540
 20
118.926225
 30
0.0
 10
-251.396540
 20
119.539505
 30
0.0
 10
-249.396540
 20
120.227005
 30
0.0
 10
-243.195370
 20
122.227005
 30
0.0
 10
-225.496150
 20
127.426225
 30
0.0
 10
-221.646540
 20
128.564895
 30
0.0
 10
-217.794980
 20
129.627395
 30
0.0
 10
-205.482480
 20
132.738725
 30
0.0
 10
-193.095760
 20
135.627395
 30
0.0
 10
-167.695370
 20
140.826615
 30
0.0
 10
-155.996150
 20
143.426225
 30
0.0
 10
-140.595760
 20
146.227005
 30
0.0
 10
-118.996150
 20
149.826615
 30
0.0
 10
-117.894590
 20
150.102005
 30
0.0
 10
-116.794980
 20
150.227005
 30
0.0
 10
-113.363340
 20
150.320705
 30
0.0
 10
-109.957090
 20
150.676175
 30
0.0
 10
-103.195370
 20
151.726955
 30
0.0
 10
-86.394591
 20
153.826565
 30
0.0
 10
-70.294982
 20
155.826565
 30
0.0
 10
-51.996154
 20
157.426175
 30
0.0
 10
-43.695372
 20
158.150785
 30
0.0
 10
-35.394591
 20
158.726955
 30
0.0
 10
-21.496154
 20
159.226955
 30
0.0
 10
-2.996154
 20
159.826565
 30
0.0
 10
-0.294922
 20
159.926655
 30
0.0
  0
LWPOLYLINE
  5
102
100
AcDbEntity
  8
Layer_1
 62
7
100
AcDbPolyline
 90
123
 70
1
 10
-0.494141
 20
53.526265
 30
0.0
 10
15.505859
 20
53.526265
 30
0.0
 10
24.892578
 20
53.338765
 30
0.0
 10
29.552734
 20
53.063375
 30
0.0
 10
34.205078
 20
52.627825
 30
0.0
 10
40.404297
 20
52.114205
 30
0.0
 10
43.513672
 20
51.881705
 30
0.0
 10
46.605469
 20
51.526305
 30
0.0
 10
51.955078
 20
50.539905
 30
0.0
 10
57.304688
 20
49.327005
 30
0.0
 10
70.642578
 20
46.190305
 30
0.0
 10
83.904297
 20
42.827005
 30
0.0
 10
91.380859
 20
40.452005
 30
0.0
 10
98.705078
 20
37.627805
 30
0.0
 10
107.492190
 20
33.827005
 30
0.0
 10
116.205080
 20
29.727405
 30
0.0
 10
123.804690
 20
25.940305
 30
0.0
 10
131.404300
 20
22.227405
 30
0.0
 10
136.369140
 20
19.713805
 30
0.0
 10
141.117190
 20
16.889505
 30
0.0
 10
145.734380
 20
13.860205
 30
0.0
 10
150.304690
 20
10.727405
 30
0.0
 10
153.105470
 20
9.039905
 30
0.0
 10
155.904300
 20
7.426705
 30
0.0
 10
158.642580
 20
5.664905
 30
0.0
 10
161.304690
 20
3.827005
 30
0.0
 10
167.792970
 20
-1.198295
 30
0.0
 10
174.205080
 20
-6.372195
 30
0.0
 10
180.330080
 20
-11.335095
 30
0.0
 10
186.304690
 20
-16.372195
 30
0.0
 10
189.230470
 20
-19.147595
 30
0.0
 10
192.005860
 20
-22.073295
 30
0.0
 10
194.630860
 20
-25.147595
 30
0.0
 10
197.105470
 20
-28.372195
 30
0.0
 10
197.982420
 20
-29.790095
 30
0.0
 10
198.400390
 20
-31.043995
 30
0.0
 10
198.417990
 20
-32.139795
 30
0.0
 10
198.091820
 20
-33.085095
 30
0.0
 10
197.480490
 20
-33.885795
 30
0.0
 10
196.640640
 20
-34.545995
 30
0.0
 10
195.628930
 20
-35.073295
 30
0.0
 10
194.505880
 20
-35.473695
 30
0.0
 10
188.904320
 20
-36.934695
 30
0.0
 10
183.304710
 20
-38.172995
 30
0.0
 10
170.955100
 20
-40.497195
 30
0.0
 10
158.605490
 20
-42.973695
 30
0.0
 10
150.847680
 20
-44.444395
 30
0.0
 10
143.042990
 20
-45.672995
 30
0.0
 10
135.218770
 20
-46.825295
 30
0.0
 10
127.404320
 20
-48.073295
 30
0.0
 10
116.992210
 20
-49.710095
 30
0.0
 10
106.505880
 20
-50.973695
 30
0.0
 10
101.318380
 20
-51.647595
 30
0.0
 10
96.205098
 20
-52.473695
 30
0.0
 10
93.955098
 20
-52.559695
 30
0.0
 10
91.705098
 20
-52.573695
 30
0.0
 10
71.605489
 20
-54.474095
 30
0.0
 10
53.005879
 20
-55.772995
 30
0.0
 10
53.005879
 20
-55.372595
 30
0.0
 10
44.980489
 20
-56.210495
 30
0.0
 10
36.804708
 20
-57.272995
 30
0.0
 10
34.492208
 20
-57.460495
 30
0.0
 10
32.105489
 20
-57.573695
 30
0.0
 10
21.404317
 20
-57.872595
 30
0.0
 10
19.404317
 20
-57.872595
 30
0.0
 10
-11.794902
 20
-57.872595
 30
0.0
 10
-19.744121
 20
-57.511195
 30
0.0
 10
-27.695292
 20
-57.073695
 30
0.0
 10
-32.582011
 20
-57.011695
 30
0.0
 10
-37.394511
 20
-56.873095
 30
0.0
 10
-47.794902
 20
-56.074195
 30
0.0
 10
-50.294902
 20
-55.873095
 30
0.0
 10
-69.695292
 20
-54.974595
 30
0.0
 10
-77.556621
 20
-54.349595
 30
0.0
 10
-85.494121
 20
-53.574195
 30
0.0
 10
-91.695292
 20
-53.060595
 30
0.0
 10
-97.894511
 20
-52.474595
 30
0.0
 10
-112.695290
 20
-50.474595
 30
0.0
 10
-123.345680
 20
-49.210995
 30
0.0
 10
-133.994120
 20
-47.873095
 30
0.0
 10
-145.794900
 20
-46.060595
 30
0.0
 10
-157.595680
 20
-44.173895
 30
0.0
 10
-166.494120
 20
-42.873095
 30
0.0
 10
-187.994120
 20
-38.773495
 30
0.0
 10
-188.695290
 20
-38.574195
 30
0.0
 10
-189.781230
 20
-38.115295
 30
0.0
 10
-190.634750
 20
-37.503895
 30
0.0
 10
-191.249980
 20
-36.769595
 30
0.0
 10
-191.619120
 20
-35.935595
 30
0.0
 10
-191.736310
 20
-35.033195
 30
0.0
 10
-191.591780
 20
-34.087895
 30
0.0
 10
-191.179670
 20
-33.124995
 30
0.0
 10
-190.494120
 20
-32.173895
 30
0.0
 10
-188.220680
 20
-29.886695
 30
0.0
 10
-185.794900
 20
-27.673895
 30
0.0
 10
-176.095680
 20
-18.673895
 30
0.0
 10
-169.937480
 20
-13.003895
 30
0.0
 10
-163.582010
 20
-7.585995
 30
0.0
 10
-156.984360
 20
-2.488295
 30
0.0
 10
-150.095680
 20
2.226505
 30
0.0
 10
-143.345680
 20
6.726505
 30
0.0
 10
-136.595680
 20
11.226505
 30
0.0
 10
-131.820290
 20
14.101505
 30
0.0
 10
-126.894510
 20
16.826105
 30
0.0
 10
-118.080060
 20
21.429705
 30
0.0
 10
-109.169900
 20
25.900405
 30
0.0
 10
-100.148420
 20
30.185505
 30
0.0
 10
-90.994121
 20
34.226505
 30
0.0
 10
-82.839824
 20
37.466805
 30
0.0
 10
-74.582011
 20
40.351505
 30
0.0
 10
-66.230449
 20
42.972605
 30
0.0
 10
-57.794902
 20
45.425805
 30
0.0
 10
-54.462871
 20
46.199205
 30
0.0
 10
-51.095683
 20
46.814405
 30
0.0
 10
-47.726542
 20
47.408205
 30
0.0
 10
-44.394511
 20
48.126905
 30
0.0
 10
-39.128886
 20
49.308605
 30
0.0
 10
-33.845683
 20
50.238305
 30
0.0
 10
-23.294902
 20
51.826105
 30
0.0
 10
-18.345683
 20
52.388645
 30
0.0
 10
-13.394511
 20
52.726535
 30
0.0
 10
-6.945292
 20
53.201145
 30
0.0
 10
-0.494141
 20
53.526265
 30
0.0
  0
LWPOLYLINE
  5
103
100
AcDbEntity
  8
Layer_1
 62
7
100
AcDbPolyline
 90
175
 70
1
 10
244.302730
 20
-31.338995
 30
0.0
 10
246.003910
 20
-31.512795
 30
0.0
 10
247.476560
 20
-32.063595
 30
0.0
 10
248.693360
 20
-32.960095
 30
0.0
 10
249.623050
 20
-34.170995
 30
0.0
 10
250.238280
 20
-35.665095
 30
0.0
 10
250.507810
 20
-37.409295
 30
0.0
 10
250.404300
 20
-39.372195
 30
0.0
 10
250.205080
 20
-42.372195
 30
0.0
 10
249.904300
 20
-70.073295
 30
0.0
 10
249.904300
 20
-80.573295
 30
0.0
 10
250.205080
 20
-89.573295
 30
0.0
 10
250.230480
 20
-92.073295
 30
0.0
 10
250.105480
 20
-94.573295
 30
0.0
 10
249.867200
 20
-98.672995
 30
0.0
 10
249.705090
 20
-102.772595
 30
0.0
 10
249.716790
 20
-108.272595
 30
0.0
 10
249.804690
 20
-113.772595
 30
0.0
 10
249.568360
 20
-116.096795
 30
0.0
 10
248.880860
 20
-118.260795
 30
0.0
 10
247.779300
 20
-120.254995
 30
0.0
 10
246.304690
 20
-122.073295
 30
0.0
 10
233.404300
 20
-135.272595
 30
0.0
 10
218.705080
 20
-150.872195
 30
0.0
 10
216.580080
 20
-152.835095
 30
0.0
 10
214.304690
 20
-154.573295
 30
0.0
 10
212.992190
 20
-155.305795
 30
0.0
 10
211.605470
 20
-155.710095
 30
0.0
 10
210.142580
 20
-155.796095
 30
0.0
 10
208.605470
 20
-155.573395
 30
0.0
 10
196.392580
 20
-152.385895
 30
0.0
 10
190.365230
 20
-150.608595
 30
0.0
 10
184.404300
 20
-148.673095
 30
0.0
 10
179.392580
 20
-147.298095
 30
0.0
 10
174.304690
 20
-146.073395
 30
0.0
 10
167.554690
 20
-144.335195
 30
0.0
 10
160.804690
 20
-142.673095
 30
0.0
 10
144.904300
 20
-139.372295
 30
0.0
 10
140.304690
 20
-138.286295
 30
0.0
 10
135.705080
 20
-137.272695
 30
0.0
 10
116.304690
 20
-133.973795
 30
0.0
 10
113.404300
 20
-133.272695
 30
0.0
 10
110.505860
 20
-132.573395
 30
0.0
 10
99.705078
 20
-131.073395
 30
0.0
 10
86.904297
 20
-129.173095
 30
0.0
 10
81.705078
 20
-128.585195
 30
0.0
 10
76.505859
 20
-128.073395
 30
0.0
 10
61.205078
 20
-126.372295
 30
0.0
 10
49.505859
 20
-125.473795
 30
0.0
 10
36.054688
 20
-124.897695
 30
0.0
 10
22.605469
 20
-124.473795
 30
0.0
 10
12.154297
 20
-124.485795
 30
0.0
 10
1.705078
 20
-124.573795
 30
0.0
 10
-10.294922
 20
-124.573795
 30
0.0
 10
-19.595703
 20
-124.710595
 30
0.0
 10
-28.894531
 20
-125.073795
 30
0.0
 10
-40.644531
 20
-126.099195
 30
0.0
 10
-52.394531
 20
-127.273095
 30
0.0
 10
-58.445312
 20
-127.786695
 30
0.0
 10
-64.494141
 20
-128.372695
 30
0.0
 10
-79.931641
 20
-130.497695
 30
0.0
 10
-95.294922
 20
-132.773095
 30
0.0
 10
-107.482420
 20
-134.860995
 30
0.0
 10
-119.595700
 20
-137.173495
 30
0.0
 10
-133.695310
 20
-140.372695
 30
0.0
 10
-141.294920
 20
-141.974195
 30
0.0
 10
-165.595700
 20
-148.372695
 30
0.0
 10
-174.556640
 20
-150.935195
 30
0.0
 10
-179.052730
 20
-152.185195
 30
0.0
 10
-183.595700
 20
-153.273095
 30
0.0
 10
-186.802730
 20
-154.101195
 30
0.0
 10
-189.982420
 20
-155.173495
 30
0.0
 10
-196.294920
 20
-157.673495
 30
0.0
 10
-197.945310
 20
-158.230095
 30
0.0
 10
-199.527340
 20
-158.550395
 30
0.0
 10
-201.046880
 20
-158.628395
 30
0.0
 10
-202.507810
 20
-158.460495
 30
0.0
 10
-203.917970
 20
-158.046395
 30
0.0
 10
-205.281250
 20
-157.378395
 30
0.0
 10
-206.605470
 20
-156.454595
 30
0.0
 10
-207.894530
 20
-155.272995
 30
0.0
 10
-213.857420
 20
-149.235895
 30
0.0
 10
-219.894530
 20
-143.272995
 30
0.0
 10
-227.794920
 20
-135.673395
 30
0.0
 10
-239.294920
 20
-123.872595
 30
0.0
 10
-240.814450
 20
-122.038595
 30
0.0
 10
-241.919920
 20
-119.997595
 30
0.0
 10
-242.613280
 20
-117.770995
 30
0.0
 10
-242.894530
 20
-115.372595
 30
0.0
 10
-243.695310
 20
-98.474095
 30
0.0
 10
-243.695310
 20
-90.772995
 30
0.0
 10
-243.894530
 20
-90.772995
 30
0.0
 10
-243.095700
 20
-80.372595
 30
0.0
 10
-243.394530
 20
-70.173395
 30
0.0
 10
-243.394530
 20
-67.173395
 30
0.0
 10
-243.394530
 20
-50.173395
 30
0.0
 10
-243.095700
 20
-39.974095
 30
0.0
 10
-242.982420
 20
-38.876495
 30
0.0
 10
-242.722660
 20
-37.917495
 30
0.0
 10
-242.318360
 20
-37.097195
 30
0.0
 10
-241.769530
 20
-36.423395
 30
0.0
 10
-241.082030
 20
-35.899895
 30
0.0
 10
-240.253910
 20
-35.528795
 30
0.0
 10
-239.291020
 20
-35.319795
 30
0.0
 10
-238.195310
 20
-35.272795
 30
0.0
 10
-237.095700
 20
-35.348795
 30
0.0
 10
-235.994140
 20
-35.573395
 30
0.0
 10
-216.595700
 20
-40.073395
 30
0.0
 10
-197.695310
 20
-44.573395
 30
0.0
 10
-190.195310
 20
-46.372295
 30
0.0
 10
-175.195310
 20
-48.872295
 30
0.0
 10
-166.894530
 20
-50.372295
 30
0.0
 10
-161.494140
 20
-51.173095
 30
0.0
 10
-142.294920
 20
-53.872295
 30
0.0
 10
-137.894530
 20
-54.647695
 30
0.0
 10
-133.494140
 20
-55.573395
 30
0.0
 10
-129.203120
 20
-56.362495
 30
0.0
 10
-124.882810
 20
-56.860595
 30
0.0
 10
-116.195310
 20
-57.473795
 30
0.0
 10
-109.082030
 20
-58.147695
 30
0.0
 10
-101.894530
 20
-58.973795
 30
0.0
 10
-93.494141
 20
-59.772695
 30
0.0
 10
-85.845703
 20
-60.760895
 30
0.0
 10
-78.195312
 20
-61.673095
 30
0.0
 10
-72.744141
 20
-62.059795
 30
0.0
 10
-67.294922
 20
-62.372295
 30
0.0
 10
-50.195312
 20
-63.573395
 30
0.0
 10
-46.158203
 20
-63.798095
 30
0.0
 10
-44.162109
 20
-63.771095
 30
0.0
 10
-42.195312
 20
-63.573795
 30
0.0
 10
-39.978516
 20
-63.396095
 30
0.0
 10
-37.806641
 20
-63.423095
 30
0.0
 10
-33.494141
 20
-63.872295
 30
0.0
 10
-27.732422
 20
-64.536295
 30
0.0
 10
-24.818359
 20
-64.618295
 30
0.0
 10
-21.894531
 20
-64.372195
 30
0.0
 10
-20.769531
 20
-64.319195
 30
0.0
 10
-19.644531
 20
-64.397195
 30
0.0
 10
-17.394531
 20
-64.572895
 30
0.0
 10
-13.195312
 20
-64.371795
 30
0.0
 10
-3.695313
 20
-64.371795
 30
0.0
 10
-1.658203
 20
-64.260395
 30
0.0
 10
0.304687
 20
-64.072895
 30
0.0
 10
1.404297
 20
-63.984895
 30
0.0
 10
2.505859
 20
-63.972895
 30
0.0
 10
6.044922
 20
-64.371395
 30
0.0
 10
9.605469
 20
-64.459395
 30
0.0
 10
16.705078
 20
-64.271895
 30
0.0
 10
20.904297
 20
-64.271895
 30
0.0
 10
25.554688
 20
-64.385095
 30
0.0
 10
30.205078
 20
-64.197595
 30
0.0
 10
39.505859
 20
-63.371495
 30
0.0
 10
43.505859
 20
-63.271495
 30
0.0
 10
53.404297
 20
-62.572195
 30
0.0
 10
60.904297
 20
-62.271495
 30
0.0
 10
74.304688
 20
-61.371095
 30
0.0
 10
84.705078
 20
-60.771495
 30
0.0
 10
98.804688
 20
-59.072195
 30
0.0
 10
110.904300
 20
-57.472595
 30
0.0
 10
126.205080
 20
-55.371095
 30
0.0
 10
134.742190
 20
-54.208995
 30
0.0
 10
143.205080
 20
-52.972595
 30
0.0
 10
154.154300
 20
-51.046895
 30
0.0
 10
165.105470
 20
-49.271495
 30
0.0
 10
170.623050
 20
-48.328095
 30
0.0
 10
176.091800
 20
-47.121095
 30
0.0
 10
181.544920
 20
-45.839795
 30
0.0
 10
187.005860
 20
-44.671895
 30
0.0
 10
195.355470
 20
-42.796895
 30
0.0
 10
203.705080
 20
-40.771495
 30
0.0
 10
211.505860
 20
-39.271495
 30
0.0
 10
221.654300
 20
-36.759695
 30
0.0
 10
231.804690
 20
-34.171895
 30
0.0
 10
242.404300
 20
-31.572195
 30
0.0
 10
244.302730
 20
-31.338995
 30
0.0
  0
LWPOLYLINE
  5
104
100
AcDbEntity
  8
Layer_1
 62
7
100
AcDbPolyline
 90
112
 70
0
 10
291.299988
 20
76.626895
 30
0.0
 10
291.066198
 20
73.855025
 30
0.0
 10
290.648428
 20
71.101895
 30
0.0
 10
290.022058
 20
68.386275
 30
0.0
 10
289.162488
 20
65.726895
 30
0.0
 10
288.045108
 20
63.142525
 30
0.0
 10
286.645298
 20
60.651895
 30
0.0
 10
284.938468
 20
58.273775
 30
0.0
 10
282.899988
 20
56.026895
 30
0.0
 10
279.915618
 20
53.455025
 30
0.0
 10
278.319128
 20
52.339005
 30
0.0
 10
276.649988
 20
51.351895
 30
0.0
 10
274.905848
 20
50.505415
 30
0.0
 10
273.084368
 20
49.811275
 30
0.0
 10
271.183198
 20
49.281195
 30
0.0
 10
269.199988
 20
48.926895
 30
0.0
 10
264.712488
 20
48.551895
 30
0.0
 10
260.299988
 20
48.326895
 30
0.0
 10
257.599988
 20
48.026895
 30
0.0
 10
255.935928
 20
47.494085
 30
0.0
 10
254.787488
 20
46.614395
 30
0.0
 10
254.070298
 20
45.340955
 30
0.0
 10
253.699988
 20
43.626895
 30
0.0
 10
252.649988
 20
32.226895
 30
0.0
 10
252.199988
 20
20.826895
 30
0.0
 10
251.974988
 20
15.589395
 30
0.0
 10
251.599988
 20
10.426895
 30
0.0
 10
250.899988
 20
0.326895
 30
0.0
 10
250.899988
 20
-0.373105
 30
0.0
 10
250.612488
 20
-1.744975
 30
0.0
 10
250.137488
 20
-2.854355
 30
0.0
 10
249.493738
 20
-3.691855
 30
0.0
 10
248.699988
 20
-4.248105
 30
0.0
 10
247.774988
 20
-4.513725
 30
0.0
 10
246.737488
 20
-4.479325
 30
0.0
 10
245.606238
 20
-4.135575
 30
0.0
 10
244.399988
 20
-3.473075
 30
0.0
 10
242.446868
 20
-1.912135
 30
0.0
 10
241.654288
 20
-1.024445
 30
0.0
 10
240.999988
 20
-0.060575
 30
0.0
 10
240.495698
 20
0.982985
 30
0.0
 10
240.153118
 20
2.109735
 30
0.0
 10
239.983978
 20
3.323215
 30
0.0
 10
239.999978
 20
4.626925
 30
0.0
 10
240.999978
 20
18.026925
 30
0.0
 10
240.999978
 20
21.426925
 30
0.0
 10
242.099978
 20
33.826925
 30
0.0
 10
242.899978
 20
46.726925
 30
0.0
 10
242.751538
 20
48.612865
 30
0.0
 10
242.162478
 20
50.339425
 30
0.0
 10
241.142168
 20
51.859735
 30
0.0
 10
239.699978
 20
53.126925
 30
0.0
 10
238.371858
 20
53.780055
 30
0.0
 10
237.099978
 20
53.926925
 30
0.0
 10
235.903108
 20
53.548805
 30
0.0
 10
234.799978
 20
52.626925
 30
0.0
 10
233.587478
 20
51.201925
 30
0.0
 10
232.599978
 20
49.626925
 30
0.0
 10
229.499978
 20
42.326925
 30
0.0
 10
220.799978
 20
21.126925
 30
0.0
 10
220.024978
 20
19.701925
 30
0.0
 10
219.099978
 20
18.426925
 30
0.0
 10
218.431228
 20
17.715015
 30
0.0
 10
217.706228
 20
17.156615
 30
0.0
 10
216.934358
 20
16.755245
 30
0.0
 10
216.124978
 20
16.514425
 30
0.0
 10
215.287478
 20
16.437625
 30
0.0
 10
214.431228
 20
16.528425
 30
0.0
 10
213.565608
 20
16.790345
 30
0.0
 10
212.699978
 20
17.226865
 30
0.0
 10
211.800758
 20
17.834285
 30
0.0
 10
211.056228
 20
18.523745
 30
0.0
 10
210.471078
 20
19.283505
 30
0.0
 10
210.049978
 20
20.101865
 30
0.0
 10
209.797638
 20
20.967105
 30
0.0
 10
209.718738
 20
21.867495
 30
0.0
 10
209.817938
 20
22.791315
 30
0.0
 10
210.099968
 20
23.726865
 30
0.0
 10
218.499968
 20
44.826865
 30
0.0
 10
223.099968
 20
57.226865
 30
0.0
 10
225.474968
 20
62.976865
 30
0.0
 10
227.999968
 20
68.726865
 30
0.0
 10
228.899968
 20
70.826865
 30
0.0
 10
236.299968
 20
89.126865
 30
0.0
 10
240.462468
 20
99.014365
 30
0.0
 10
244.699968
 20
108.826875
 30
0.0
 10
245.339028
 20
110.078235
 30
0.0
 10
246.062468
 20
111.131555
 30
0.0
 10
246.879658
 20
111.985655
 30
0.0
 10
247.799968
 20
112.639375
 30
0.0
 10
248.832778
 20
113.091515
 30
0.0
 10
249.987468
 20
113.340935
 30
0.0
 10
251.273408
 20
113.386435
 30
0.0
 10
252.699968
 20
113.226865
 30
0.0
 10
256.724968
 20
112.364365
 30
0.0
 10
260.599968
 20
111.126865
 30
0.0
 10
267.274968
 20
108.364365
 30
0.0
 10
270.556218
 20
106.865925
 30
0.0
 10
273.799968
 20
105.226865
 30
0.0
 10
276.204458
 20
103.806355
 30
0.0
 10
278.467158
 20
102.244045
 30
0.0
 10
280.586888
 20
100.538775
 30
0.0
 10
282.562468
 20
98.689355
 30
0.0
 10
284.392748
 20
96.694625
 30
0.0
 10
286.076528
 20
94.553415
 30
0.0
 10
287.612668
 20
92.264555
 30
0.0
 10
288.999968
 20
89.826855
 30
0.0
 10
290.020278
 20
86.681545
 30
0.0
 10
290.712468
 20
83.489355
 30
0.0
 10
291.123408
 20
80.165915
 30
0.0
 10
291.299968
 20
76.626855
 30
0.0
 10
291.299968
 20
76.626855
 30
0.0
  0
LWPOLYLINE
  5
105
100
AcDbEntity
  8
Layer_1
 62
7
100
AcDbPolyline
 90
47
 70
0
 10
279.799968
 20
75.326855
 30
0.0
 10
279.199968
 20
81.226855
 30
0.0
 10
278.699968
 20
83.700295
 30
0.0
 10
277.824968
 20
86.014355
 30
0.0
 10
276.612468
 20
88.159665
 30
0.0
 10
275.099968
 20
90.126855
 30
0.0
 10
273.428288
 20
91.877055
 30
0.0
 10
271.645278
 20
93.459665
 30
0.0
 10
269.761498
 20
94.885255
 30
0.0
 10
267.787468
 20
96.164355
 30
0.0
 10
263.610908
 20
98.325295
 30
0.0
 10
259.199968
 20
100.026865
 30
0.0
 10
257.980048
 20
100.377835
 30
0.0
 10
256.865598
 20
100.528425
 30
0.0
 10
255.849578
 20
100.475125
 30
0.0
 10
254.924968
 20
100.214385
 30
0.0
 10
254.084738
 20
99.742705
 30
0.0
 10
253.321848
 20
99.056565
 30
0.0
 10
252.629268
 20
98.152465
 30
0.0
 10
251.999968
 20
97.026875
 30
0.0
 10
248.799968
 20
90.026875
 30
0.0
 10
241.699968
 20
71.426875
 30
0.0
 10
240.999968
 20
69.326875
 30
0.0
 10
240.781218
 20
67.534685
 30
0.0
 10
241.049968
 20
66.014375
 30
0.0
 10
241.843718
 20
64.700315
 30
0.0
 10
243.199968
 20
63.526875
 30
0.0
 10
245.099968
 20
62.426875
 30
0.0
 10
248.346848
 20
60.961255
 30
0.0
 10
251.649968
 20
59.626875
 30
0.0
 10
255.028098
 20
58.517505
 30
0.0
 10
258.499968
 20
57.726875
 30
0.0
 10
260.345278
 20
57.473755
 30
0.0
 10
262.237468
 20
57.351875
 30
0.0
 10
264.110908
 20
57.417475
 30
0.0
 10
265.899968
 20
57.726845
 30
0.0
 10
267.530438
 20
58.180485
 30
0.0
 10
269.081218
 20
58.782515
 30
0.0
 10
270.547628
 20
59.519595
 30
0.0
 10
271.924968
 20
60.378405
 30
0.0
 10
274.393718
 20
62.407905
 30
0.0
 10
276.449968
 20
64.764345
 30
0.0
 10
278.056218
 20
67.341105
 30
0.0
 10
279.174968
 20
70.031535
 30
0.0
 10
279.768718
 20
72.728995
 30
0.0
 10
279.799918
 20
75.326845
 30
0.0
 10
279.799918
 20
75.326845
 30
0.0
  0
LWPOLYLINE
  5
106
100
AcDbEntity
  8
Layer_1
 62
7
100
AcDbPolyline
 90
197
 70
0
 10
-241.100032
 20
-3.673105
 30
0.0
 10
-243.865852
 20
-3.717205
 30
0.0
 10
-246.539092
 20
-3.482435
 30
0.0
 10
-249.120932
 20
-2.980485
 30
0.0
 10
-251.612532
 20
-2.223065
 30
0.0
 10
-254.015072
 20
-1.221895
 30
0.0
 10
-256.329722
 20
0.011315
 30
0.0
 10
-258.557652
 20
1.464825
 30
0.0
 10
-260.700032
 20
3.126935
 30
0.0
 10
-262.518782
 20
4.789435
 30
0.0
 10
-264.225032
 20
6.601935
 30
0.0
 10
-267.300032
 20
10.526935
 30
0.0
 10
-268.224642
 20
12.065025
 30
0.0
 10
-268.753152
 20
13.456625
 30
0.0
 10
-268.892612
 20
14.705255
 30
0.0
 10
-268.650032
 20
15.814435
 30
0.0
 10
-268.032452
 20
16.787675
 30
0.0
 10
-267.046902
 20
17.628495
 30
0.0
 10
-265.700422
 20
18.340415
 30
0.0
 10
-264.000032
 20
18.926935
 30
0.0
 10
-261.875032
 20
19.242565
 30
0.0
 10
-260.899252
 20
19.183565
 30
0.0
 10
-259.975032
 20
18.976925
 30
0.0
 10
-259.097682
 20
18.620285
 30
0.0
 10
-258.262532
 20
18.111305
 30
0.0
 10
-256.700032
 20
16.626925
 30
0.0
 10
-254.050032
 20
13.639425
 30
0.0
 10
-252.621902
 20
12.253485
 30
0.0
 10
-251.100032
 20
11.026925
 30
0.0
 10
-248.206082
 20
9.231225
 30
0.0
 10
-245.179722
 20
7.967555
 30
0.0
 10
-242.066632
 20
7.233565
 30
0.0
 10
-238.912532
 20
7.026925
 30
0.0
 10
-235.763112
 20
7.345285
 30
0.0
 10
-232.664092
 20
8.186305
 30
0.0
 10
-229.661162
 20
9.547625
 30
0.0
 10
-226.800032
 20
11.426925
 30
0.0
 10
-224.714682
 20
13.300945
 30
0.0
 10
-223.092222
 20
15.375365
 30
0.0
 10
-221.908042
 20
17.616185
 30
0.0
 10
-221.137532
 20
19.989425
 30
0.0
 10
-220.756082
 20
22.461105
 30
0.0
 10
-220.739082
 20
24.997235
 30
0.0
 10
-221.061932
 20
27.563845
 30
0.0
 10
-221.700022
 20
30.126925
 30
0.0
 10
-222.844742
 20
33.045675
 30
0.0
 10
-224.314082
 20
35.589425
 30
0.0
 10
-226.085762
 20
37.776925
 30
0.0
 10
-228.137522
 20
39.626925
 30
0.0
 10
-230.447092
 20
41.158175
 30
0.0
 10
-232.992212
 20
42.389425
 30
0.0
 10
-235.750602
 20
43.339425
 30
0.0
 10
-238.700022
 20
44.026925
 30
0.0
 10
-241.057832
 20
44.361305
 30
0.0
 10
-243.462522
 20
44.526925
 30
0.0
 10
-248.300022
 20
44.726925
 30
0.0
 10
-259.725022
 20
45.226925
 30
0.0
 10
-265.400022
 20
45.795675
 30
0.0
 10
-268.211742
 20
46.274585
 30
0.0
 10
-271.000022
 20
46.926925
 30
0.0
 10
-273.873262
 20
47.827315
 30
0.0
 10
-276.567212
 20
48.955055
 30
0.0
 10
-279.080682
 20
50.312475
 30
0.0
 10
-281.412522
 20
51.901925
 30
0.0
 10
-283.561542
 20
53.725755
 30
0.0
 10
-285.526582
 20
55.786305
 30
0.0
 10
-287.306462
 20
58.085915
 30
0.0
 10
-288.900022
 20
60.626925
 30
0.0
 10
-289.375022
 20
61.526925
 30
0.0
 10
-289.700022
 20
62.426925
 30
0.0
 10
-290.712522
 20
67.939425
 30
0.0
 10
-290.895332
 20
70.709735
 30
0.0
 10
-290.600022
 20
73.526925
 30
0.0
 10
-290.500022
 20
74.526925
 30
0.0
 10
-290.537722
 20
76.684545
 30
0.0
 10
-290.295342
 20
78.737865
 30
0.0
 10
-289.802182
 20
80.695095
 30
0.0
 10
-289.087532
 20
82.564425
 30
0.0
 10
-288.180692
 20
84.354075
 30
0.0
 10
-287.110972
 20
86.072235
 30
0.0
 10
-284.600032
 20
89.326925
 30
0.0
 10
-283.242222
 20
90.850365
 30
0.0
 10
-281.762532
 20
92.289425
 30
0.0
 10
-278.700032
 20
95.026925
 30
0.0
 10
-276.270342
 20
96.825365
 30
0.0
 10
-273.662532
 20
98.239425
 30
0.0
 10
-270.923472
 20
99.372235
 30
0.0
 10
-268.100032
 20
100.326935
 30
0.0
 10
-265.500032
 20
101.026935
 30
0.0
 10
-262.992412
 20
101.767165
 30
0.0
 10
-260.495342
 20
102.205055
 30
0.0
 10
-258.009992
 20
102.366385
 30
0.0
 10
-255.537532
 20
102.276985
 30
0.0
 10
-253.079132
 20
101.962525
 30
0.0
 10
-250.635972
 20
101.448855
 30
0.0
 10
-248.209212
 20
100.761745
 30
0.0
 10
-245.800032
 20
99.926985
 30
0.0
 10
-244.201202
 20
99.266425
 30
0.0
 10
-242.703152
 20
98.486355
 30
0.0
 10
-241.303542
 20
97.589085
 30
0.0
 10
-240.000032
 20
96.576975
 30
0.0
 10
-237.671902
 20
94.217605
 30
0.0
 10
-235.700032
 20
91.426975
 30
0.0
 10
-234.075032
 20
88.726975
 30
0.0
 10
-232.600032
 20
86.026975
 30
0.0
 10
-232.195342
 20
84.947095
 30
0.0
 10
-232.025032
 20
83.894165
 30
0.0
 10
-232.079732
 20
82.885765
 30
0.0
 10
-232.350042
 20
81.939475
 30
0.0
 10
-232.826602
 20
81.072875
 30
0.0
 10
-233.500042
 20
80.303535
 30
0.0
 10
-234.360982
 20
79.649045
 30
0.0
 10
-235.400042
 20
79.126975
 30
0.0
 10
-236.510392
 20
78.761745
 30
0.0
 10
-237.589102
 20
78.567605
 30
0.0
 10
-238.632662
 20
78.546905
 30
0.0
 10
-239.637542
 20
78.701985
 30
0.0
 10
-240.600232
 20
79.035185
 30
0.0
 10
-241.517232
 20
79.548865
 30
0.0
 10
-242.385002
 20
80.245345
 30
0.0
 10
-243.200042
 20
81.126985
 30
0.0
 10
-246.100042
 20
84.926985
 30
0.0
 10
-247.200622
 20
86.255695
 30
0.0
 10
-248.398482
 20
87.400425
 30
0.0
 10
-249.687732
 20
88.374055
 30
0.0
 10
-251.062542
 20
89.189485
 30
0.0
 10
-252.517032
 20
89.859605
 30
0.0
 10
-254.045352
 20
90.397295
 30
0.0
 10
-257.300042
 20
91.126985
 30
0.0
 10
-259.100042
 20
91.319175
 30
0.0
 10
-260.900042
 20
91.314175
 30
0.0
 10
-264.500042
 20
90.826675
 30
0.0
 10
-266.526412
 20
90.341715
 30
0.0
 10
-268.410982
 20
89.646985
 30
0.0
 10
-270.161952
 20
88.757735
 30
0.0
 10
-271.787542
 20
87.689175
 30
0.0
 10
-273.295942
 20
86.456555
 30
0.0
 10
-274.695352
 20
85.075115
 30
0.0
 10
-275.993982
 20
83.560075
 30
0.0
 10
-277.200042
 20
81.926675
 30
0.0
 10
-278.056292
 20
80.300115
 30
0.0
 10
-278.575042
 20
78.589175
 30
0.0
 10
-278.831292
 20
76.821985
 30
0.0
 10
-278.900092
 20
75.026675
 30
0.0
 10
-278.789152
 20
72.929805
 30
0.0
 10
-278.462592
 20
70.851675
 30
0.0
 10
-277.929782
 20
68.811055
 30
0.0
 10
-277.200092
 20
66.826675
 30
0.0
 10
-276.240712
 20
64.880975
 30
0.0
 10
-275.093842
 20
63.167305
 30
0.0
 10
-273.768842
 20
61.683315
 30
0.0
 10
-272.275092
 20
60.426675
 30
0.0
 10
-270.621962
 20
59.395035
 30
0.0
 10
-268.818842
 20
58.586055
 30
0.0
 10
-266.875092
 20
57.997375
 30
0.0
 10
-264.800092
 20
57.626675
 30
0.0
 10
-260.793842
 20
57.201675
 30
0.0
 10
-256.750092
 20
56.926675
 30
0.0
 10
-248.700092
 20
56.526675
 30
0.0
 10
-243.250092
 20
56.139175
 30
0.0
 10
-237.800092
 20
55.826675
 30
0.0
 10
-233.362592
 20
55.464175
 30
0.0
 10
-231.176652
 20
55.053235
 30
0.0
 10
-229.000092
 20
54.426675
 30
0.0
 10
-226.443252
 20
53.411445
 30
0.0
 10
-224.089152
 20
52.173555
 30
0.0
 10
-221.924892
 20
50.724725
 30
0.0
 10
-219.937592
 20
49.076675
 30
0.0
 10
-218.114352
 20
47.241125
 30
0.0
 10
-216.442282
 20
45.229805
 30
0.0
 10
-214.908492
 20
43.054415
 30
0.0
 10
-213.500092
 20
40.726675
 30
0.0
 10
-212.333102
 20
38.420815
 30
0.0
 10
-211.439152
 20
36.079805
 30
0.0
 10
-210.791302
 20
33.705975
 30
0.0
 10
-210.362592
 20
31.301675
 30
0.0
 10
-210.126062
 20
28.869255
 30
0.0
 10
-210.054762
 20
26.411055
 30
0.0
 10
-210.300072
 20
21.426675
 30
0.0
 10
-210.771942
 20
18.576675
 30
0.0
 10
-211.600072
 20
15.876675
 30
0.0
 10
-212.803192
 20
13.326675
 30
0.0
 10
-214.400072
 20
10.926675
 30
0.0
 10
-215.100072
 20
9.826675
 30
0.0
 10
-216.100072
 20
7.878045
 30
0.0
 10
-217.287572
 20
6.143865
 30
0.0
 10
-218.643822
 20
4.604215
 30
0.0
 10
-220.150072
 20
3.239175
 30
0.0
 10
-221.787572
 20
2.028825
 30
0.0
 10
-223.537572
 20
0.953235
 30
0.0
 10
-227.300072
 20
-0.873325
 30
0.0
 10
-228.902022
 20
-1.653985
 30
0.0
 10
-230.553192
 20
-2.281135
 30
0.0
 10
-233.975072
 20
-3.135825
 30
0.0
 10
-237.509442
 20
-3.559265
 30
0.0
 10
-241.100072
 20
-3.673325
 30
0.0
 10
-241.100072
 20
-3.673325
 30
0.0
  0
LWPOLYLINE
  5
107
100
AcDbEntity
  8
Layer_1
 62
7
100
AcDbPolyline
 90
64
 70
0
 10
154.999978
 20
104.026905
 30
0.0
 10
154.424978
 20
99.289395
 30
0.0
 10
153.699978
 20
94.626895
 30
0.0
 10
152.685918
 20
90.050335
 30
0.0
 10
151.287478
 20
85.614395
 30
0.0
 10
149.495288
 20
81.309705
 30
0.0
 10
147.299978
 20
77.126895
 30
0.0
 10
145.746858
 20
74.837835
 30
0.0
 10
143.949978
 20
72.764395
 30
0.0
 10
141.928108
 20
70.897205
 30
0.0
 10
139.699978
 20
69.226895
 30
0.0
 10
135.124978
 20
66.389395
 30
0.0
 10
130.399978
 20
63.926895
 30
0.0
 10
127.542168
 20
62.845645
 30
0.0
 10
124.562478
 20
62.176895
 30
0.0
 10
118.499978
 20
61.326895
 30
0.0
 10
116.037478
 20
61.014395
 30
0.0
 10
113.499978
 20
60.926895
 30
0.0
 10
109.299978
 20
61.351895
 30
0.0
 10
105.099978
 20
61.926895
 30
0.0
 10
96.599978
 20
63.626895
 30
0.0
 10
95.128298
 20
63.960885
 30
0.0
 10
93.864038
 20
64.442525
 30
0.0
 10
92.808378
 20
65.078845
 30
0.0
 10
91.962478
 20
65.876895
 30
0.0
 10
91.327518
 20
66.843695
 30
0.0
 10
90.904668
 20
67.986275
 30
0.0
 10
90.695098
 20
69.311665
 30
0.0
 10
90.700098
 20
70.826895
 30
0.0
 10
91.375098
 20
77.376895
 30
0.0
 10
92.200098
 20
83.926895
 30
0.0
 10
93.562598
 20
92.526895
 30
0.0
 10
95.000098
 20
101.126905
 30
0.0
 10
98.400098
 20
126.326905
 30
0.0
 10
100.000098
 20
137.426905
 30
0.0
 10
100.374708
 20
138.942725
 30
0.0
 10
100.953228
 20
140.197215
 30
0.0
 10
101.705178
 20
141.200925
 30
0.0
 10
102.600098
 20
141.964405
 30
0.0
 10
103.607518
 20
142.498195
 30
0.0
 10
104.696978
 20
142.812835
 30
0.0
 10
105.837988
 20
142.918895
 30
0.0
 10
107.000098
 20
142.826895
 30
0.0
 10
115.750098
 20
141.626895
 30
0.0
 10
120.134478
 20
140.970645
 30
0.0
 10
124.500098
 20
140.126895
 30
0.0
 10
129.309478
 20
138.803455
 30
0.0
 10
133.950098
 20
137.039395
 30
0.0
 10
136.189558
 20
135.971625
 30
0.0
 10
138.365728
 20
134.769085
 30
0.0
 10
140.471588
 20
133.423575
 30
0.0
 10
142.500098
 20
131.926895
 30
0.0
 10
144.427638
 20
130.258535
 30
0.0
 10
146.164158
 20
128.480015
 30
0.0
 10
147.715528
 20
126.593685
 30
0.0
 10
149.087598
 20
124.601895
 30
0.0
 10
150.286228
 20
122.506975
 30
0.0
 10
151.317288
 20
120.311265
 30
0.0
 10
152.186628
 20
118.017125
 30
0.0
 10
152.900098
 20
115.626895
 30
0.0
 10
153.607908
 20
112.759705
 30
0.0
 10
154.137598
 20
109.864395
 30
0.0
 10
155.000098
 20
104.026895
 30
0.0
 10
155.000098
 20
104.026895
 30
0.0
  0
LWPOLYLINE
  5
108
100
AcDbEntity
  8
Layer_1
 62
7
100
AcDbPolyline
 90
52
 70
0
 10
143.100098
 20
103.426895
 30
0.0
 10
143.100098
 20
105.626895
 30
0.0
 10
143.025098
 20
107.657755
 30
0.0
 10
142.743848
 20
109.630015
 30
0.0
 10
142.284478
 20
111.550725
 30
0.0
 10
141.675098
 20
113.426895
 30
0.0
 10
140.118848
 20
117.073765
 30
0.0
 10
138.300098
 20
120.626895
 30
0.0
 10
137.612598
 20
121.651895
 30
0.0
 10
136.700098
 20
122.526895
 30
0.0
 10
133.576658
 20
124.964395
 30
0.0
 10
130.312598
 20
127.101895
 30
0.0
 10
126.842288
 20
128.826895
 30
0.0
 10
125.009278
 20
129.499545
 30
0.0
 10
123.100098
 20
130.026895
 30
0.0
 10
116.800098
 20
131.526895
 30
0.0
 10
115.403808
 20
131.747405
 30
0.0
 10
114.142288
 20
131.734705
 30
0.0
 10
113.019048
 20
131.489975
 30
0.0
 10
112.037598
 20
131.014385
 30
0.0
 10
111.201468
 20
130.309115
 30
0.0
 10
110.514158
 20
129.375325
 30
0.0
 10
109.979198
 20
128.214195
 30
0.0
 10
109.600098
 20
126.826885
 30
0.0
 10
108.875098
 20
122.276885
 30
0.0
 10
108.300098
 20
117.726885
 30
0.0
 10
105.600098
 20
99.026885
 30
0.0
 10
103.800098
 20
85.726885
 30
0.0
 10
103.137598
 20
81.526885
 30
0.0
 10
102.700098
 20
77.326885
 30
0.0
 10
102.882908
 20
75.586265
 30
0.0
 10
103.562598
 20
74.126885
 30
0.0
 10
104.711038
 20
72.967515
 30
0.0
 10
106.300098
 20
72.126885
 30
0.0
 10
107.850098
 20
71.626885
 30
0.0
 10
109.400098
 20
71.426885
 30
0.0
 10
114.500098
 20
71.276885
 30
0.0
 10
119.600098
 20
71.426885
 30
0.0
 10
123.103228
 20
71.930015
 30
0.0
 10
126.400098
 20
72.976885
 30
0.0
 10
129.471978
 20
74.548765
 30
0.0
 10
132.300098
 20
76.626885
 30
0.0
 10
134.581348
 20
78.750325
 30
0.0
 10
136.600098
 20
81.089385
 30
0.0
 10
138.318848
 20
83.672195
 30
0.0
 10
139.700098
 20
86.526885
 30
0.0
 10
141.257908
 20
90.615945
 30
0.0
 10
142.412598
 20
94.789385
 30
0.0
 10
143.061038
 20
99.056575
 30
0.0
 10
143.163188
 20
101.228255
 30
0.0
 10
143.100088
 20
103.426885
 30
0.0
 10
143.100088
 20
103.426885
 30
0.0
  0
LWPOLYLINE
  5
109
100
AcDbEntity
  8
Layer_1
 62
7
100
AcDbPolyline
 90
126
 70
0
 10
-132.900022
 20
48.826895
 30
0.0
 10
-134.529712
 20
48.961275
 30
0.0
 10
-135.737522
 20
49.451895
 30
0.0
 10
-136.626582
 20
50.430025
 30
0.0
 10
-137.300022
 20
52.026895
 30
0.0
 10
-139.662522
 20
59.001895
 30
0.0
 10
-140.717212
 20
62.517525
 30
0.0
 10
-141.500022
 20
66.126895
 30
0.0
 10
-143.175022
 20
74.676895
 30
0.0
 10
-145.000022
 20
83.226895
 30
0.0
 10
-145.725022
 20
87.276895
 30
0.0
 10
-146.600022
 20
91.326895
 30
0.0
 10
-148.687522
 20
99.426895
 30
0.0
 10
-150.700022
 20
107.526905
 30
0.0
 10
-152.525022
 20
116.139405
 30
0.0
 10
-154.200022
 20
124.826905
 30
0.0
 10
-154.290622
 20
126.322215
 30
0.0
 10
-153.950002
 20
127.639405
 30
0.0
 10
-153.159372
 20
128.750335
 30
0.0
 10
-151.900002
 20
129.626905
 30
0.0
 10
-149.837502
 20
130.426905
 30
0.0
 10
-147.700002
 20
130.926905
 30
0.0
 10
-146.379692
 20
130.848805
 30
0.0
 10
-145.162502
 20
130.451925
 30
0.0
 10
-144.114062
 20
129.717555
 30
0.0
 10
-143.300002
 20
128.626925
 30
0.0
 10
-142.487502
 20
126.814425
 30
0.0
 10
-141.900002
 20
124.926925
 30
0.0
 10
-140.175002
 20
116.664425
 30
0.0
 10
-139.453122
 20
112.509735
 30
0.0
 10
-138.900002
 20
108.326925
 30
0.0
 10
-138.425002
 20
105.526925
 30
0.0
 10
-137.800002
 20
102.726925
 30
0.0
 10
-137.508402
 20
101.754465
 30
0.0
 10
-137.023442
 20
100.872235
 30
0.0
 10
-136.367382
 20
100.095475
 30
0.0
 10
-135.562502
 20
99.439415
 30
0.0
 10
-134.631052
 20
98.919295
 30
0.0
 10
-133.595312
 20
98.550355
 30
0.0
 10
-132.477542
 20
98.347815
 30
0.0
 10
-131.300002
 20
98.326915
 30
0.0
 10
-125.739062
 20
99.055045
 30
0.0
 10
-120.262502
 20
100.176925
 30
0.0
 10
-114.804691
 20
101.448805
 30
0.0
 10
-109.300001
 20
102.626925
 30
0.0
 10
-107.842381
 20
103.015015
 30
0.0
 10
-106.620311
 20
103.575365
 30
0.0
 10
-105.634961
 20
104.302125
 30
0.0
 10
-104.887501
 20
105.189425
 30
0.0
 10
-104.379101
 20
106.231415
 30
0.0
 10
-104.110941
 20
107.422235
 30
0.0
 10
-104.084141
 20
108.756025
 30
0.0
 10
-104.299961
 20
110.226925
 30
0.0
 10
-108.499961
 20
129.726925
 30
0.0
 10
-108.799961
 20
132.176925
 30
0.0
 10
-108.799961
 20
134.626925
 30
0.0
 10
-108.648001
 20
135.504665
 30
0.0
 10
-108.353081
 20
136.267555
 30
0.0
 10
-107.931601
 20
136.922635
 30
0.0
 10
-107.399961
 20
137.476925
 30
0.0
 10
-106.071831
 20
138.311305
 30
0.0
 10
-104.499961
 20
138.826925
 30
0.0
 10
-102.893711
 20
139.023805
 30
0.0
 10
-101.399961
 20
138.826925
 30
0.0
 10
-100.056211
 20
138.180055
 30
0.0
 10
-98.899961
 20
137.026925
 30
0.0
 10
-98.012461
 20
135.551925
 30
0.0
 10
-97.499961
 20
133.926925
 30
0.0
 10
-94.199961
 20
118.626925
 30
0.0
 10
-92.712461
 20
110.314425
 30
0.0
 10
-91.299961
 20
101.926925
 30
0.0
 10
-90.612461
 20
98.776915
 30
0.0
 10
-89.999961
 20
95.626915
 30
0.0
 10
-89.337461
 20
91.326915
 30
0.0
 10
-88.599961
 20
87.026915
 30
0.0
 10
-85.599961
 20
73.426915
 30
0.0
 10
-85.137461
 20
70.864415
 30
0.0
 10
-84.899961
 20
68.226915
 30
0.0
 10
-84.945461
 20
67.136095
 30
0.0
 10
-85.151511
 20
66.119105
 30
0.0
 10
-85.509911
 20
65.184145
 30
0.0
 10
-86.012451
 20
64.339415
 30
0.0
 10
-86.650921
 20
63.593125
 30
0.0
 10
-87.417141
 20
62.953485
 30
0.0
 10
-88.302881
 20
62.428685
 30
0.0
 10
-89.299951
 20
62.026925
 30
0.0
 10
-90.446821
 20
61.817555
 30
0.0
 10
-91.499951
 20
61.926925
 30
0.0
 10
-92.478071
 20
62.336305
 30
0.0
 10
-93.399951
 20
63.026925
 30
0.0
 10
-94.367141
 20
64.089425
 30
0.0
 10
-95.062451
 20
65.301925
 30
0.0
 10
-95.551511
 20
66.626925
 30
0.0
 10
-95.899951
 20
68.026925
 30
0.0
 10
-99.899951
 20
86.526915
 30
0.0
 10
-100.549951
 20
88.889415
 30
0.0
 10
-101.053071
 20
90.000355
 30
0.0
 10
-101.799951
 20
91.026915
 30
0.0
 10
-102.664011
 20
91.784735
 30
0.0
 10
-103.612451
 20
92.364425
 30
0.0
 10
-104.654641
 20
92.700355
 30
0.0
 10
-105.799951
 20
92.726955
 30
0.0
 10
-111.499951
 20
92.126965
 30
0.0
 10
-125.599952
 20
89.226955
 30
0.0
 10
-127.087452
 20
88.901955
 30
0.0
 10
-128.499952
 20
88.426965
 30
0.0
 10
-129.652292
 20
87.883595
 30
0.0
 10
-130.631202
 20
87.230085
 30
0.0
 10
-131.431982
 20
86.468755
 30
0.0
 10
-132.049952
 20
85.601955
 30
0.0
 10
-132.480422
 20
84.632035
 30
0.0
 10
-132.718702
 20
83.561335
 30
0.0
 10
-132.760102
 20
82.392195
 30
0.0
 10
-132.599952
 20
81.126955
 30
0.0
 10
-128.599952
 20
61.626955
 30
0.0
 10
-128.074952
 20
59.039455
 30
0.0
 10
-127.399952
 20
56.526955
 30
0.0
 10
-126.988232
 20
55.010745
 30
0.0
 10
-126.881202
 20
53.566025
 30
0.0
 10
-127.083542
 20
52.236135
 30
0.0
 10
-127.599952
 20
51.064455
 30
0.0
 10
-128.435102
 20
50.094335
 30
0.0
 10
-129.593702
 20
49.369145
 30
0.0
 10
-131.080422
 20
48.932225
 30
0.0
 10
-132.899952
 20
48.826965
 30
0.0
 10
-132.899952
 20
48.826965
 30
0.0
  0
LWPOLYLINE
  5
10a
100
AcDbEntity
  8
Layer_1
 62
7
100
AcDbPolyline
 90
124
 70
0
 10
182.099988
 20
92.426895
 30
0.0
 10
182.320298
 20
90.775335
 30
0.0
 10
182.962488
 20
89.414395
 30
0.0
 10
183.998428
 20
88.334705
 30
0.0
 10
185.399988
 20
87.526895
 30
0.0
 10
188.162488
 20
86.451895
 30
0.0
 10
190.999988
 20
85.526895
 30
0.0
 10
205.699988
 20
80.926895
 30
0.0
 10
207.774988
 20
80.089395
 30
0.0
 10
209.699988
 20
79.026895
 30
0.0
 10
210.473618
 20
78.432565
 30
0.0
 10
211.070298
 20
77.778455
 30
0.0
 10
211.491198
 20
77.070455
 30
0.0
 10
211.737488
 20
76.314395
 30
0.0
 10
211.810388
 20
75.516155
 30
0.0
 10
211.710988
 20
74.681585
 30
0.0
 10
211.000048
 20
72.926895
 30
0.0
 10
210.220948
 20
71.801505
 30
0.0
 10
209.379738
 20
70.898775
 30
0.0
 10
208.470558
 20
70.216345
 30
0.0
 10
207.487548
 20
69.751895
 30
0.0
 10
206.424858
 20
69.503065
 30
0.0
 10
205.276608
 20
69.467565
 30
0.0
 10
204.036968
 20
69.642955
 30
0.0
 10
202.700048
 20
70.026935
 30
0.0
 10
184.700048
 20
76.626935
 30
0.0
 10
183.150048
 20
77.076935
 30
0.0
 10
181.600048
 20
77.226935
 30
0.0
 10
179.639108
 20
77.055065
 30
0.0
 10
178.771728
 20
76.780455
 30
0.0
 10
177.987548
 20
76.376935
 30
0.0
 10
177.292428
 20
75.842175
 30
0.0
 10
176.692238
 20
75.173815
 30
0.0
 10
176.192828
 20
74.369515
 30
0.0
 10
175.800048
 20
73.426935
 30
0.0
 10
172.987548
 20
65.026935
 30
0.0
 10
170.400048
 20
56.626935
 30
0.0
 10
170.155908
 20
55.534745
 30
0.0
 10
170.096908
 20
54.508185
 30
0.0
 10
170.220738
 20
53.547245
 30
0.0
 10
170.525028
 20
52.651935
 30
0.0
 10
171.007448
 20
51.822245
 30
0.0
 10
171.665658
 20
51.058185
 30
0.0
 10
172.497298
 20
50.359745
 30
0.0
 10
173.500028
 20
49.726935
 30
0.0
 10
177.862528
 20
47.601935
 30
0.0
 10
182.300028
 20
45.626935
 30
0.0
 10
188.237528
 20
43.014435
 30
0.0
 10
194.100028
 20
40.326935
 30
0.0
 10
195.380308
 20
39.568535
 30
0.0
 10
196.373468
 20
38.722245
 30
0.0
 10
197.083038
 20
37.793925
 30
0.0
 10
197.512528
 20
36.789435
 30
0.0
 10
197.665458
 20
35.714635
 30
0.0
 10
197.545338
 20
34.575375
 30
0.0
 10
197.155698
 20
33.377525
 30
0.0
 10
196.500028
 20
32.126935
 30
0.0
 10
195.293778
 20
30.614435
 30
0.0
 10
194.622688
 20
30.080845
 30
0.0
 10
193.900028
 20
29.701935
 30
0.0
 10
193.121128
 20
29.482405
 30
0.0
 10
192.281278
 20
29.426905
 30
0.0
 10
191.375808
 20
29.540185
 30
0.0
 10
190.400028
 20
29.826905
 30
0.0
 10
186.312528
 20
31.601905
 30
0.0
 10
182.300028
 20
33.526905
 30
0.0
 10
163.700018
 20
41.926905
 30
0.0
 10
160.862518
 20
43.251905
 30
0.0
 10
158.100018
 20
44.726905
 30
0.0
 10
156.928148
 20
45.750345
 30
0.0
 10
156.225018
 20
46.989405
 30
0.0
 10
155.934398
 20
48.397215
 30
0.0
 10
155.999998
 20
49.926905
 30
0.0
 10
156.399998
 20
51.626905
 30
0.0
 10
166.399998
 20
82.226905
 30
0.0
 10
169.300008
 20
92.026905
 30
0.0
 10
170.587508
 20
95.926905
 30
0.0
 10
171.800008
 20
99.826915
 30
0.0
 10
177.900008
 20
122.426915
 30
0.0
 10
178.000008
 20
122.626915
 30
0.0
 10
178.693178
 20
124.673395
 30
0.0
 10
179.514068
 20
126.323785
 30
0.0
 10
180.487318
 20
127.594485
 30
0.0
 10
181.637508
 20
128.501915
 30
0.0
 10
182.989268
 20
129.062455
 30
0.0
 10
184.567198
 20
129.292535
 30
0.0
 10
186.395908
 20
129.208535
 30
0.0
 10
188.500008
 20
128.826895
 30
0.0
 10
198.275008
 20
126.339395
 30
0.0
 10
207.900008
 20
123.326895
 30
0.0
 10
213.262508
 20
121.739395
 30
0.0
 10
218.700008
 20
120.226895
 30
0.0
 10
221.475008
 20
119.176895
 30
0.0
 10
224.100008
 20
117.826895
 30
0.0
 10
224.869928
 20
117.310485
 30
0.0
 10
225.459388
 20
116.733145
 30
0.0
 10
225.875398
 20
116.090175
 30
0.0
 10
226.125008
 20
115.376895
 30
0.0
 10
226.215208
 20
114.588615
 30
0.0
 10
226.153108
 20
113.720645
 30
0.0
 10
225.599978
 20
111.726895
 30
0.0
 10
224.834358
 20
110.290955
 30
0.0
 10
223.749978
 20
109.314395
 30
0.0
 10
223.094118
 20
109.013025
 30
0.0
 10
222.365608
 20
108.844085
 30
0.0
 10
220.699978
 20
108.926885
 30
0.0
 10
217.312478
 20
109.764385
 30
0.0
 10
213.999978
 20
110.826885
 30
0.0
 10
209.239038
 20
112.487815
 30
0.0
 10
204.412478
 20
113.914385
 30
0.0
 10
194.599978
 20
116.326885
 30
0.0
 10
193.319318
 20
116.532745
 30
0.0
 10
192.173418
 20
116.548745
 30
0.0
 10
191.156428
 20
116.372565
 30
0.0
 10
190.262478
 20
116.001865
 30
0.0
 10
189.485718
 20
115.434285
 30
0.0
 10
188.820288
 20
114.667495
 30
0.0
 10
188.260328
 20
113.699135
 30
0.0
 10
187.799978
 20
112.526865
 30
0.0
 10
184.974978
 20
103.364365
 30
0.0
 10
182.299978
 20
94.126865
 30
0.0
 10
182.124978
 20
93.276865
 30
0.0
 10
182.099978
 20
92.426865
 30
0.0
 10
182.099978
 20
92.426865
 30
0.0
  0
LWPOLYLINE
  5
10b
100
AcDbEntity
  8
Layer_1
 62
7
100
AcDbPolyline
 90
102
 70
0
 10
-17.000018
 20
105.726905
 30
0.0
 10
-16.300019
 20
91.526895
 30
0.0
 10
-15.700019
 20
78.126895
 30
0.0
 10
-15.700019
 20
77.126895
 30
0.0
 10
-15.889469
 20
76.191345
 30
0.0
 10
-16.221888
 20
75.417525
 30
0.0
 10
-16.680878
 20
74.817135
 30
0.0
 10
-17.250018
 20
74.401895
 30
0.0
 10
-17.912909
 20
74.183535
 30
0.0
 10
-18.653139
 20
74.173535
 30
0.0
 10
-19.454309
 20
74.384075
 30
0.0
 10
-20.300019
 20
74.826655
 30
0.0
 10
-21.912519
 20
76.014155
 30
0.0
 10
-23.300019
 20
77.426655
 30
0.0
 10
-26.141419
 20
80.927045
 30
0.0
 10
-29.100019
 20
84.317285
 30
0.0
 10
-35.275019
 20
90.851655
 30
0.0
 10
-48.000019
 20
103.526665
 30
0.0
 10
-55.600020
 20
111.126665
 30
0.0
 10
-56.100020
 20
111.626665
 30
0.0
 10
-56.870330
 20
112.204785
 30
0.0
 10
-57.687520
 20
112.651665
 30
0.0
 10
-58.560960
 20
112.836035
 30
0.0
 10
-59.500020
 20
112.626665
 30
0.0
 10
-60.385960
 20
112.054785
 30
0.0
 10
-60.962520
 20
111.276665
 30
0.0
 10
-61.257830
 20
110.348535
 30
0.0
 10
-61.300030
 20
109.326665
 30
0.0
 10
-60.600030
 20
102.926665
 30
0.0
 10
-58.300030
 20
84.926655
 30
0.0
 10
-57.500030
 20
78.626655
 30
0.0
 10
-57.287530
 20
75.476655
 30
0.0
 10
-57.300030
 20
72.326655
 30
0.0
 10
-57.676590
 20
70.378215
 30
0.0
 10
-58.036550
 20
69.575675
 30
0.0
 10
-58.512530
 20
68.889155
 30
0.0
 10
-59.105690
 20
68.319825
 30
0.0
 10
-59.817220
 20
67.868845
 30
0.0
 10
-60.648270
 20
67.537395
 30
0.0
 10
-61.600030
 20
67.326655
 30
0.0
 10
-63.465650
 20
67.382955
 30
0.0
 10
-64.268390
 20
67.622015
 30
0.0
 10
-64.975030
 20
68.001705
 30
0.0
 10
-65.578540
 20
68.522015
 30
0.0
 10
-66.071900
 20
69.182955
 30
0.0
 10
-66.448070
 20
69.984515
 30
0.0
 10
-66.700030
 20
70.926705
 30
0.0
 10
-67.775030
 20
76.789205
 30
0.0
 10
-68.700030
 20
82.726705
 30
0.0
 10
-70.300030
 20
94.326705
 30
0.0
 10
-73.300030
 20
116.026715
 30
0.0
 10
-74.637530
 20
126.239215
 30
0.0
 10
-75.085970
 20
131.368895
 30
0.0
 10
-75.300030
 20
136.526715
 30
0.0
 10
-75.300030
 20
137.726715
 30
0.0
 10
-75.138700
 20
138.798585
 30
0.0
 10
-74.815650
 20
139.682965
 30
0.0
 10
-74.347290
 20
140.370465
 30
0.0
 10
-73.750030
 20
140.851715
 30
0.0
 10
-73.040260
 20
141.117335
 30
0.0
 10
-72.234400
 20
141.157935
 30
0.0
 10
-71.348860
 20
140.964185
 30
0.0
 10
-70.400030
 20
140.526685
 30
0.0
 10
-68.925030
 20
139.551685
 30
0.0
 10
-67.600030
 20
138.426685
 30
0.0
 10
-58.500030
 20
129.226685
 30
0.0
 10
-47.200029
 20
118.026685
 30
0.0
 10
-46.000029
 20
116.826685
 30
0.0
 10
-35.800029
 20
106.626685
 30
0.0
 10
-32.000029
 20
102.326685
 30
0.0
 10
-31.148469
 20
101.456375
 30
0.0
 10
-30.212529
 20
100.764185
 30
0.0
 10
-29.145339
 20
100.428245
 30
0.0
 10
-28.547879
 20
100.449545
 30
0.0
 10
-27.900029
 20
100.626695
 30
0.0
 10
-27.310379
 20
100.938215
 30
0.0
 10
-26.876589
 20
101.337635
 30
0.0
 10
-26.387529
 20
102.339195
 30
0.0
 10
-26.254719
 20
103.509505
 30
0.0
 10
-26.300019
 20
104.726695
 30
0.0
 10
-26.900019
 20
118.426695
 30
0.0
 10
-27.900019
 20
139.126695
 30
0.0
 10
-27.815619
 20
141.372015
 30
0.0
 10
-27.587109
 20
142.281975
 30
0.0
 10
-27.224999
 20
143.064195
 30
0.0
 10
-26.722259
 20
143.729235
 30
0.0
 10
-26.071869
 20
144.287635
 30
0.0
 10
-24.299999
 20
145.126695
 30
0.0
 10
-23.172849
 20
145.414785
 30
0.0
 10
-22.126559
 20
145.462685
 30
0.0
 10
-21.176369
 20
145.283195
 30
0.0
 10
-20.337499
 20
144.889245
 30
0.0
 10
-19.625189
 20
144.293735
 30
0.0
 10
-19.054689
 20
143.509555
 30
0.0
 10
-18.641209
 20
142.549595
 30
0.0
 10
-18.399998
 20
141.426745
 30
0.0
 10
-17.899998
 20
135.426745
 30
0.0
 10
-17.199998
 20
121.726745
 30
0.0
 10
-16.699998
 20
111.226745
 30
0.0
 10
-16.699998
 20
105.726745
 30
0.0
 10
-16.999998
 20
105.726745
 30
0.0
 10
-16.999998
 20
105.726745
 30
0.0
  0
LWPOLYLINE
  5
10c
100
AcDbEntity
  8
Layer_1
 62
7
100
AcDbPolyline
 90
148
 70
0
 10
-160.900022
 20
61.026895
 30
0.0
 10
-160.900022
 20
65.526895
 30
0.0
 10
-160.656272
 20
66.934705
 30
0.0
 10
-160.075022
 20
68.014395
 30
0.0
 10
-159.156272
 20
68.775335
 30
0.0
 10
-157.900022
 20
69.226895
 30
0.0
 10
-155.437522
 20
69.534705
 30
0.0
 10
-154.433612
 20
69.436105
 30
0.0
 10
-153.575022
 20
69.139425
 30
0.0
 10
-152.857052
 20
68.622435
 30
0.0
 10
-152.275022
 20
67.862865
 30
0.0
 10
-151.824242
 20
66.838445
 30
0.0
 10
-151.500022
 20
65.526925
 30
0.0
 10
-150.875022
 20
62.726925
 30
0.0
 10
-150.571892
 20
61.336305
 30
0.0
 10
-150.400022
 20
59.926925
 30
0.0
 10
-150.316822
 20
57.439035
 30
0.0
 10
-150.446902
 20
55.005055
 30
0.0
 10
-150.797292
 20
52.632005
 30
0.0
 10
-151.375032
 20
50.326925
 30
0.0
 10
-152.187142
 20
48.096845
 30
0.0
 10
-153.240652
 20
45.948805
 30
0.0
 10
-154.542612
 20
43.889815
 30
0.0
 10
-156.100032
 20
41.926925
 30
0.0
 10
-158.415652
 20
39.680055
 30
0.0
 10
-160.975032
 20
37.826925
 30
0.0
 10
-163.721902
 20
36.273805
 30
0.0
 10
-166.600032
 20
34.926925
 30
0.0
 10
-168.559222
 20
34.157395
 30
0.0
 10
-170.535982
 20
33.570675
 30
0.0
 10
-172.529142
 20
33.162085
 30
0.0
 10
-174.537542
 20
32.926925
 30
0.0
 10
-176.560002
 20
32.860525
 30
0.0
 10
-178.595352
 20
32.958125
 30
0.0
 10
-180.642422
 20
33.215155
 30
0.0
 10
-182.700042
 20
33.626875
 30
0.0
 10
-186.337542
 20
34.514375
 30
0.0
 10
-189.900042
 20
35.626875
 30
0.0
 10
-191.064102
 20
36.162815
 30
0.0
 10
-192.162542
 20
36.839375
 30
0.0
 10
-194.200042
 20
38.426875
 30
0.0
 10
-196.481292
 20
40.444645
 30
0.0
 10
-198.612542
 20
42.587815
 30
0.0
 10
-200.612542
 20
44.841135
 30
0.0
 10
-202.500042
 20
47.189375
 30
0.0
 10
-206.012542
 20
52.109685
 30
0.0
 10
-209.300042
 20
57.226875
 30
0.0
 10
-210.325042
 20
58.939375
 30
0.0
 10
-211.200042
 20
60.726875
 30
0.0
 10
-212.904732
 20
65.231565
 30
0.0
 10
-214.487542
 20
69.764375
 30
0.0
 10
-215.826602
 20
74.353435
 30
0.0
 10
-216.800042
 20
79.026875
 30
0.0
 10
-217.762542
 20
84.426875
 30
0.0
 10
-218.500042
 20
89.826875
 30
0.0
 10
-218.712542
 20
93.776875
 30
0.0
 10
-218.400042
 20
97.726875
 30
0.0
 10
-217.346912
 20
102.573755
 30
0.0
 10
-216.624652
 20
104.909305
 30
0.0
 10
-215.750042
 20
107.176885
 30
0.0
 10
-214.706682
 20
109.369455
 30
0.0
 10
-213.478162
 20
111.480005
 30
0.0
 10
-212.048082
 20
113.501485
 30
0.0
 10
-210.400042
 20
115.426885
 30
0.0
 10
-208.812542
 20
117.001885
 30
0.0
 10
-207.000042
 20
118.426885
 30
0.0
 10
-203.896332
 20
120.363995
 30
0.0
 10
-200.732852
 20
121.961255
 30
0.0
 10
-197.506092
 20
123.197585
 30
0.0
 10
-194.212542
 20
124.051885
 30
0.0
 10
-190.848672
 20
124.503055
 30
0.0
 10
-187.410982
 20
124.529955
 30
0.0
 10
-183.895942
 20
124.111595
 30
0.0
 10
-180.300042
 20
123.226825
 30
0.0
 10
-177.669962
 20
122.247725
 30
0.0
 10
-175.253162
 20
121.037765
 30
0.0
 10
-173.047302
 20
119.600455
 30
0.0
 10
-171.050042
 20
117.939325
 30
0.0
 10
-169.259022
 20
116.057885
 30
0.0
 10
-167.671902
 20
113.959635
 30
0.0
 10
-166.286362
 20
111.648115
 30
0.0
 10
-165.100032
 20
109.126825
 30
0.0
 10
-164.587532
 20
107.364325
 30
0.0
 10
-164.300032
 20
105.526825
 30
0.0
 10
-164.400032
 20
104.020575
 30
0.0
 10
-164.950032
 20
102.776825
 30
0.0
 10
-165.875032
 20
101.758075
 30
0.0
 10
-167.100032
 20
100.926825
 30
0.0
 10
-168.445352
 20
100.442455
 30
0.0
 10
-169.762542
 20
100.351855
 30
0.0
 10
-171.023482
 20
100.673725
 30
0.0
 10
-172.200042
 20
101.426855
 30
0.0
 10
-173.525042
 20
102.701855
 30
0.0
 10
-174.700042
 20
104.126855
 30
0.0
 10
-175.771722
 20
105.633295
 30
0.0
 10
-176.954732
 20
107.009665
 30
0.0
 10
-179.612542
 20
109.414355
 30
0.0
 10
-182.589102
 20
111.425285
 30
0.0
 10
-185.800042
 20
113.126855
 30
0.0
 10
-187.634412
 20
113.809665
 30
0.0
 10
-189.525042
 20
114.089355
 30
0.0
 10
-191.453162
 20
114.012755
 30
0.0
 10
-193.400042
 20
113.626815
 30
0.0
 10
-195.597302
 20
112.923495
 30
0.0
 10
-197.609412
 20
112.012755
 30
0.0
 10
-199.429332
 20
110.893415
 30
0.0
 10
-201.050042
 20
109.564315
 30
0.0
 10
-202.464492
 20
108.024275
 30
0.0
 10
-203.665662
 20
106.272125
 30
0.0
 10
-204.646522
 20
104.306695
 30
0.0
 10
-205.400042
 20
102.126815
 30
0.0
 10
-206.437542
 20
97.609615
 30
0.0
 10
-206.950042
 20
93.064305
 30
0.0
 10
-206.985942
 20
90.784035
 30
0.0
 10
-206.862502
 20
88.500245
 30
0.0
 10
-206.570312
 20
86.214115
 30
0.0
 10
-206.100002
 20
83.926805
 30
0.0
 10
-204.975002
 20
78.926805
 30
0.0
 10
-204.000002
 20
73.926805
 30
0.0
 10
-202.846872
 20
69.448685
 30
0.0
 10
-201.225002
 20
65.176805
 30
0.0
 10
-199.190622
 20
61.129935
 30
0.0
 10
-196.800002
 20
57.326805
 30
0.0
 10
-195.170702
 20
55.116065
 30
0.0
 10
-193.421872
 20
53.009615
 30
0.0
 10
-191.537112
 20
51.046145
 30
0.0
 10
-189.500002
 20
49.264305
 30
0.0
 10
-187.294142
 20
47.702785
 30
0.0
 10
-184.903122
 20
46.400245
 30
0.0
 10
-182.310542
 20
45.395365
 30
0.0
 10
-179.500002
 20
44.726805
 30
0.0
 10
-177.367192
 20
44.501805
 30
0.0
 10
-175.187502
 20
44.426805
 30
0.0
 10
-172.989062
 20
44.501805
 30
0.0
 10
-170.800002
 20
44.726805
 30
0.0
 10
-169.158792
 20
45.066255
 30
0.0
 10
-167.682802
 20
45.623685
 30
0.0
 10
-166.368542
 20
46.382665
 30
0.0
 10
-165.212492
 20
47.326805
 30
0.0
 10
-164.211122
 20
48.439695
 30
0.0
 10
-163.360932
 20
49.704935
 30
0.0
 10
-162.658392
 20
51.106105
 30
0.0
 10
-162.099992
 20
52.626805
 30
0.0
 10
-161.614052
 20
54.668995
 30
0.0
 10
-161.287492
 20
56.739305
 30
0.0
 10
-160.699992
 20
60.926805
 30
0.0
 10
-160.899992
 20
61.026805
 30
0.0
 10
-160.899992
 20
61.026805
 30
0.0
  0
LWPOLYLINE
  5
10d
100
AcDbEntity
  8
Layer_1
 62
7
100
AcDbPolyline
 90
118
 70
0
 10
23.899983
 20
147.426905
 30
0.0
 10
34.099983
 20
147.426905
 30
0.0
 10
38.299983
 20
147.176905
 30
0.0
 10
42.499983
 20
146.626905
 30
0.0
 10
43.742173
 20
146.297215
 30
0.0
 10
44.862483
 20
145.714405
 30
0.0
 10
45.776543
 20
144.812835
 30
0.0
 10
46.399983
 20
143.526905
 30
0.0
 10
46.606233
 20
142.278465
 30
0.0
 10
46.474983
 20
141.114405
 30
0.0
 10
46.006233
 20
140.081585
 30
0.0
 10
45.199983
 20
139.226905
 30
0.0
 10
44.384363
 20
138.700335
 30
0.0
 10
43.474983
 20
138.314405
 30
0.0
 10
41.599983
 20
137.926905
 30
0.0
 10
38.999983
 20
137.914405
 30
0.0
 10
36.399983
 20
138.126905
 30
0.0
 10
33.399983
 20
137.926905
 30
0.0
 10
19.999983
 20
137.426905
 30
0.0
 10
18.299983
 20
137.239405
 30
0.0
 10
16.599982
 20
136.826905
 30
0.0
 10
15.359362
 20
136.155025
 30
0.0
 10
14.474982
 20
135.201905
 30
0.0
 10
13.928112
 20
133.986275
 30
0.0
 10
13.699982
 20
132.526905
 30
0.0
 10
13.399982
 20
123.126905
 30
0.0
 10
13.514042
 20
121.517525
 30
0.0
 10
14.012482
 20
120.151905
 30
0.0
 10
14.904672
 20
119.048775
 30
0.0
 10
16.199982
 20
118.226905
 30
0.0
 10
18.512483
 20
117.401905
 30
0.0
 10
20.899983
 20
117.026905
 30
0.0
 10
27.499983
 20
116.889405
 30
0.0
 10
34.099983
 20
116.826905
 30
0.0
 10
40.999983
 20
116.326905
 30
0.0
 10
41.976943
 20
116.129045
 30
0.0
 10
42.871863
 20
115.775335
 30
0.0
 10
43.668343
 20
115.288035
 30
0.0
 10
44.349983
 20
114.689405
 30
0.0
 10
44.900373
 20
114.001705
 30
0.0
 10
45.303113
 20
113.247215
 30
0.0
 10
45.541783
 20
112.448185
 30
0.0
 10
45.599983
 20
111.626905
 30
0.0
 10
45.463073
 20
110.764595
 30
0.0
 10
45.142173
 20
109.922215
 30
0.0
 10
44.659553
 20
109.129045
 30
0.0
 10
44.037483
 20
108.414405
 30
0.0
 10
43.298223
 20
107.807565
 30
0.0
 10
42.464043
 20
107.337835
 30
0.0
 10
41.557213
 20
107.034515
 30
0.0
 10
40.599983
 20
106.926905
 30
0.0
 10
36.749983
 20
107.051905
 30
0.0
 10
32.899983
 20
107.326905
 30
0.0
 10
29.699983
 20
107.426905
 30
0.0
 10
19.999983
 20
107.126905
 30
0.0
 10
18.625763
 20
107.023975
 30
0.0
 10
17.368733
 20
106.715965
 30
0.0
 10
16.252332
 20
106.204045
 30
0.0
 10
15.299982
 20
105.489405
 30
0.0
 10
14.535142
 20
104.573185
 30
0.0
 10
13.981232
 20
103.456585
 30
0.0
 10
13.661702
 20
102.140765
 30
0.0
 10
13.600002
 20
100.626905
 30
0.0
 10
13.675002
 20
95.776895
 30
0.0
 10
13.600002
 20
90.926895
 30
0.0
 10
13.678102
 20
89.230415
 30
0.0
 10
13.924972
 20
87.798775
 30
0.0
 10
14.359352
 20
86.606195
 30
0.0
 10
14.999972
 20
85.626895
 30
0.0
 10
15.865602
 20
84.835095
 30
0.0
 10
16.974973
 20
84.205025
 30
0.0
 10
18.346853
 20
83.710885
 30
0.0
 10
19.999973
 20
83.326895
 30
0.0
 10
21.712473
 20
83.139395
 30
0.0
 10
23.499973
 20
83.026895
 30
0.0
 10
38.899973
 20
82.126895
 30
0.0
 10
39.999973
 20
81.951895
 30
0.0
 10
41.099973
 20
81.626895
 30
0.0
 10
42.574973
 20
80.922205
 30
0.0
 10
43.674973
 20
79.889395
 30
0.0
 10
44.362473
 20
78.575335
 30
0.0
 10
44.599973
 20
77.026895
 30
0.0
 10
44.348413
 20
75.755025
 30
0.0
 10
43.637473
 20
74.576895
 30
0.0
 10
42.532783
 20
73.623775
 30
0.0
 10
41.099973
 20
73.026895
 30
0.0
 10
39.037473
 20
72.764395
 30
0.0
 10
36.899973
 20
72.726895
 30
0.0
 10
35.049973
 20
72.889395
 30
0.0
 10
33.199973
 20
73.126895
 30
0.0
 10
22.299973
 20
73.626895
 30
0.0
 10
8.099972
 20
74.526895
 30
0.0
 10
6.010912
 20
74.897205
 30
0.0
 10
5.190792
 20
75.263415
 30
0.0
 10
4.512472
 20
75.764395
 30
0.0
 10
3.970092
 20
76.410685
 30
0.0
 10
3.557782
 20
77.212835
 30
0.0
 10
3.269702
 20
78.181385
 30
0.0
 10
3.099972
 20
79.326895
 30
0.0
 10
2.937472
 20
83.889395
 30
0.0
 10
2.999972
 20
88.526895
 30
0.0
 10
2.999972
 20
94.526895
 30
0.0
 10
2.999972
 20
99.426895
 30
0.0
 10
2.899972
 20
111.926905
 30
0.0
 10
2.599972
 20
119.426905
 30
0.0
 10
2.599972
 20
136.426905
 30
0.0
 10
2.599972
 20
142.626905
 30
0.0
 10
2.842162
 20
143.894085
 30
0.0
 10
3.412472
 20
144.964405
 30
0.0
 10
4.301532
 20
145.790965
 30
0.0
 10
5.499972
 20
146.326905
 30
0.0
 10
8.999972
 20
147.164405
 30
0.0
 10
10.759352
 20
147.465965
 30
0.0
 10
12.499972
 20
147.626905
 30
0.0
 10
18.099973
 20
147.751905
 30
0.0
 10
23.699973
 20
147.726905
 30
0.0
 10
23.899973
 20
147.426905
 30
0.0
 10
23.899973
 20
147.426905
 30
0.0
  0
LWPOLYLINE
  5
10e
100
AcDbEntity
  8
Layer_1
 62
7
100
AcDbPolyline
 90
40
 70
0
 10
62.499984
 20
76.726895
 30
0.0
 10
64.499984
 20
100.726905
 30
0.0
 10
64.499984
 20
101.226905
 30
0.0
 10
65.062484
 20
111.926905
 30
0.0
 10
65.699984
 20
122.626905
 30
0.0
 10
66.387484
 20
129.064405
 30
0.0
 10
67.299984
 20
135.426905
 30
0.0
 10
67.637484
 20
138.014405
 30
0.0
 10
68.199984
 20
140.526905
 30
0.0
 10
68.683194
 20
141.846625
 30
0.0
 10
69.365614
 20
142.947215
 30
0.0
 10
70.221474
 20
143.815765
 30
0.0
 10
71.224984
 20
144.439405
 30
0.0
 10
72.350374
 20
144.805225
 30
0.0
 10
73.571864
 20
144.900325
 30
0.0
 10
74.863654
 20
144.711845
 30
0.0
 10
76.199984
 20
144.226885
 30
0.0
 10
77.509364
 20
143.387825
 30
0.0
 10
78.424984
 20
142.239385
 30
0.0
 10
78.928108
 20
140.809695
 30
0.0
 10
79.000008
 20
139.126885
 30
0.0
 10
77.700014
 20
125.526885
 30
0.0
 10
77.000014
 20
116.626885
 30
0.0
 10
75.600014
 20
102.526885
 30
0.0
 10
74.500014
 20
89.426875
 30
0.0
 10
72.900014
 20
75.626875
 30
0.0
 10
72.400014
 20
73.689375
 30
0.0
 10
71.600014
 20
71.826875
 30
0.0
 10
70.784394
 20
70.608125
 30
0.0
 10
69.725014
 20
69.801875
 30
0.0
 10
68.478144
 20
69.408125
 30
0.0
 10
67.100014
 20
69.426825
 30
0.0
 10
65.257824
 20
69.937765
 30
0.0
 10
63.912514
 20
70.739325
 30
0.0
 10
63.035954
 20
71.859635
 30
0.0
 10
62.600014
 20
73.326825
 30
0.0
 10
62.600014
 20
76.526825
 30
0.0
 10
62.625014
 20
76.701825
 30
0.0
 10
62.500014
 20
76.726825
 30
0.0
 10
62.500014
 20
76.726825
 30
0.0
  0
LWPOLYLINE
  5
10f
100
AcDbEntity
  8
Layer_1
 62
7
100
AcDbPolyline
 90
121
 70
0
 10
180.799988
 20
-110.673095
 30
0.0
 10
180.799988
 20
-92.673095
 30
0.0
 10
181.099988
 20
-75.473095
 30
0.0
 10
180.799988
 20
-62.773105
 30
0.0
 10
180.924988
 20
-60.923105
 30
0.0
 10
181.199988
 20
-59.073105
 30
0.0
 10
181.532798
 20
-58.023105
 30
0.0
 10
182.062488
 20
-57.123105
 30
0.0
 10
182.760928
 20
-56.373105
 30
0.0
 10
183.599988
 20
-55.773105
 30
0.0
 10
184.818548
 20
-55.222125
 30
0.0
 10
185.979678
 20
-54.984045
 30
0.0
 10
187.054088
 20
-55.043645
 30
0.0
 10
188.012488
 20
-55.385635
 30
0.0
 10
188.825578
 20
-55.994815
 30
0.0
 10
189.464048
 20
-56.855945
 30
0.0
 10
189.898618
 20
-57.953795
 30
0.0
 10
190.099988
 20
-59.273135
 30
0.0
 10
190.212488
 20
-63.623135
 30
0.0
 10
190.099988
 20
-67.973135
 30
0.0
 10
189.999988
 20
-81.173125
 30
0.0
 10
190.024988
 20
-82.173125
 30
0.0
 10
190.199988
 20
-83.173125
 30
0.0
 10
190.796868
 20
-84.949685
 30
0.0
 10
191.258198
 20
-85.646365
 30
0.0
 10
191.824988
 20
-86.210625
 30
0.0
 10
192.494908
 20
-86.638945
 30
0.0
 10
193.265618
 20
-86.927815
 30
0.0
 10
194.134758
 20
-87.073705
 30
0.0
 10
195.099988
 20
-87.073125
 30
0.0
 10
198.687488
 20
-86.585625
 30
0.0
 10
202.199988
 20
-85.873125
 30
0.0
 10
209.499988
 20
-84.473125
 30
0.0
 10
211.768738
 20
-83.868435
 30
0.0
 10
212.657018
 20
-83.423705
 30
0.0
 10
213.399988
 20
-82.860625
 30
0.0
 10
214.011708
 20
-82.161605
 30
0.0
 10
214.506238
 20
-81.309065
 30
0.0
 10
215.199988
 20
-79.073125
 30
0.0
 10
215.562488
 20
-76.623125
 30
0.0
 10
215.699988
 20
-74.173125
 30
0.0
 10
215.599988
 20
-55.673135
 30
0.0
 10
215.737488
 20
-52.698135
 30
0.0
 10
216.064048
 20
-51.257505
 30
0.0
 10
216.699988
 20
-49.873135
 30
0.0
 10
217.587488
 20
-48.660635
 30
0.0
 10
218.699988
 20
-47.673135
 30
0.0
 10
219.601948
 20
-47.223135
 30
0.0
 10
220.553118
 20
-46.941885
 30
0.0
 10
221.508978
 20
-46.857485
 30
0.0
 10
222.424988
 20
-46.998115
 30
0.0
 10
223.256628
 20
-47.391865
 30
0.0
 10
223.959368
 20
-48.066865
 30
0.0
 10
224.488658
 20
-49.051235
 30
0.0
 10
224.799988
 20
-50.373115
 30
0.0
 10
225.015618
 20
-52.715305
 30
0.0
 10
225.100018
 20
-55.085615
 30
0.0
 10
225.100018
 20
-59.873115
 30
0.0
 10
224.950018
 20
-62.585615
 30
0.0
 10
224.800018
 20
-65.373115
 30
0.0
 10
225.100018
 20
-82.573105
 30
0.0
 10
224.800018
 20
-85.273105
 30
0.0
 10
225.300018
 20
-109.973105
 30
0.0
 10
225.312518
 20
-117.973105
 30
0.0
 10
225.100018
 20
-125.973105
 30
0.0
 10
224.931268
 20
-127.762165
 30
0.0
 10
224.500018
 20
-129.485605
 30
0.0
 10
223.693768
 20
-131.077795
 30
0.0
 10
222.400018
 20
-132.473105
 30
0.0
 10
221.254708
 20
-133.202795
 30
0.0
 10
220.062518
 20
-133.585605
 30
0.0
 10
218.814078
 20
-133.612205
 30
0.0
 10
217.500018
 20
-133.273145
 30
0.0
 10
216.410958
 20
-132.593455
 30
0.0
 10
215.762518
 20
-131.660645
 30
0.0
 10
215.432828
 20
-130.559085
 30
0.0
 10
215.300018
 20
-129.373145
 30
0.0
 10
215.125018
 20
-124.373145
 30
0.0
 10
215.100018
 20
-119.373145
 30
0.0
 10
215.300018
 20
-103.373145
 30
0.0
 10
215.412518
 20
-100.923145
 30
0.0
 10
215.426618
 20
-99.688765
 30
0.0
 10
215.300058
 20
-98.473145
 30
0.0
 10
214.979748
 20
-97.126655
 30
0.0
 10
214.537558
 20
-96.007515
 30
0.0
 10
213.964118
 20
-95.108695
 30
0.0
 10
213.250058
 20
-94.423145
 30
0.0
 10
212.385998
 20
-93.943845
 30
0.0
 10
211.362558
 20
-93.663765
 30
0.0
 10
210.170368
 20
-93.575865
 30
0.0
 10
208.800058
 20
-93.673165
 30
0.0
 10
198.200058
 20
-94.973165
 30
0.0
 10
196.589118
 20
-95.263785
 30
0.0
 10
195.062558
 20
-95.798165
 30
0.0
 10
193.629748
 20
-96.520035
 30
0.0
 10
192.300058
 20
-97.373165
 30
0.0
 10
191.557088
 20
-98.013785
 30
0.0
 10
190.968808
 20
-98.729415
 30
0.0
 10
190.200058
 20
-100.348165
 30
0.0
 10
189.881308
 20
-102.154415
 30
0.0
 10
189.900108
 20
-104.073165
 30
0.0
 10
189.900108
 20
-108.973165
 30
0.0
 10
190.200108
 20
-113.473165
 30
0.0
 10
190.200108
 20
-132.973165
 30
0.0
 10
190.050108
 20
-134.610665
 30
0.0
 10
189.600108
 20
-136.173165
 30
0.0
 10
189.312418
 20
-136.833515
 30
0.0
 10
188.911048
 20
-137.387225
 30
0.0
 10
187.837608
 20
-138.160665
 30
0.0
 10
186.520418
 20
-138.465355
 30
0.0
 10
185.100108
 20
-138.273165
 30
0.0
 10
184.111438
 20
-137.874725
 30
0.0
 10
183.246988
 20
-137.354415
 30
0.0
 10
182.509098
 20
-136.712225
 30
0.0
 10
181.900108
 20
-135.948165
 30
0.0
 10
181.422378
 20
-135.062225
 30
0.0
 10
181.078238
 20
-134.054415
 30
0.0
 10
180.870028
 20
-132.924725
 30
0.0
 10
180.800128
 20
-131.673165
 30
0.0
 10
180.800128
 20
-110.673165
 30
0.0
 10
180.800128
 20
-110.673165
 30
0.0
  0
LWPOLYLINE
  5
110
100
AcDbEntity
  8
Layer_1
 62
7
100
AcDbPolyline
 90
115
 70
0
 10
-210.200032
 20
-112.373095
 30
0.0
 10
-210.262532
 20
-117.010595
 30
0.0
 10
-210.100032
 20
-121.573095
 30
0.0
 10
-210.109032
 20
-123.921535
 30
0.0
 10
-210.399662
 20
-126.185595
 30
0.0
 10
-210.915282
 20
-128.393405
 30
0.0
 10
-211.599662
 20
-130.573095
 30
0.0
 10
-212.284032
 20
-131.832465
 30
0.0
 10
-212.735202
 20
-132.228955
 30
0.0
 10
-213.249662
 20
-132.473095
 30
0.0
 10
-213.820362
 20
-132.567195
 30
0.0
 10
-214.440282
 20
-132.513695
 30
0.0
 10
-215.799662
 20
-131.973075
 30
0.0
 10
-216.724662
 20
-131.327765
 30
0.0
 10
-217.499662
 20
-130.560575
 30
0.0
 10
-218.049662
 20
-129.624635
 30
0.0
 10
-218.299662
 20
-128.473075
 30
0.0
 10
-218.487162
 20
-126.873075
 30
0.0
 10
-218.599662
 20
-125.273075
 30
0.0
 10
-218.662162
 20
-111.573075
 30
0.0
 10
-218.799662
 20
-97.873075
 30
0.0
 10
-219.149662
 20
-90.523075
 30
0.0
 10
-219.499662
 20
-83.173075
 30
0.0
 10
-219.424662
 20
-79.960575
 30
0.0
 10
-219.199662
 20
-76.673075
 30
0.0
 10
-219.099662
 20
-73.673075
 30
0.0
 10
-219.599662
 20
-56.773085
 30
0.0
 10
-219.512162
 20
-54.785585
 30
0.0
 10
-219.199662
 20
-52.873085
 30
0.0
 10
-218.797312
 20
-51.716835
 30
0.0
 10
-218.212162
 20
-50.804335
 30
0.0
 10
-217.477002
 20
-50.144955
 30
0.0
 10
-216.624662
 20
-49.748085
 30
0.0
 10
-215.687942
 20
-49.623085
 30
0.0
 10
-214.699662
 20
-49.779335
 30
0.0
 10
-213.692632
 20
-50.226205
 30
0.0
 10
-212.699662
 20
-50.973085
 30
0.0
 10
-211.838722
 20
-51.913705
 30
0.0
 10
-211.212162
 20
-52.948085
 30
0.0
 10
-210.829352
 20
-54.094955
 30
0.0
 10
-210.699662
 20
-55.373085
 30
0.0
 10
-210.299662
 20
-68.573085
 30
0.0
 10
-210.599662
 20
-76.773075
 30
0.0
 10
-210.537162
 20
-79.160575
 30
0.0
 10
-210.388722
 20
-80.330885
 30
0.0
 10
-210.099662
 20
-81.473075
 30
0.0
 10
-209.782862
 20
-82.288305
 30
0.0
 10
-209.365282
 20
-82.932445
 30
0.0
 10
-208.858642
 20
-83.403155
 30
0.0
 10
-208.274662
 20
-83.698075
 30
0.0
 10
-207.625052
 20
-83.814875
 30
0.0
 10
-206.921532
 20
-83.751175
 30
0.0
 10
-206.175832
 20
-83.504695
 30
0.0
 10
-205.399662
 20
-83.073055
 30
0.0
 10
-204.512162
 20
-82.398055
 30
0.0
 10
-203.699662
 20
-81.573055
 30
0.0
 10
-191.999662
 20
-67.973065
 30
0.0
 10
-186.799662
 20
-61.573065
 30
0.0
 10
-185.262162
 20
-60.160565
 30
0.0
 10
-183.499662
 20
-58.973065
 30
0.0
 10
-182.209032
 20
-58.351185
 30
0.0
 10
-180.899662
 20
-58.123065
 30
0.0
 10
-179.590282
 20
-58.269935
 30
0.0
 10
-178.299662
 20
-58.773065
 30
0.0
 10
-177.123102
 20
-59.646505
 30
0.0
 10
-176.462162
 20
-60.735565
 30
0.0
 10
-176.344972
 20
-61.993375
 30
0.0
 10
-176.799662
 20
-63.373065
 30
0.0
 10
-177.624662
 20
-64.610565
 30
0.0
 10
-178.599662
 20
-65.773065
 30
0.0
 10
-192.799662
 20
-81.473055
 30
0.0
 10
-194.199662
 20
-83.360555
 30
0.0
 10
-195.299662
 20
-85.473055
 30
0.0
 10
-195.721532
 20
-86.899615
 30
0.0
 10
-195.824662
 20
-88.335555
 30
0.0
 10
-195.665282
 20
-89.790245
 30
0.0
 10
-195.299662
 20
-91.273055
 30
0.0
 10
-193.501222
 20
-96.351175
 30
0.0
 10
-191.412162
 20
-101.298055
 30
0.0
 10
-189.266852
 20
-106.207425
 30
0.0
 10
-187.299662
 20
-111.173055
 30
0.0
 10
-183.787162
 20
-120.248055
 30
0.0
 10
-179.899662
 20
-129.173055
 30
0.0
 10
-178.474662
 20
-132.635555
 30
0.0
 10
-177.199662
 20
-136.173055
 30
0.0
 10
-176.774662
 20
-137.873055
 30
0.0
 10
-176.799662
 20
-139.573055
 30
0.0
 10
-177.073492
 20
-140.586925
 30
0.0
 10
-177.565282
 20
-141.440245
 30
0.0
 10
-178.230522
 20
-142.113095
 30
0.0
 10
-179.024662
 20
-142.585555
 30
0.0
 10
-179.903172
 20
-142.837705
 30
0.0
 10
-180.821532
 20
-142.849605
 30
0.0
 10
-181.735202
 20
-142.601365
 30
0.0
 10
-182.599662
 20
-142.073045
 30
0.0
 10
-184.462162
 20
-140.373045
 30
0.0
 10
-185.229352
 20
-139.401165
 30
0.0
 10
-185.799662
 20
-138.373045
 30
0.0
 10
-189.124662
 20
-130.860545
 30
0.0
 10
-192.299662
 20
-123.273045
 30
0.0
 10
-200.899662
 20
-101.173045
 30
0.0
 10
-201.805912
 20
-99.488665
 30
0.0
 10
-202.974662
 20
-98.348045
 30
0.0
 10
-204.330912
 20
-97.769915
 30
0.0
 10
-205.799662
 20
-97.772915
 30
0.0
 10
-206.644972
 20
-98.013145
 30
0.0
 10
-207.443412
 20
-98.419785
 30
0.0
 10
-208.824662
 20
-99.647915
 30
0.0
 10
-209.793412
 20
-101.288535
 30
0.0
 10
-210.076222
 20
-102.210805
 30
0.0
 10
-210.199662
 20
-103.172915
 30
0.0
 10
-210.199662
 20
-109.872915
 30
0.0
 10
-210.199662
 20
-112.372915
 30
0.0
 10
-210.199662
 20
-112.372915
 30
0.0
 10
-210.199662
 20
-112.372915
 30
0.0
  0
LWPOLYLINE
  5
111
100
AcDbEntity
  8
Layer_1
 62
7
100
AcDbPolyline
 90
95
 70
0
 10
-158.300022
 20
-112.173095
 30
0.0
 10
-158.062522
 20
-115.635595
 30
0.0
 10
-157.900022
 20
-119.173095
 30
0.0
 10
-158.200022
 20
-126.173095
 30
0.0
 10
-158.200022
 20
-130.673095
 30
0.0
 10
-158.342212
 20
-132.091845
 30
0.0
 10
-158.662522
 20
-133.473095
 30
0.0
 10
-159.226582
 20
-134.779345
 30
0.0
 10
-160.100022
 20
-135.973095
 30
0.0
 10
-160.877752
 20
-136.663715
 30
0.0
 10
-161.690642
 20
-137.091845
 30
0.0
 10
-162.508222
 20
-137.266845
 30
0.0
 10
-163.300022
 20
-137.198045
 30
0.0
 10
-164.035562
 20
-136.894915
 30
0.0
 10
-164.684392
 20
-136.366795
 30
0.0
 10
-165.216032
 20
-135.623045
 30
0.0
 10
-165.600022
 20
-134.673045
 30
0.0
 10
-165.962522
 20
-132.823045
 30
0.0
 10
-166.100022
 20
-130.973045
 30
0.0
 10
-166.300022
 20
-117.473045
 30
0.0
 10
-166.487522
 20
-113.623045
 30
0.0
 10
-166.600022
 20
-109.773045
 30
0.0
 10
-166.300022
 20
-101.573045
 30
0.0
 10
-166.650022
 20
-95.373045
 30
0.0
 10
-167.000022
 20
-89.173045
 30
0.0
 10
-166.987522
 20
-84.573045
 30
0.0
 10
-166.900022
 20
-79.973045
 30
0.0
 10
-166.900022
 20
-70.973045
 30
0.0
 10
-166.912522
 20
-67.373055
 30
0.0
 10
-166.700022
 20
-63.773055
 30
0.0
 10
-166.501192
 20
-62.809775
 30
0.0
 10
-166.140642
 20
-61.954305
 30
0.0
 10
-165.634782
 20
-61.220705
 30
0.0
 10
-165.000022
 20
-60.623055
 30
0.0
 10
-164.252752
 20
-60.175395
 30
0.0
 10
-163.409392
 20
-59.891805
 30
0.0
 10
-162.486352
 20
-59.786335
 30
0.0
 10
-161.500022
 20
-59.873035
 30
0.0
 10
-151.712522
 20
-61.698035
 30
0.0
 10
-146.832832
 20
-62.741785
 30
0.0
 10
-142.000022
 20
-63.973035
 30
0.0
 10
-139.329312
 20
-65.018155
 30
0.0
 10
-136.834392
 20
-66.540225
 30
0.0
 10
-134.578532
 20
-68.481825
 30
0.0
 10
-132.625022
 20
-70.785525
 30
0.0
 10
-131.037132
 20
-73.393925
 30
0.0
 10
-129.878142
 20
-76.249585
 30
0.0
 10
-129.211352
 20
-79.295095
 30
0.0
 10
-129.082292
 20
-80.871095
 30
0.0
 10
-129.099992
 20
-82.473025
 30
0.0
 10
-129.301552
 20
-84.502125
 30
0.0
 10
-129.681242
 20
-86.462085
 30
0.0
 10
-130.239052
 20
-88.349395
 30
0.0
 10
-130.974992
 20
-90.160525
 30
0.0
 10
-131.889052
 20
-91.891965
 30
0.0
 10
-132.981242
 20
-93.540215
 30
0.0
 10
-134.251552
 20
-95.101735
 30
0.0
 10
-135.699992
 20
-96.573025
 30
0.0
 10
-139.399992
 20
-99.573025
 30
0.0
 10
-140.554682
 20
-100.638645
 30
0.0
 10
-141.287492
 20
-101.873025
 30
0.0
 10
-141.551552
 20
-103.257395
 30
0.0
 10
-141.299992
 20
-104.773025
 30
0.0
 10
-140.312492
 20
-107.710525
 30
0.0
 10
-139.099992
 20
-110.573025
 30
0.0
 10
-133.499992
 20
-122.573025
 30
0.0
 10
-132.537492
 20
-124.885525
 30
0.0
 10
-131.799992
 20
-127.273025
 30
0.0
 10
-131.635932
 20
-128.294315
 30
0.0
 10
-131.725032
 20
-129.237085
 30
0.0
 10
-132.039092
 20
-130.069705
 30
0.0
 10
-132.550032
 20
-130.760525
 30
0.0
 10
-133.229722
 20
-131.277905
 30
0.0
 10
-134.050032
 20
-131.590215
 30
0.0
 10
-134.982842
 20
-131.665815
 30
0.0
 10
-136.000032
 20
-131.473045
 30
0.0
 10
-137.750032
 20
-130.598045
 30
0.0
 10
-139.200032
 20
-129.273045
 30
0.0
 10
-140.850032
 20
-126.760545
 30
0.0
 10
-142.200032
 20
-124.173045
 30
0.0
 10
-149.300032
 20
-109.573045
 30
0.0
 10
-150.325032
 20
-107.848045
 30
0.0
 10
-151.500032
 20
-106.273045
 30
0.0
 10
-152.306282
 20
-105.448045
 30
0.0
 10
-153.225032
 20
-104.848045
 30
0.0
 10
-154.256282
 20
-104.585545
 30
0.0
 10
-155.400032
 20
-104.773045
 30
0.0
 10
-156.493782
 20
-105.365235
 30
0.0
 10
-157.250032
 20
-106.210545
 30
0.0
 10
-157.706282
 20
-107.262105
 30
0.0
 10
-157.900032
 20
-108.473045
 30
0.0
 10
-158.212532
 20
-110.285545
 30
0.0
 10
-158.300032
 20
-112.173045
 30
0.0
 10
-158.300032
 20
-112.173045
 30
0.0
 10
-158.300032
 20
-112.173045
 30
0.0
  0
LWPOLYLINE
  5
112
100
AcDbEntity
  8
Layer_1
 62
7
100
AcDbPolyline
 90
39
 70
0
 10
-158.900032
 20
-78.573045
 30
0.0
 10
-158.400032
 20
-78.573045
 30
0.0
 10
-158.400032
 20
-88.773045
 30
0.0
 10
-158.131282
 20
-90.421485
 30
0.0
 10
-157.375032
 20
-91.835545
 30
0.0
 10
-156.206282
 20
-92.893355
 30
0.0
 10
-155.490652
 20
-93.250585
 30
0.0
 10
-154.700032
 20
-93.473045
 30
0.0
 10
-151.587532
 20
-93.805855
 30
0.0
 10
-148.550032
 20
-93.585545
 30
0.0
 10
-145.587532
 20
-92.783985
 30
0.0
 10
-142.700032
 20
-91.373045
 30
0.0
 10
-141.621322
 20
-90.597845
 30
0.0
 10
-140.764092
 20
-89.708985
 30
0.0
 10
-140.096712
 20
-88.724025
 30
0.0
 10
-139.587532
 20
-87.660545
 30
0.0
 10
-138.917222
 20
-85.368355
 30
0.0
 10
-138.500032
 20
-82.973045
 30
0.0
 10
-138.344562
 20
-81.060735
 30
0.0
 10
-138.475032
 20
-79.299605
 30
0.0
 10
-138.886752
 20
-77.690815
 30
0.0
 10
-139.575032
 20
-76.235545
 30
0.0
 10
-140.535182
 20
-74.934955
 30
0.0
 10
-141.762532
 20
-73.790235
 30
0.0
 10
-143.252372
 20
-72.802535
 30
0.0
 10
-145.000032
 20
-71.973045
 30
0.0
 10
-148.300032
 20
-70.760545
 30
0.0
 10
-151.600032
 20
-69.773045
 30
0.0
 10
-152.798272
 20
-69.546875
 30
0.0
 10
-153.910972
 20
-69.538875
 30
0.0
 10
-154.927572
 20
-69.741615
 30
0.0
 10
-155.837532
 20
-70.148255
 30
0.0
 10
-156.630302
 20
-70.751765
 30
0.0
 10
-157.295342
 20
-71.545125
 30
0.0
 10
-157.822102
 20
-72.521305
 30
0.0
 10
-158.200032
 20
-73.673255
 30
0.0
 10
-158.625032
 20
-76.123255
 30
0.0
 10
-158.900032
 20
-78.573255
 30
0.0
 10
-158.900032
 20
-78.573255
 30
0.0
  0
LWPOLYLINE
  5
113
100
AcDbEntity
  8
Layer_1
 62
7
100
AcDbPolyline
 90
124
 70
1
 10
153.958980
 20
-60.754995
 30
0.0
 10
151.017580
 20
-60.811995
 30
0.0
 10
148.025390
 20
-61.227995
 30
0.0
 10
145.000000
 20
-61.974095
 30
0.0
 10
141.230470
 20
-63.364795
 30
0.0
 10
137.869140
 20
-65.196795
 30
0.0
 10
134.910160
 20
-67.438995
 30
0.0
 10
132.349610
 20
-70.060095
 30
0.0
 10
130.183590
 20
-73.034695
 30
0.0
 10
128.406250
 20
-76.331595
 30
0.0
 10
127.013670
 20
-79.921395
 30
0.0
 10
126.000000
 20
-83.772995
 30
0.0
 10
125.130860
 20
-88.741695
 30
0.0
 10
124.675780
 20
-93.747595
 30
0.0
 10
124.706980
 20
-98.792495
 30
0.0
 10
124.927680
 20
-101.327695
 30
0.0
 10
125.300730
 20
-103.872595
 30
0.0
 10
126.185500
 20
-108.384295
 30
0.0
 10
127.437450
 20
-112.735895
 30
0.0
 10
128.244090
 20
-114.837395
 30
0.0
 10
129.195260
 20
-116.880395
 30
0.0
 10
130.308540
 20
-118.862795
 30
0.0
 10
131.599560
 20
-120.772995
 30
0.0
 10
133.853470
 20
-123.374495
 30
0.0
 10
135.097610
 20
-124.483895
 30
0.0
 10
136.425730
 20
-125.460495
 30
0.0
 10
137.835890
 20
-126.302295
 30
0.0
 10
139.333930
 20
-127.003395
 30
0.0
 10
140.921830
 20
-127.561995
 30
0.0
 10
142.599560
 20
-127.974095
 30
0.0
 10
146.863230
 20
-128.585495
 30
0.0
 10
151.156200
 20
-128.970195
 30
0.0
 10
153.699170
 20
-128.798395
 30
0.0
 10
156.300730
 20
-128.474095
 30
0.0
 10
159.048780
 20
-127.601095
 30
0.0
 10
161.535110
 20
-126.421395
 30
0.0
 10
163.771430
 20
-124.960495
 30
0.0
 10
165.775340
 20
-123.235895
 30
0.0
 10
167.564400
 20
-121.272995
 30
0.0
 10
169.152290
 20
-119.093295
 30
0.0
 10
170.560500
 20
-116.720195
 30
0.0
 10
171.800730
 20
-114.173395
 30
0.0
 10
171.999950
 20
-113.173395
 30
0.0
 10
172.058550
 20
-111.903795
 30
0.0
 10
171.800740
 20
-110.810095
 30
0.0
 10
171.240190
 20
-109.925295
 30
0.0
 10
170.400350
 20
-109.272995
 30
0.0
 10
169.378870
 20
-108.845195
 30
0.0
 10
168.312460
 20
-108.773195
 30
0.0
 10
167.263630
 20
-109.075895
 30
0.0
 10
166.300740
 20
-109.773195
 30
0.0
 10
164.462850
 20
-111.810295
 30
0.0
 10
163.642540
 20
-112.909895
 30
0.0
 10
162.999960
 20
-114.073895
 30
0.0
 10
162.242150
 20
-115.489995
 30
0.0
 10
161.333940
 20
-116.739995
 30
0.0
 10
160.290980
 20
-117.829795
 30
0.0
 10
159.134730
 20
-118.761395
 30
0.0
 10
157.882770
 20
-119.536795
 30
0.0
 10
156.556600
 20
-120.161795
 30
0.0
 10
155.171840
 20
-120.640395
 30
0.0
 10
153.749960
 20
-120.974295
 30
0.0
 10
150.869100
 20
-121.222395
 30
0.0
 10
148.066370
 20
-120.935295
 30
0.0
 10
145.492150
 20
-120.144295
 30
0.0
 10
144.337850
 20
-119.566095
 30
0.0
 10
143.300740
 20
-118.872795
 30
0.0
 10
141.767540
 20
-117.589595
 30
0.0
 10
140.390580
 20
-116.212595
 30
0.0
 10
139.169880
 20
-114.743895
 30
0.0
 10
138.099570
 20
-113.185295
 30
0.0
 10
137.181600
 20
-111.538795
 30
0.0
 10
136.410120
 20
-109.802495
 30
0.0
 10
135.783160
 20
-107.982195
 30
0.0
 10
135.300740
 20
-106.073895
 30
0.0
 10
134.636680
 20
-102.372795
 30
0.0
 10
134.199180
 20
-98.673595
 30
0.0
 10
134.249980
 20
-94.573895
 30
0.0
 10
134.300780
 20
-90.474295
 30
0.0
 10
134.345680
 20
-88.405995
 30
0.0
 10
134.552710
 20
-86.398195
 30
0.0
 10
134.916000
 20
-84.446995
 30
0.0
 10
135.425760
 20
-82.548595
 30
0.0
 10
136.859360
 20
-78.886395
 30
0.0
 10
138.800760
 20
-75.372795
 30
0.0
 10
139.621070
 20
-74.122795
 30
0.0
 10
140.574200
 20
-72.948895
 30
0.0
 10
141.640600
 20
-71.886395
 30
0.0
 10
142.800760
 20
-70.974295
 30
0.0
 10
145.074200
 20
-69.798595
 30
0.0
 10
147.677710
 20
-69.013395
 30
0.0
 10
150.474590
 20
-68.685295
 30
0.0
 10
153.324200
 20
-68.872795
 30
0.0
 10
154.726540
 20
-69.181395
 30
0.0
 10
156.091780
 20
-69.644295
 30
0.0
 10
157.398420
 20
-70.267295
 30
0.0
 10
158.634750
 20
-71.058295
 30
0.0
 10
159.779280
 20
-72.027095
 30
0.0
 10
160.816390
 20
-73.179395
 30
0.0
 10
161.728500
 20
-74.527095
 30
0.0
 10
162.499980
 20
-76.073895
 30
0.0
 10
163.437480
 20
-77.997795
 30
0.0
 10
164.599590
 20
-79.773195
 30
0.0
 10
165.511700
 20
-80.675495
 30
0.0
 10
166.574200
 20
-81.136395
 30
0.0
 10
167.749980
 20
-81.165395
 30
0.0
 10
168.999980
 20
-80.772895
 30
0.0
 10
169.867170
 20
-80.276795
 30
0.0
 10
170.587870
 20
-79.690795
 30
0.0
 10
171.158180
 20
-79.016995
 30
0.0
 10
171.574200
 20
-78.261095
 30
0.0
 10
171.832010
 20
-77.425195
 30
0.0
 10
171.925710
 20
-76.513095
 30
0.0
 10
171.849510
 20
-75.526795
 30
0.0
 10
171.599510
 20
-74.473995
 30
0.0
 10
170.859280
 20
-72.399795
 30
0.0
 10
169.949120
 20
-70.411495
 30
0.0
 10
168.816310
 20
-68.552195
 30
0.0
 10
167.400290
 20
-66.872495
 30
0.0
 10
164.931540
 20
-64.698595
 30
0.0
 10
162.339740
 20
-63.028695
 30
0.0
 10
159.636620
 20
-61.833395
 30
0.0
 10
156.837790
 20
-61.085395
 30
0.0
 10
153.958980
 20
-60.754995
 30
0.0
  0
LWPOLYLINE
  5
114
100
AcDbEntity
  8
Layer_1
 62
7
100
AcDbPolyline
 90
4
 70
1
 10
151.156250
 20
-128.969795
 30
0.0
 10
151.099650
 20
-128.969795
 30
0.0
 10
151.199250
 20
-128.969795
 30
0.0
 10
151.156250
 20
-128.969795
 30
0.0
  0
LWPOLYLINE
  5
115
100
AcDbEntity
  8
Layer_1
 62
7
100
AcDbPolyline
 90
102
 70
0
 10
-90.900021
 20
-76.873095
 30
0.0
 10
-99.800021
 20
-76.073095
 30
0.0
 10
-100.500021
 20
-76.073095
 30
0.0
 10
-102.091421
 20
-76.084595
 30
0.0
 10
-103.425021
 20
-76.277765
 30
0.0
 10
-104.514861
 20
-76.665455
 30
0.0
 10
-105.375021
 20
-77.260575
 30
0.0
 10
-106.019551
 20
-78.076005
 30
0.0
 10
-106.462521
 20
-79.124635
 30
0.0
 10
-106.717991
 20
-80.419365
 30
0.0
 10
-106.799991
 20
-81.973075
 30
0.0
 10
-106.662491
 20
-84.673075
 30
0.0
 10
-106.299991
 20
-87.373075
 30
0.0
 10
-105.895301
 20
-88.591825
 30
0.0
 10
-105.162491
 20
-89.548075
 30
0.0
 10
-104.148431
 20
-90.241825
 30
0.0
 10
-102.899991
 20
-90.673075
 30
0.0
 10
-100.599991
 20
-91.185575
 30
0.0
 10
-98.299991
 20
-91.473075
 30
0.0
 10
-86.799991
 20
-91.273075
 30
0.0
 10
-85.589051
 20
-91.310575
 30
0.0
 10
-84.387491
 20
-91.498075
 30
0.0
 10
-83.242180
 20
-91.948075
 30
0.0
 10
-82.199990
 20
-92.773075
 30
0.0
 10
-81.398430
 20
-93.941825
 30
0.0
 10
-81.112490
 20
-95.148075
 30
0.0
 10
-81.370300
 20
-96.316825
 30
0.0
 10
-82.199990
 20
-97.373075
 30
0.0
 10
-83.737490
 20
-98.398075
 30
0.0
 10
-85.499991
 20
-98.973075
 30
0.0
 10
-88.449991
 20
-99.335575
 30
0.0
 10
-91.399991
 20
-99.473075
 30
0.0
 10
-96.249991
 20
-99.685575
 30
0.0
 10
-101.099991
 20
-99.973075
 30
0.0
 10
-102.296081
 20
-100.180495
 30
0.0
 10
-103.337491
 20
-100.507445
 30
0.0
 10
-104.228891
 20
-100.960965
 30
0.0
 10
-104.974991
 20
-101.548075
 30
0.0
 10
-105.580461
 20
-102.275805
 30
0.0
 10
-106.049991
 20
-103.151195
 30
0.0
 10
-106.388271
 20
-104.181275
 30
0.0
 10
-106.599991
 20
-105.373075
 30
0.0
 10
-106.787491
 20
-108.473075
 30
0.0
 10
-106.599991
 20
-111.573075
 30
0.0
 10
-106.328501
 20
-112.845925
 30
0.0
 10
-105.890611
 20
-113.955885
 30
0.0
 10
-105.288661
 20
-114.890065
 30
0.0
 10
-104.524991
 20
-115.635575
 30
0.0
 10
-103.601941
 20
-116.179515
 30
0.0
 10
-102.521861
 20
-116.509015
 30
0.0
 10
-101.287101
 20
-116.611155
 30
0.0
 10
-99.899991
 20
-116.473075
 30
0.0
 10
-86.399991
 20
-114.373075
 30
0.0
 10
-85.899991
 20
-114.273075
 30
0.0
 10
-84.240611
 20
-114.398075
 30
0.0
 10
-82.899990
 20
-114.898075
 30
0.0
 10
-81.934360
 20
-115.735575
 30
0.0
 10
-81.399990
 20
-116.873075
 30
0.0
 10
-81.462490
 20
-118.119945
 30
0.0
 10
-82.049990
 20
-119.348075
 30
0.0
 10
-83.087490
 20
-120.388695
 30
0.0
 10
-84.499991
 20
-121.073075
 30
0.0
 10
-89.199991
 20
-122.285575
 30
0.0
 10
-93.899991
 20
-123.273075
 30
0.0
 10
-108.099991
 20
-125.773075
 30
0.0
 10
-110.278111
 20
-125.955885
 30
0.0
 10
-111.204281
 20
-125.841625
 30
0.0
 10
-112.024991
 20
-125.585575
 30
0.0
 10
-112.742571
 20
-125.184205
 30
0.0
 10
-113.359361
 20
-124.634015
 30
0.0
 10
-113.877721
 20
-123.931475
 30
0.0
 10
-114.299991
 20
-123.073075
 30
0.0
 10
-114.712491
 20
-121.523075
 30
0.0
 10
-114.899991
 20
-119.973075
 30
0.0
 10
-115.099991
 20
-104.073075
 30
0.0
 10
-115.099991
 20
-97.873075
 30
0.0
 10
-115.199991
 20
-76.673075
 30
0.0
 10
-115.174991
 20
-74.673075
 30
0.0
 10
-114.999991
 20
-72.673075
 30
0.0
 10
-114.784751
 20
-71.580305
 30
0.0
 10
-114.440611
 20
-70.624635
 30
0.0
 10
-113.969911
 20
-69.802565
 30
0.0
 10
-113.374991
 20
-69.110575
 30
0.0
 10
-112.658191
 20
-68.545155
 30
0.0
 10
-111.821861
 20
-68.102775
 30
0.0
 10
-109.799991
 20
-67.573085
 30
0.0
 10
-106.799991
 20
-67.573085
 30
0.0
 10
-85.199991
 20
-69.473075
 30
0.0
 10
-83.303110
 20
-69.912135
 30
0.0
 10
-81.874990
 20
-70.735575
 30
0.0
 10
-81.366000
 20
-71.270925
 30
0.0
 10
-81.009360
 20
-71.877765
 30
0.0
 10
-80.816780
 20
-72.547875
 30
0.0
 10
-80.799980
 20
-73.273075
 30
0.0
 10
-80.919900
 20
-73.927565
 30
0.0
 10
-81.196850
 20
-74.534015
 30
0.0
 10
-82.174980
 20
-75.560575
 30
0.0
 10
-83.640600
 20
-76.268385
 30
0.0
 10
-85.499981
 20
-76.573075
 30
0.0
 10
-90.699981
 20
-76.573075
 30
0.0
 10
-90.899981
 20
-76.873075
 30
0.0
 10
-90.899981
 20
-76.873075
 30
0.0
  0
LWPOLYLINE
  5
116
100
AcDbEntity
  8
Layer_1
 62
7
100
AcDbPolyline
 90
64
 70
0
 10
81.399978
 20
-118.073095
 30
0.0
 10
80.411898
 20
-117.953955
 30
0.0
 10
79.551538
 20
-117.682465
 30
0.0
 10
78.824788
 20
-117.275045
 30
0.0
 10
78.237484
 20
-116.748095
 30
0.0
 10
77.795494
 20
-116.118015
 30
0.0
 10
77.504674
 20
-115.401215
 30
0.0
 10
77.370884
 20
-114.614105
 30
0.0
 10
77.399984
 20
-113.773095
 30
0.0
 10
77.687484
 20
-112.285595
 30
0.0
 10
78.199984
 20
-110.873095
 30
0.0
 10
82.299978
 20
-102.073095
 30
0.0
 10
83.199978
 20
-100.273095
 30
0.0
 10
92.499978
 20
-78.773095
 30
0.0
 10
95.099978
 20
-73.373095
 30
0.0
 10
95.674978
 20
-72.398095
 30
0.0
 10
96.399978
 20
-71.573095
 30
0.0
 10
97.699978
 20
-70.493405
 30
0.0
 10
98.354668
 20
-70.221335
 30
0.0
 10
98.999978
 20
-70.135635
 30
0.0
 10
99.626538
 20
-70.242075
 30
0.0
 10
100.224978
 20
-70.546575
 30
0.0
 10
100.785918
 20
-71.054965
 30
0.0
 10
101.299978
 20
-71.773135
 30
0.0
 10
103.499978
 20
-75.948135
 30
0.0
 10
105.399978
 20
-80.273135
 30
0.0
 10
107.237478
 20
-85.023135
 30
0.0
 10
108.999978
 20
-89.773135
 30
0.0
 10
111.499978
 20
-96.273135
 30
0.0
 10
115.799978
 20
-107.285635
 30
0.0
 10
118.165608
 20
-112.712195
 30
0.0
 10
120.699978
 20
-118.073135
 30
0.0
 10
121.174978
 20
-119.185635
 30
0.0
 10
121.499978
 20
-120.373135
 30
0.0
 10
121.554278
 20
-121.265905
 30
0.0
 10
121.428108
 20
-122.059075
 30
0.0
 10
121.137868
 20
-122.737395
 30
0.0
 10
120.699978
 20
-123.285635
 30
0.0
 10
120.130838
 20
-123.688565
 30
0.0
 10
119.446858
 20
-123.930945
 30
0.0
 10
118.664438
 20
-123.997545
 30
0.0
 10
117.799978
 20
-123.873135
 30
0.0
 10
116.171858
 20
-123.304385
 30
0.0
 10
114.749978
 20
-122.473135
 30
0.0
 10
113.553108
 20
-121.341885
 30
0.0
 10
112.599978
 20
-119.873135
 30
0.0
 10
110.499978
 20
-115.673135
 30
0.0
 10
109.346858
 20
-113.926255
 30
0.0
 10
107.949978
 20
-112.498135
 30
0.0
 10
106.253108
 20
-111.482505
 30
0.0
 10
105.274588
 20
-111.158685
 30
0.0
 10
104.199978
 20
-110.973135
 30
0.0
 10
97.299978
 20
-110.473135
 30
0.0
 10
92.299978
 20
-110.473135
 30
0.0
 10
90.315608
 20
-110.610635
 30
0.0
 10
88.574978
 20
-111.198135
 30
0.0
 10
87.096858
 20
-112.273135
 30
0.0
 10
85.899978
 20
-113.873135
 30
0.0
 10
84.849978
 20
-115.435635
 30
0.0
 10
83.499978
 20
-116.773135
 30
0.0
 10
83.031228
 20
-117.243445
 30
0.0
 10
82.449978
 20
-117.610635
 30
0.0
 10
81.399978
 20
-118.073135
 30
0.0
 10
81.399978
 20
-118.073135
 30
0.0
  0
LWPOLYLINE
  5
117
100
AcDbEntity
  8
Layer_1
 62
7
100
AcDbPolyline
 90
30
 70
0
 10
103.599978
 20
-98.173135
 30
0.0
 10
102.262478
 20
-94.760635
 30
0.0
 10
101.560918
 20
-93.124695
 30
0.0
 10
100.699978
 20
-91.573135
 30
0.0
 10
100.057208
 20
-90.724505
 30
0.0
 10
99.345288
 20
-90.127825
 30
0.0
 10
98.588848
 20
-89.781925
 30
0.0
 10
97.812478
 20
-89.685625
 30
0.0
 10
97.040798
 20
-89.837775
 30
0.0
 10
96.298418
 20
-90.237185
 30
0.0
 10
95.609938
 20
-90.882695
 30
0.0
 10
94.999978
 20
-91.773125
 30
0.0
 10
94.260918
 20
-93.248125
 30
0.0
 10
93.662478
 20
-94.798125
 30
0.0
 10
92.699978
 20
-97.973125
 30
0.0
 10
92.579668
 20
-98.910625
 30
0.0
 10
92.787478
 20
-99.773125
 30
0.0
 10
93.276538
 20
-100.560625
 30
0.0
 10
93.999978
 20
-101.273125
 30
0.0
 10
94.844318
 20
-101.830545
 30
0.0
 10
95.842168
 20
-102.226245
 30
0.0
 10
96.940798
 20
-102.457885
 30
0.0
 10
98.087478
 20
-102.523085
 30
0.0
 10
99.229468
 20
-102.419565
 30
0.0
 10
100.314038
 20
-102.144955
 30
0.0
 10
101.288458
 20
-101.696915
 30
0.0
 10
102.099978
 20
-101.073085
 30
0.0
 10
102.849978
 20
-99.773085
 30
0.0
 10
103.599978
 20
-98.173085
 30
0.0
 10
103.599978
 20
-98.173085
 30
0.0
  0
LWPOLYLINE
  5
118
100
AcDbEntity
  8
Layer_1
 62
7
100
AcDbPolyline
 90
87
 70
0
 10
29.999983
 20
-100.873095
 30
0.0
 10
30.799983
 20
-80.673095
 30
0.0
 10
30.868783
 20
-79.585595
 30
0.0
 10
31.050033
 20
-78.498095
 30
0.0
 10
31.531283
 20
-77.523095
 30
0.0
 10
31.943003
 20
-77.112935
 30
0.0
 10
32.500033
 20
-76.773095
 30
0.0
 10
33.646913
 20
-76.509035
 30
0.0
 10
34.700033
 20
-76.685595
 30
0.0
 10
35.678163
 20
-77.180905
 30
0.0
 10
36.600033
 20
-77.873095
 30
0.0
 10
39.400033
 20
-80.673095
 30
0.0
 10
42.643783
 20
-83.802785
 30
0.0
 10
45.775033
 20
-87.035595
 30
0.0
 10
51.700034
 20
-93.773095
 30
0.0
 10
52.800034
 20
-94.773095
 30
0.0
 10
53.596134
 20
-95.237545
 30
0.0
 10
54.331284
 20
-95.507465
 30
0.0
 10
55.000814
 20
-95.585165
 30
0.0
 10
55.600034
 20
-95.473055
 30
0.0
 10
56.124254
 20
-95.173445
 30
0.0
 10
56.568784
 20
-94.688675
 30
0.0
 10
56.928944
 20
-94.021105
 30
0.0
 10
57.200034
 20
-93.173055
 30
0.0
 10
57.425034
 20
-91.460555
 30
0.0
 10
57.500034
 20
-89.673055
 30
0.0
 10
57.787534
 20
-85.360555
 30
0.0
 10
57.823434
 20
-83.190245
 30
0.0
 10
57.699994
 20
-80.973055
 30
0.0
 10
57.649994
 20
-79.623055
 30
0.0
 10
57.749994
 20
-78.273055
 30
0.0
 10
58.099994
 20
-75.573055
 30
0.0
 10
58.099994
 20
-75.373055
 30
0.0
 10
58.589054
 20
-74.038675
 30
0.0
 10
59.387494
 20
-72.948055
 30
0.0
 10
60.392184
 20
-72.194925
 30
0.0
 10
61.499994
 20
-71.873055
 30
0.0
 10
62.654684
 20
-72.063675
 30
0.0
 10
63.762494
 20
-72.723055
 30
0.0
 10
64.664054
 20
-73.757425
 30
0.0
 10
65.199994
 20
-75.073055
 30
0.0
 10
65.549994
 20
-78.023055
 30
0.0
 10
65.599994
 20
-80.973055
 30
0.0
 10
65.499994
 20
-86.973055
 30
0.0
 10
65.199994
 20
-94.173055
 30
0.0
 10
65.349994
 20
-98.023055
 30
0.0
 10
65.499994
 20
-101.873055
 30
0.0
 10
65.374994
 20
-106.723055
 30
0.0
 10
65.099994
 20
-111.573055
 30
0.0
 10
64.999994
 20
-112.573055
 30
0.0
 10
64.716204
 20
-113.462705
 30
0.0
 10
64.323434
 20
-114.177745
 30
0.0
 10
63.834564
 20
-114.712315
 30
0.0
 10
63.262494
 20
-115.060555
 30
0.0
 10
62.620114
 20
-115.216605
 30
0.0
 10
61.920304
 20
-115.174605
 30
0.0
 10
61.175974
 20
-114.928705
 30
0.0
 10
60.399994
 20
-114.473045
 30
0.0
 10
58.074994
 20
-112.598045
 30
0.0
 10
55.899994
 20
-110.573045
 30
0.0
 10
52.849994
 20
-107.310545
 30
0.0
 10
49.799993
 20
-103.973045
 30
0.0
 10
46.887493
 20
-101.085545
 30
0.0
 10
43.899993
 20
-98.273045
 30
0.0
 10
43.037493
 20
-97.612105
 30
0.0
 10
42.099993
 20
-97.185545
 30
0.0
 10
41.087493
 20
-97.077735
 30
0.0
 10
39.999993
 20
-97.373045
 30
0.0
 10
39.101553
 20
-98.033985
 30
0.0
 10
38.587493
 20
-98.910545
 30
0.0
 10
38.354683
 20
-99.918355
 30
0.0
 10
38.299983
 20
-100.973045
 30
0.0
 10
38.199983
 20
-108.973045
 30
0.0
 10
38.012483
 20
-110.460545
 30
0.0
 10
37.599983
 20
-111.873045
 30
0.0
 10
36.934363
 20
-113.182415
 30
0.0
 10
36.024983
 20
-114.098045
 30
0.0
 10
34.928113
 20
-114.601165
 30
0.0
 10
33.699983
 20
-114.673065
 30
0.0
 10
32.395293
 20
-114.319935
 30
0.0
 10
31.362483
 20
-113.573065
 30
0.0
 10
30.648423
 20
-112.451185
 30
0.0
 10
30.299983
 20
-110.973065
 30
0.0
 10
30.199983
 20
-104.773065
 30
0.0
 10
30.199983
 20
-101.073065
 30
0.0
 10
29.999983
 20
-100.873065
 30
0.0
 10
29.999983
 20
-100.873065
 30
0.0
  0
LWPOLYLINE
  5
119
100
AcDbEntity
  8
Layer_1
 62
7
100
AcDbPolyline
 90
83
 70
0
 10
-37.600019
 20
-84.673095
 30
0.0
 10
-36.900019
 20
-76.973095
 30
0.0
 10
-36.498459
 20
-75.627785
 30
0.0
 10
-35.787519
 20
-74.610595
 30
0.0
 10
-34.832829
 20
-73.949655
 30
0.0
 10
-33.700019
 20
-73.673095
 30
0.0
 10
-32.585959
 20
-73.815285
 30
0.0
 10
-31.537519
 20
-74.360595
 30
0.0
 10
-30.620329
 20
-75.262155
 30
0.0
 10
-29.900019
 20
-76.473095
 30
0.0
 10
-29.456269
 20
-77.915285
 30
0.0
 10
-29.275019
 20
-79.385595
 30
0.0
 10
-29.400019
 20
-82.373095
 30
0.0
 10
-29.525019
 20
-84.610595
 30
0.0
 10
-29.500019
 20
-86.773095
 30
0.0
 10
-29.398459
 20
-91.944965
 30
0.0
 10
-29.437559
 20
-97.098095
 30
0.0
 10
-29.600639
 20
-99.661765
 30
0.0
 10
-29.907869
 20
-102.213715
 30
0.0
 10
-30.395569
 20
-104.751605
 30
0.0
 10
-31.100059
 20
-107.273095
 30
0.0
 10
-31.648689
 20
-108.744575
 30
0.0
 10
-32.320369
 20
-110.082465
 30
0.0
 10
-33.116269
 20
-111.284425
 30
0.0
 10
-34.037559
 20
-112.348095
 30
0.0
 10
-35.085409
 20
-113.271145
 30
0.0
 10
-36.260999
 20
-114.051215
 30
0.0
 10
-37.565489
 20
-114.685985
 30
0.0
 10
-39.000059
 20
-115.173095
 30
0.0
 10
-43.487559
 20
-116.248095
 30
0.0
 10
-45.728959
 20
-116.600435
 30
0.0
 10
-47.975059
 20
-116.798095
 30
0.0
 10
-50.230529
 20
-116.817595
 30
0.0
 10
-52.500060
 20
-116.635565
 30
0.0
 10
-54.788340
 20
-116.228535
 30
0.0
 10
-57.100060
 20
-115.573065
 30
0.0
 10
-59.289710
 20
-114.695135
 30
0.0
 10
-61.211000
 20
-113.630875
 30
0.0
 10
-62.867440
 20
-112.372085
 30
0.0
 10
-64.262560
 20
-110.910565
 30
0.0
 10
-65.399860
 20
-109.238105
 30
0.0
 10
-66.282870
 20
-107.346505
 30
0.0
 10
-66.915100
 20
-105.227555
 30
0.0
 10
-67.300060
 20
-102.873065
 30
0.0
 10
-67.478180
 20
-98.990255
 30
0.0
 10
-67.375060
 20
-95.135565
 30
0.0
 10
-67.000060
 20
-87.473065
 30
0.0
 10
-66.900060
 20
-78.973065
 30
0.0
 10
-66.712560
 20
-76.735565
 30
0.0
 10
-66.300060
 20
-74.573065
 30
0.0
 10
-65.734430
 20
-73.248065
 30
0.0
 10
-64.850060
 20
-72.298065
 30
0.0
 10
-63.740680
 20
-71.760565
 30
0.0
 10
-62.500060
 20
-71.673065
 30
0.0
 10
-61.262560
 20
-71.977755
 30
0.0
 10
-60.175060
 20
-72.685565
 30
0.0
 10
-59.350060
 20
-73.712125
 30
0.0
 10
-58.900060
 20
-74.973065
 30
0.0
 10
-58.550060
 20
-76.923065
 30
0.0
 10
-58.500060
 20
-78.873065
 30
0.0
 10
-58.737560
 20
-85.473065
 30
0.0
 10
-58.900060
 20
-92.073065
 30
0.0
 10
-58.550060
 20
-97.523065
 30
0.0
 10
-57.900060
 20
-102.973065
 30
0.0
 10
-57.400060
 20
-104.598065
 30
0.0
 10
-56.525060
 20
-105.998065
 30
0.0
 10
-55.312560
 20
-107.135565
 30
0.0
 10
-53.800060
 20
-107.973065
 30
0.0
 10
-51.098500
 20
-108.859005
 30
0.0
 10
-48.387559
 20
-109.210565
 30
0.0
 10
-47.025639
 20
-109.159565
 30
0.0
 10
-45.657869
 20
-108.943355
 30
0.0
 10
-44.283069
 20
-108.551365
 30
0.0
 10
-42.900059
 20
-107.973045
 30
0.0
 10
-41.384429
 20
-107.033985
 30
0.0
 10
-40.150059
 20
-105.860545
 30
0.0
 10
-39.215679
 20
-104.443355
 30
0.0
 10
-38.600059
 20
-102.773045
 30
0.0
 10
-38.237559
 20
-101.073045
 30
0.0
 10
-38.100059
 20
-99.373045
 30
0.0
 10
-37.500059
 20
-84.673045
 30
0.0
 10
-37.600059
 20
-84.673045
 30
0.0
 10
-37.600059
 20
-84.673045
 30
0.0
  0
LWPOLYLINE
  5
11a
100
AcDbEntity
  8
Layer_1
 62
7
100
AcDbPolyline
 90
81
 70
0
 10
-9.700018
 20
-81.773095
 30
0.0
 10
-12.300018
 20
-81.560595
 30
0.0
 10
-14.900018
 20
-81.273095
 30
0.0
 10
-16.226578
 20
-80.798095
 30
0.0
 10
-17.187518
 20
-80.023095
 30
0.0
 10
-17.754709
 20
-79.023095
 30
0.0
 10
-17.900018
 20
-77.873095
 30
0.0
 10
-17.623458
 20
-76.685595
 30
0.0
 10
-16.962518
 20
-75.723095
 30
0.0
 10
-15.945328
 20
-75.060595
 30
0.0
 10
-14.600018
 20
-74.773095
 30
0.0
 10
-9.150018
 20
-74.648095
 30
0.0
 10
-3.700018
 20
-74.673095
 30
0.0
 10
7.299982
 20
-74.673095
 30
0.0
 10
8.649982
 20
-74.698095
 30
0.0
 10
9.999982
 20
-74.873095
 30
0.0
 10
11.531232
 20
-75.523095
 30
0.0
 10
12.088262
 20
-75.991065
 30
0.0
 10
12.499982
 20
-76.548095
 30
0.0
 10
12.761702
 20
-77.189495
 30
0.0
 10
12.868732
 20
-77.910595
 30
0.0
 10
12.816432
 20
-78.706685
 30
0.0
 10
12.600022
 20
-79.573095
 30
0.0
 10
12.012522
 20
-80.923095
 30
0.0
 10
11.200022
 20
-82.273095
 30
0.0
 10
-0.699978
 20
-99.473095
 30
0.0
 10
-2.599978
 20
-102.473095
 30
0.0
 10
-2.927708
 20
-103.216845
 30
0.0
 10
-3.084348
 20
-103.998095
 30
0.0
 10
-3.067548
 20
-104.779345
 30
0.0
 10
-2.874968
 20
-105.523095
 30
0.0
 10
-2.504258
 20
-106.191845
 30
0.0
 10
-1.953088
 20
-106.748095
 30
0.0
 10
-1.219108
 20
-107.154345
 30
0.0
 10
-0.299968
 20
-107.373095
 30
0.0
 10
2.300032
 20
-107.548095
 30
0.0
 10
4.900032
 20
-107.573095
 30
0.0
 10
7.750032
 20
-107.485595
 30
0.0
 10
10.600032
 20
-107.473095
 30
0.0
 10
12.150032
 20
-107.810595
 30
0.0
 10
13.700032
 20
-108.373095
 30
0.0
 10
14.462532
 20
-108.809035
 30
0.0
 10
15.075032
 20
-109.385595
 30
0.0
 10
15.500032
 20
-110.130905
 30
0.0
 10
15.700032
 20
-111.073095
 30
0.0
 10
15.571912
 20
-112.046535
 30
0.0
 10
15.200032
 20
-112.860595
 30
0.0
 10
14.603162
 20
-113.505905
 30
0.0
 10
13.800032
 20
-113.973095
 30
0.0
 10
12.250032
 20
-114.473095
 30
0.0
 10
10.700032
 20
-114.673095
 30
0.0
 10
-0.999968
 20
-114.373095
 30
0.0
 10
-4.949968
 20
-114.635595
 30
0.0
 10
-8.899968
 20
-114.973095
 30
0.0
 10
-12.249968
 20
-115.010595
 30
0.0
 10
-15.599968
 20
-114.673095
 30
0.0
 10
-16.514618
 20
-114.401415
 30
0.0
 10
-17.235908
 20
-114.037155
 30
0.0
 10
-17.767348
 20
-113.581495
 30
0.0
 10
-18.112468
 20
-113.035595
 30
0.0
 10
-18.274768
 20
-112.400635
 30
0.0
 10
-18.257768
 20
-111.677785
 30
0.0
 10
-17.699958
 20
-109.973095
 30
0.0
 10
-15.687458
 20
-106.560595
 30
0.0
 10
-13.299958
 20
-103.373095
 30
0.0
 10
-11.432768
 20
-101.055905
 30
0.0
 10
-9.687458
 20
-98.635595
 30
0.0
 10
-6.299958
 20
-93.673095
 30
0.0
 10
-4.099958
 20
-90.673095
 30
0.0
 10
-2.499958
 20
-88.373095
 30
0.0
 10
-1.772608
 20
-86.977785
 30
0.0
 10
-1.387458
 20
-85.723095
 30
0.0
 10
-1.339758
 20
-84.618405
 30
0.0
 10
-1.624918
 20
-83.673095
 30
0.0
 10
-2.238198
 20
-82.896535
 30
0.0
 10
-3.174918
 20
-82.298095
 30
0.0
 10
-4.430388
 20
-81.887155
 30
0.0
 10
-5.999918
 20
-81.673095
 30
0.0
 10
-9.699918
 20
-81.673095
 30
0.0
 10
-9.699918
 20
-81.773095
 30
0.0
 10
-9.699918
 20
-81.773095
 30
0.0
  0
LWPOLYLINE
  5
11b
100
AcDbEntity
  8
Layer_1
 62
7
100
AcDbPolyline
 90
64
 70
0
 10
-101.400021
 20
-7.873105
 30
0.0
 10
-101.334621
 20
-4.720755
 30
0.0
 10
-100.932861
 20
-1.704355
 30
0.0
 10
-100.224071
 20
1.190175
 30
0.0
 10
-99.237551
 20
3.976895
 30
0.0
 10
-98.002591
 20
6.669865
 30
0.0
 10
-96.548491
 20
9.283145
 30
0.0
 10
-94.904541
 20
11.830805
 30
0.0
 10
-93.100051
 20
14.326895
 30
0.0
 10
-90.943801
 20
16.845645
 30
0.0
 10
-88.525051
 20
19.026895
 30
0.0
 10
-85.843801
 20
20.908145
 30
0.0
 10
-82.900050
 20
22.526895
 30
0.0
 10
-81.099660
 20
23.307955
 30
0.0
 10
-79.296920
 20
23.862835
 30
0.0
 10
-77.489500
 20
24.209125
 30
0.0
 10
-75.675050
 20
24.364395
 30
0.0
 10
-73.851220
 20
24.346195
 30
0.0
 10
-72.015670
 20
24.172165
 30
0.0
 10
-68.300050
 20
23.426855
 30
0.0
 10
-66.630320
 20
22.931935
 30
0.0
 10
-65.067240
 20
22.279985
 30
0.0
 10
-63.604930
 20
21.482715
 30
0.0
 10
-62.237550
 20
20.551855
 30
0.0
 10
-59.764110
 20
18.336235
 30
0.0
 10
-57.600050
 20
15.726855
 30
0.0
 10
-56.225630
 20
13.711035
 30
0.0
 10
-55.023490
 20
11.637795
 30
0.0
 10
-53.987740
 20
9.505955
 30
0.0
 10
-53.112550
 20
7.314355
 30
0.0
 10
-52.392040
 20
5.061815
 30
0.0
 10
-51.820360
 20
2.747165
 30
0.0
 10
-51.100050
 20
-2.073145
 30
0.0
 10
-50.909420
 20
-6.521585
 30
0.0
 10
-51.225050
 20
-10.885645
 30
0.0
 10
-52.028170
 20
-15.193455
 30
0.0
 10
-53.300050
 20
-19.473145
 30
0.0
 10
-55.200050
 20
-25.873145
 30
0.0
 10
-56.095360
 20
-27.880955
 30
0.0
 10
-57.262550
 20
-29.710645
 30
0.0
 10
-58.673490
 20
-31.371585
 30
0.0
 10
-60.300050
 20
-32.873145
 30
0.0
 10
-62.635990
 20
-34.638765
 30
0.0
 10
-65.037550
 20
-36.273145
 30
0.0
 10
-67.570360
 20
-37.682515
 30
0.0
 10
-70.300050
 20
-38.773145
 30
0.0
 10
-72.801610
 20
-39.366895
 30
0.0
 10
-75.237550
 20
-39.548145
 30
0.0
 10
-77.654740
 20
-39.391895
 30
0.0
 10
-80.100050
 20
-38.973145
 30
0.0
 10
-82.720950
 20
-38.257125
 30
0.0
 10
-85.185991
 20
-37.313765
 30
0.0
 10
-87.498681
 20
-36.150095
 30
0.0
 10
-89.662551
 20
-34.773145
 30
0.0
 10
-91.681101
 20
-33.189945
 30
0.0
 10
-93.557861
 20
-31.407515
 30
0.0
 10
-95.296341
 20
-29.432905
 30
0.0
 10
-96.900051
 20
-27.273145
 30
0.0
 10
-98.435991
 20
-24.576265
 30
0.0
 10
-99.512551
 20
-21.748145
 30
0.0
 10
-100.232861
 20
-18.807515
 30
0.0
 10
-100.700051
 20
-15.773145
 30
0.0
 10
-101.400051
 20
-7.873145
 30
0.0
 10
-101.400051
 20
-7.873145
 30
0.0
  0
LWPOLYLINE
  5
11c
100
AcDbEntity
  8
Layer_1
 62
7
100
AcDbPolyline
 90
57
 70
0
 10
-61.000050
 20
-7.373145
 30
0.0
 10
-61.362550
 20
-3.523145
 30
0.0
 10
-61.800050
 20
0.326855
 30
0.0
 10
-62.475050
 20
3.408105
 30
0.0
 10
-63.525050
 20
6.301855
 30
0.0
 10
-64.225830
 20
7.654985
 30
0.0
 10
-65.062550
 20
8.933105
 30
0.0
 10
-66.049270
 20
10.126855
 30
0.0
 10
-67.200050
 20
11.226855
 30
0.0
 10
-69.123490
 20
12.740915
 30
0.0
 10
-71.187550
 20
13.889355
 30
0.0
 10
-72.292820
 20
14.282525
 30
0.0
 10
-73.457860
 20
14.531545
 30
0.0
 10
-74.690870
 20
14.618845
 30
0.0
 10
-76.000050
 20
14.526845
 30
0.0
 10
-78.271140
 20
14.005165
 30
0.0
 10
-80.293800
 20
13.203405
 30
0.0
 10
-82.082080
 20
12.141495
 30
0.0
 10
-83.650050
 20
10.839345
 30
0.0
 10
-85.011771
 20
9.316885
 30
0.0
 10
-86.181301
 20
7.594035
 30
0.0
 10
-87.172701
 20
5.690715
 30
0.0
 10
-88.000051
 20
3.626845
 30
0.0
 10
-88.979741
 20
0.829975
 30
0.0
 10
-89.837551
 20
-2.023155
 30
0.0
 10
-90.376611
 20
-4.951275
 30
0.0
 10
-90.465111
 20
-6.449325
 30
0.0
 10
-90.400111
 20
-7.973155
 30
0.0
 10
-90.300111
 20
-11.873155
 30
0.0
 10
-90.225711
 20
-13.724715
 30
0.0
 10
-90.004821
 20
-15.529405
 30
0.0
 10
-89.137631
 20
-18.998155
 30
0.0
 10
-87.726691
 20
-22.279405
 30
0.0
 10
-85.800131
 20
-25.373155
 30
0.0
 10
-84.883141
 20
-26.489365
 30
0.0
 10
-83.864190
 20
-27.440345
 30
0.0
 10
-82.753840
 20
-28.229595
 30
0.0
 10
-81.562630
 20
-28.860655
 30
0.0
 10
-80.301100
 20
-29.337025
 30
0.0
 10
-78.979820
 20
-29.662215
 30
0.0
 10
-76.200130
 20
-29.873155
 30
0.0
 10
-74.513410
 20
-29.700695
 30
0.0
 10
-72.906380
 20
-29.337215
 30
0.0
 10
-71.383720
 20
-28.788585
 30
0.0
 10
-69.950130
 20
-28.060655
 30
0.0
 10
-68.610280
 20
-27.159285
 30
0.0
 10
-67.368880
 20
-26.090345
 30
0.0
 10
-66.230600
 20
-24.859675
 30
0.0
 10
-65.200130
 20
-23.473155
 30
0.0
 10
-64.121420
 20
-21.641125
 30
0.0
 10
-63.207940
 20
-19.748155
 30
0.0
 10
-62.456180
 20
-17.798935
 30
0.0
 10
-61.862630
 20
-15.798155
 30
0.0
 10
-61.423760
 20
-13.750495
 30
0.0
 10
-61.136070
 20
-11.660655
 30
0.0
 10
-61.000130
 20
-7.373155
 30
0.0
 10
-61.000130
 20
-7.373155
 30
0.0
  0
LWPOLYLINE
  5
11d
100
AcDbEntity
  8
Layer_1
 62
7
100
AcDbPolyline
 90
111
 70
0
 10
67.099984
 20
-18.873105
 30
0.0
 10
67.599984
 20
-2.473105
 30
0.0
 10
67.299984
 20
1.726895
 30
0.0
 10
67.299984
 20
17.226895
 30
0.0
 10
67.099984
 20
24.726895
 30
0.0
 10
67.199984
 20
26.726895
 30
0.0
 10
67.473814
 20
27.755805
 30
0.0
 10
67.909364
 20
28.658145
 30
0.0
 10
68.490224
 20
29.419865
 30
0.0
 10
69.199984
 20
30.026895
 30
0.0
 10
70.022254
 20
30.465175
 30
0.0
 10
70.940614
 20
30.720645
 30
0.0
 10
71.938654
 20
30.779245
 30
0.0
 10
72.999984
 20
30.626895
 30
0.0
 10
74.706234
 20
30.022205
 30
0.0
 10
76.074984
 20
29.089395
 30
0.0
 10
77.106234
 20
27.800335
 30
0.0
 10
77.799984
 20
26.126895
 30
0.0
 10
78.259364
 20
24.009705
 30
0.0
 10
78.474984
 20
21.864395
 30
0.0
 10
78.399984
 20
17.526895
 30
0.0
 10
77.999984
 20
5.026895
 30
0.0
 10
78.084384
 20
4.080025
 30
0.0
 10
78.375004
 20
3.226895
 30
0.0
 10
78.928128
 20
2.523775
 30
0.0
 10
79.799998
 20
2.026895
 30
0.0
 10
80.812498
 20
1.815955
 30
0.0
 10
81.749998
 20
1.914355
 30
0.0
 10
82.612498
 20
2.294045
 30
0.0
 10
83.399998
 20
2.926855
 30
0.0
 10
85.399998
 20
5.126855
 30
0.0
 10
91.662498
 20
11.564355
 30
0.0
 10
97.999998
 20
17.926855
 30
0.0
 10
99.424998
 20
19.139355
 30
0.0
 10
100.999998
 20
20.126855
 30
0.0
 10
102.157808
 20
20.637795
 30
0.0
 10
103.362498
 20
20.839355
 30
0.0
 10
104.585938
 20
20.759655
 30
0.0
 10
105.799998
 20
20.426845
 30
0.0
 10
106.595308
 20
20.031145
 30
0.0
 10
107.249998
 20
19.529975
 30
0.0
 10
107.754688
 20
18.939735
 30
0.0
 10
108.099998
 20
18.276845
 30
0.0
 10
108.276558
 20
17.557705
 30
0.0
 10
108.274558
 20
16.798725
 30
0.0
 10
108.085498
 20
16.016295
 30
0.0
 10
107.699558
 20
15.226845
 30
0.0
 10
105.662058
 20
12.214345
 30
0.0
 10
103.399558
 20
9.426845
 30
0.0
 10
99.874558
 20
6.089345
 30
0.0
 10
96.199558
 20
2.826845
 30
0.0
 10
95.799558
 20
2.526845
 30
0.0
 10
94.740768
 20
1.490905
 30
0.0
 10
93.891748
 20
0.408095
 30
0.0
 10
93.256008
 20
-0.721595
 30
0.0
 10
92.837058
 20
-1.898155
 30
0.0
 10
92.638428
 20
-3.121595
 30
0.0
 10
92.663628
 20
-4.391905
 30
0.0
 10
92.916168
 20
-5.709095
 30
0.0
 10
93.399568
 20
-7.073155
 30
0.0
 10
95.837068
 20
-11.960655
 30
0.0
 10
98.499568
 20
-16.773155
 30
0.0
 10
105.599568
 20
-29.373155
 30
0.0
 10
105.699568
 20
-29.573155
 30
0.0
 10
106.394878
 20
-31.460655
 30
0.0
 10
106.537068
 20
-32.973155
 30
0.0
 10
106.135508
 20
-34.185655
 30
0.0
 10
105.199568
 20
-35.173155
 30
0.0
 10
104.431408
 20
-35.631555
 30
0.0
 10
103.573008
 20
-35.952845
 30
0.0
 10
102.656018
 20
-36.131165
 30
0.0
 10
101.712068
 20
-36.160665
 30
0.0
 10
100.772808
 20
-36.035465
 30
0.0
 10
99.869878
 20
-35.749725
 30
0.0
 10
99.034918
 20
-35.297575
 30
0.0
 10
98.299568
 20
-34.673165
 30
0.0
 10
95.499568
 20
-31.523165
 30
0.0
 10
92.999568
 20
-28.073165
 30
0.0
 10
90.724568
 20
-24.060665
 30
0.0
 10
88.599568
 20
-19.973165
 30
0.0
 10
87.424568
 20
-18.085665
 30
0.0
 10
86.099568
 20
-16.273165
 30
0.0
 10
85.099568
 20
-15.173165
 30
0.0
 10
83.994878
 20
-14.252855
 30
0.0
 10
82.787068
 20
-13.735665
 30
0.0
 10
81.485508
 20
-13.612225
 30
0.0
 10
80.099568
 20
-13.873165
 30
0.0
 10
78.891758
 20
-14.555975
 30
0.0
 10
78.087074
 20
-15.510665
 30
0.0
 10
77.638634
 20
-16.671605
 30
0.0
 10
77.499574
 20
-17.973165
 30
0.0
 10
77.499574
 20
-29.673165
 30
0.0
 10
77.337074
 20
-32.523165
 30
0.0
 10
76.799574
 20
-35.373165
 30
0.0
 10
76.341764
 20
-36.547965
 30
0.0
 10
75.668324
 20
-37.515355
 30
0.0
 10
74.816764
 20
-38.264765
 30
0.0
 10
73.824574
 20
-38.785665
 30
0.0
 10
72.729264
 20
-39.067495
 30
0.0
 10
71.568324
 20
-39.099695
 30
0.0
 10
70.379264
 20
-38.871765
 30
0.0
 10
69.199574
 20
-38.373135
 30
0.0
 10
68.165204
 20
-37.591885
 30
0.0
 10
67.449574
 20
-36.623135
 30
0.0
 10
67.033954
 20
-35.504385
 30
0.0
 10
66.899574
 20
-34.273135
 30
0.0
 10
66.899574
 20
-23.073135
 30
0.0
 10
67.149574
 20
-20.973135
 30
0.0
 10
67.099574
 20
-18.873135
 30
0.0
 10
67.099574
 20
-18.873135
 30
0.0
 10
67.099574
 20
-18.873135
 30
0.0
  0
LWPOLYLINE
  5
11e
100
AcDbEntity
  8
Layer_1
 62
7
100
AcDbPolyline
 90
83
 70
0
 10
-26.900019
 20
36.726895
 30
0.0
 10
-24.594549
 20
36.688395
 30
0.0
 10
-22.331269
 20
36.494065
 30
0.0
 10
-20.114859
 20
36.138005
 30
0.0
 10
-17.950018
 20
35.614375
 30
0.0
 10
-15.841419
 20
34.917305
 30
0.0
 10
-13.793768
 20
34.040935
 30
0.0
 10
-11.811738
 20
32.979415
 30
0.0
 10
-9.900018
 20
31.726875
 30
0.0
 10
-8.277168
 20
30.420435
 30
0.0
 10
-6.854708
 20
28.981565
 30
0.0
 10
-5.626778
 20
27.418475
 30
0.0
 10
-4.587518
 20
25.739375
 30
0.0
 10
-3.731068
 20
23.952465
 30
0.0
 10
-3.051578
 20
22.065935
 30
0.0
 10
-2.543178
 20
20.088005
 30
0.0
 10
-2.200018
 20
18.026875
 30
0.0
 10
-2.031658
 20
15.875705
 30
0.0
 10
-2.053158
 20
13.773755
 30
0.0
 10
-2.266828
 20
11.723365
 30
0.0
 10
-2.675038
 20
9.726875
 30
0.0
 10
-3.280118
 20
7.786645
 30
0.0
 10
-4.084408
 20
5.905005
 30
0.0
 10
-5.090268
 20
4.084295
 30
0.0
 10
-6.300038
 20
2.326875
 30
0.0
 10
-8.099838
 20
0.139185
 30
0.0
 10
-10.048478
 20
-1.843435
 30
0.0
 10
-12.144758
 20
-3.612775
 30
0.0
 10
-14.387538
 20
-5.160625
 30
0.0
 10
-16.775618
 20
-6.478785
 30
0.0
 10
-19.307849
 20
-7.559065
 30
0.0
 10
-21.983049
 20
-8.393245
 30
0.0
 10
-24.800039
 20
-8.973125
 30
0.0
 10
-26.198079
 20
-9.281525
 30
0.0
 10
-27.396909
 20
-9.752815
 30
0.0
 10
-28.403549
 20
-10.381135
 30
0.0
 10
-29.225039
 20
-11.160625
 30
0.0
 10
-29.868399
 20
-12.085425
 30
0.0
 10
-30.340659
 20
-13.149685
 30
0.0
 10
-30.648869
 20
-14.347535
 30
0.0
 10
-30.800039
 20
-15.673125
 30
0.0
 10
-31.000039
 20
-23.173125
 30
0.0
 10
-31.400039
 20
-35.373125
 30
0.0
 10
-31.600039
 20
-37.073125
 30
0.0
 10
-32.137539
 20
-38.979375
 30
0.0
 10
-32.542229
 20
-39.688745
 30
0.0
 10
-33.050039
 20
-40.248125
 30
0.0
 10
-33.670349
 20
-40.666875
 30
0.0
 10
-34.412539
 20
-40.954375
 30
0.0
 10
-36.300039
 20
-41.173125
 30
0.0
 10
-38.307849
 20
-40.894995
 30
0.0
 10
-39.167029
 20
-40.550855
 30
0.0
 10
-39.912539
 20
-40.073125
 30
0.0
 10
-40.531479
 20
-39.464135
 30
0.0
 10
-41.010979
 20
-38.726245
 30
0.0
 10
-41.338119
 20
-37.861795
 30
0.0
 10
-41.500039
 20
-36.873125
 30
0.0
 10
-41.714099
 20
-32.807495
 30
0.0
 10
-41.712099
 20
-28.723125
 30
0.0
 10
-41.429289
 20
-24.638745
 30
0.0
 10
-40.799599
 20
-20.573125
 30
0.0
 10
-40.560539
 20
-18.649685
 30
0.0
 10
-40.537139
 20
-16.660625
 30
0.0
 10
-40.799639
 20
-12.673125
 30
0.0
 10
-41.187139
 20
-9.110625
 30
0.0
 10
-41.291829
 20
-7.315315
 30
0.0
 10
-41.199629
 20
-5.473125
 30
0.0
 10
-41.119929
 20
-3.432495
 30
0.0
 10
-41.237119
 20
-1.373125
 30
0.0
 10
-41.499619
 20
2.726875
 30
0.0
 10
-41.474619
 20
15.476875
 30
0.0
 10
-41.299619
 20
28.226875
 30
0.0
 10
-41.190049
 20
29.685075
 30
0.0
 10
-40.929309
 20
30.986255
 30
0.0
 10
-40.506839
 20
32.132735
 30
0.0
 10
-39.912119
 20
33.126875
 30
0.0
 10
-39.134579
 20
33.971015
 30
0.0
 10
-38.163679
 20
34.667505
 30
0.0
 10
-36.988879
 20
35.218675
 30
0.0
 10
-35.599619
 20
35.626875
 30
0.0
 10
-31.249619
 20
36.214375
 30
0.0
 10
-26.899619
 20
36.726875
 30
0.0
 10
-26.899619
 20
36.726875
 30
0.0
  0
LWPOLYLINE
  5
11f
100
AcDbEntity
  8
Layer_1
 62
7
100
AcDbPolyline
 90
40
 70
0
 10
-31.899619
 20
11.826875
 30
0.0
 10
-31.299619
 20
5.326875
 30
0.0
 10
-30.862119
 20
3.612815
 30
0.0
 10
-30.049619
 20
2.264375
 30
0.0
 10
-28.937119
 20
1.347185
 30
0.0
 10
-27.599619
 20
0.926875
 30
0.0
 10
-25.899029
 20
0.832575
 30
0.0
 10
-24.251179
 20
0.922175
 30
0.0
 10
-22.661919
 20
1.192295
 30
0.0
 10
-21.137119
 20
1.639365
 30
0.0
 10
-19.682629
 20
2.259875
 30
0.0
 10
-18.304308
 20
3.050305
 30
0.0
 10
-17.008018
 20
4.007135
 30
0.0
 10
-15.799618
 20
5.126865
 30
0.0
 10
-14.558988
 20
6.485265
 30
0.0
 10
-13.543368
 20
7.931555
 30
0.0
 10
-12.762118
 20
9.459875
 30
0.0
 10
-12.224618
 20
11.064365
 30
0.0
 10
-11.940238
 20
12.739175
 30
0.0
 10
-11.918338
 20
14.478425
 30
0.0
 10
-12.168338
 20
16.276285
 30
0.0
 10
-12.699588
 20
18.126865
 30
0.0
 10
-13.475168
 20
19.919835
 30
0.0
 10
-14.441778
 20
21.483115
 30
0.0
 10
-15.584158
 20
22.830775
 30
0.0
 10
-16.887088
 20
23.976865
 30
0.0
 10
-18.335328
 20
24.935465
 30
0.0
 10
-19.913649
 20
25.720615
 30
0.0
 10
-21.606809
 20
26.346395
 30
0.0
 10
-23.399589
 20
26.826865
 30
0.0
 10
-25.039239
 20
27.053815
 30
0.0
 10
-26.504279
 20
26.992515
 30
0.0
 10
-27.788849
 20
26.654625
 30
0.0
 10
-28.887089
 20
26.051885
 30
0.0
 10
-29.793139
 20
25.196025
 30
0.0
 10
-30.501149
 20
24.098765
 30
0.0
 10
-31.005249
 20
22.771805
 30
0.0
 10
-31.299589
 20
21.226885
 30
0.0
 10
-31.899589
 20
11.826885
 30
0.0
 10
-31.899589
 20
11.826885
 30
0.0
  0
LWPOLYLINE
  5
120
100
AcDbEntity
  8
Layer_1
 62
7
100
AcDbPolyline
 90
76
 70
0
 10
10.099982
 20
-25.173105
 30
0.0
 10
10.099982
 20
-16.973105
 30
0.0
 10
9.799982
 20
-11.273105
 30
0.0
 10
10.099982
 20
-4.573105
 30
0.0
 10
10.437482
 20
-0.410605
 30
0.0
 10
10.535882
 20
1.684705
 30
0.0
 10
10.399942
 20
3.826895
 30
0.0
 10
10.215572
 20
5.794085
 30
0.0
 10
10.199972
 20
7.789395
 30
0.0
 10
10.299972
 20
11.826895
 30
0.0
 10
10.099972
 20
23.026895
 30
0.0
 10
9.962472
 20
24.664395
 30
0.0
 10
9.599972
 20
26.226895
 30
0.0
 10
9.017162
 20
27.590955
 30
0.0
 10
8.162472
 20
28.664395
 30
0.0
 10
7.026532
 20
29.419085
 30
0.0
 10
5.599972
 20
29.826895
 30
0.0
 10
3.399972
 20
30.226895
 30
0.0
 10
1.924972
 20
30.601895
 30
0.0
 10
0.599972
 20
31.126895
 30
0.0
 10
-0.475028
 20
31.940955
 30
0.0
 10
-1.175028
 20
32.989395
 30
0.0
 10
-1.537528
 20
34.206585
 30
0.0
 10
-1.600028
 20
35.526895
 30
0.0
 10
-1.329718
 20
36.703455
 30
0.0
 10
-0.712528
 20
37.664395
 30
0.0
 10
0.185912
 20
38.381585
 30
0.0
 10
1.299972
 20
38.826895
 30
0.0
 10
2.399972
 20
39.101895
 30
0.0
 10
3.499972
 20
39.226895
 30
0.0
 10
11.349972
 20
39.551895
 30
0.0
 10
19.199973
 20
39.726895
 30
0.0
 10
21.748413
 20
39.640995
 30
0.0
 10
24.287473
 20
39.414435
 30
0.0
 10
29.299973
 20
38.726935
 30
0.0
 10
30.662473
 20
38.308185
 30
0.0
 10
31.724973
 20
37.551935
 30
0.0
 10
32.449973
 20
36.533185
 30
0.0
 10
32.799973
 20
35.326935
 30
0.0
 10
32.671853
 20
33.967565
 30
0.0
 10
32.149973
 20
32.776935
 30
0.0
 10
31.253103
 20
31.811315
 30
0.0
 10
29.999973
 20
31.126935
 30
0.0
 10
28.687473
 20
30.801935
 30
0.0
 10
27.299973
 20
30.626935
 30
0.0
 10
25.827903
 20
30.354865
 30
0.0
 10
24.560913
 20
29.912875
 30
0.0
 10
23.497823
 20
29.299785
 30
0.0
 10
22.637473
 20
28.514435
 30
0.0
 10
21.978683
 20
27.555645
 30
0.0
 10
21.520283
 20
26.422245
 30
0.0
 10
21.261103
 20
25.113065
 30
0.0
 10
21.200003
 20
23.626935
 30
0.0
 10
21.200003
 20
23.126935
 30
0.0
 10
21.476563
 20
19.694125
 30
0.0
 10
21.387463
 20
16.289435
 30
0.0
 10
20.899963
 20
9.526935
 30
0.0
 10
20.924963
 20
4.276935
 30
0.0
 10
21.099963
 20
-0.973065
 30
0.0
 10
21.099963
 20
-4.673065
 30
0.0
 10
20.799963
 20
-22.573065
 30
0.0
 10
20.737463
 20
-29.173065
 30
0.0
 10
20.599963
 20
-35.773065
 30
0.0
 10
20.224963
 20
-37.710565
 30
0.0
 10
19.399963
 20
-39.573065
 30
0.0
 10
18.891953
 20
-40.336735
 30
0.0
 10
18.279653
 20
-40.976185
 30
0.0
 10
16.812462
 20
-41.873065
 30
0.0
 10
15.139022
 20
-42.244935
 30
0.0
 10
13.399962
 20
-42.073065
 30
0.0
 10
12.054652
 20
-41.463685
 30
0.0
 10
11.037462
 20
-40.423065
 30
0.0
 10
10.376522
 20
-39.007435
 30
0.0
 10
10.099962
 20
-37.273065
 30
0.0
 10
10.099962
 20
-25.173065
 30
0.0
 10
10.099962
 20
-25.173065
 30
0.0
  0
LWPOLYLINE
  5
121
100
AcDbEntity
  8
Layer_1
 62
7
100
AcDbPolyline
 90
53
 70
0
 10
41.299983
 20
-28.773105
 30
0.0
 10
41.024983
 20
-23.923105
 30
0.0
 10
40.899983
 20
-19.073105
 30
0.0
 10
41.199983
 20
-10.073105
 30
0.0
 10
41.399983
 20
9.826895
 30
0.0
 10
41.549983
 20
13.826895
 30
0.0
 10
41.699983
 20
17.826895
 30
0.0
 10
41.512483
 20
21.289395
 30
0.0
 10
41.399983
 20
24.826895
 30
0.0
 10
41.699983
 20
28.664395
 30
0.0
 10
42.299983
 20
32.426895
 30
0.0
 10
42.628113
 20
33.670645
 30
0.0
 10
43.199983
 20
34.801895
 30
0.0
 10
44.071863
 20
35.745645
 30
0.0
 10
45.299983
 20
36.426895
 30
0.0
 10
46.565223
 20
36.705605
 30
0.0
 10
47.790613
 20
36.725305
 30
0.0
 10
48.945693
 20
36.498935
 30
0.0
 10
49.999983
 20
36.039365
 30
0.0
 10
50.923034
 20
35.359485
 30
0.0
 10
51.684364
 20
34.472175
 30
0.0
 10
52.253504
 20
33.390345
 30
0.0
 10
52.599984
 20
32.126865
 30
0.0
 10
52.762484
 20
30.026865
 30
0.0
 10
52.699984
 20
27.926865
 30
0.0
 10
52.299984
 20
17.026865
 30
0.0
 10
52.599984
 20
11.326865
 30
0.0
 10
52.199984
 20
-1.873135
 30
0.0
 10
52.399984
 20
-8.373135
 30
0.0
 10
52.399984
 20
-15.273135
 30
0.0
 10
52.599984
 20
-19.473135
 30
0.0
 10
52.599984
 20
-34.173135
 30
0.0
 10
52.474984
 20
-35.523135
 30
0.0
 10
52.199984
 20
-36.873135
 30
0.0
 10
51.850764
 20
-37.865515
 30
0.0
 10
51.337484
 20
-38.737195
 30
0.0
 10
50.674204
 20
-39.479965
 30
0.0
 10
49.874983
 20
-40.085635
 30
0.0
 10
48.953893
 20
-40.545985
 30
0.0
 10
47.924983
 20
-40.852825
 30
0.0
 10
46.802333
 20
-40.997935
 30
0.0
 10
45.599983
 20
-40.973135
 30
0.0
 10
44.635533
 20
-40.790905
 30
0.0
 10
43.771863
 20
-40.471575
 30
0.0
 10
43.016003
 20
-40.018645
 30
0.0
 10
42.374983
 20
-39.435635
 30
0.0
 10
41.855843
 20
-38.726065
 30
0.0
 10
41.465613
 20
-37.893445
 30
0.0
 10
41.211313
 20
-36.941295
 30
0.0
 10
41.099983
 20
-35.873135
 30
0.0
 10
41.099983
 20
-28.673135
 30
0.0
 10
41.299983
 20
-28.773135
 30
0.0
 10
41.299983
 20
-28.773135
 30
0.0
  0
ENDSEC
  0
SECTION
  2
OBJECTS
  0
DICTIONARY
  5
C
330
0
100
AcDbDictionary
  3
ACAD_GROUP
350
D
  3
ACAD_MLINESTYLE
350
17
  0
DICTIONARY
  5
D
330
C
100
AcDbDictionary
  0
DICTIONARY
  5
1A
330
C
100
AcDbDictionary
  0
DICTIONARY
  5
17
330
C
100
AcDbDictionary
  3
STANDARD
350
18
  0
DICTIONARY
  5
19
330
C
100
AcDbDictionary
  0
ENDSEC
  0
EOF
