  0
SECTION
  2
HEADER
  9
$ACADVER
  1
AC1014
  9
$HANDSEED
  5
FFFF
  9
$MEASUREMENT
 70
     1
  0
ENDSEC
  0
SECTION
  2
TABLES
  0
TABLE
  2
VPORT
  5
8
330
0
100
AcDbSymbolTable
 70
     4
  0
VPORT
  5
2E
330
8
100
AcDbSymbolTableRecord
100
AcDbViewportTableRecord
  2
*ACTIVE
 70
     0
 10
0.0
 20
0.0
 11
1.0
 21
1.0
 12
210.0
 22
148.5
 13
0.0
 23
0.0
 14
10.0
 24
10.0
 15
10.0
 25
10.0
 16
0.0
 26
0.0
 36
1.0
 17
0.0
 27
0.0
 37
0.0
 40
341.0
 41
1.24
 42
50.0
 43
0.0
 44
0.0
 50
0.0
 51
0.0
 71
     0
 72
   100
 73
     1
 74
     3
 75
     0
 76
     0
 77
     0
 78
     0
  0
ENDTAB
  0
TABLE
  2
LTYPE
  5
5
330
0
100
AcDbSymbolTable
 70
     1
  0
LTYPE
  5
14
330
5
100
AcDbSymbolTableRecord
100
AcDbLinetypeTableRecord
  2
BYBLOCK
 70
     0
  3

 72
    65
 73
     0
 40
0.0
  0
LTYPE
  5
15
330
5
100
AcDbSymbolTableRecord
100
AcDbLinetypeTableRecord
  2
BYLAYER
 70
     0
  3

 72
    65
 73
     0
 40
0.0
  0
LTYPE
  5
16
330
5
100
AcDbSymbolTableRecord
100
AcDbLinetypeTableRecord
  2
CONTINUOUS
 70
     0
  3
Solid line
 72
    65
 73
     0
 40
0.0
  0
ENDTAB
  0
TABLE
  2
LAYER
  5
2
100
AcDbSymbolTable
 70
2
  0
LAYER
  5
50
100
AcDbSymbolTableRecord
100
AcDbLayerTableRecord
  2
0
 70
0
  6
CONTINUOUS
  0
LAYER
  5
51
100
AcDbSymbolTableRecord
100
AcDbLayerTableRecord
  2
Layer_1
 70
0
  6
CONTINUOUS
  0
ENDTAB
  0
TABLE
  2
STYLE
  5
3
330
0
100
AcDbSymbolTable
 70
     1
  0
STYLE
  5
11
330
3
100
AcDbSymbolTableRecord
100
AcDbTextStyleTableRecord
  2
STANDARD
 70
     0
 40
0.0
 41
1.0
 50
0.0
 71
     0
 42
2.5
  3
txt
  4

  0
ENDTAB
  0
TABLE
  2
VIEW
  5
6
330
0
100
AcDbSymbolTable
 70
     0
  0
ENDTAB
  0
TABLE
  2
UCS
  5
7
330
0
100
AcDbSymbolTable
 70
     0
  0
ENDTAB
  0
TABLE
  2
APPID
  5
9
330
0
100
AcDbSymbolTable
 70
     2
  0
APPID
  5
12
330
9
100
AcDbSymbolTableRecord
100
AcDbRegAppTableRecord
  2
ACAD
 70
     0
  0
ENDTAB
  0
TABLE
  2
DIMSTYLE
  5
A
330
0
100
AcDbSymbolTable
 70
     1
  0
DIMSTYLE
105
27
330
A
100
AcDbSymbolTableRecord
100
AcDbDimStyleTableRecord
  2
ISO-25
 70
     0
  3

  4

  5

  6

  7

 40
1.0
 41
2.5
 42
0.625
 43
3.75
 44
1.25
 45
0.0
 46
0.0
 47
0.0
 48
0.0
140
2.5
141
2.5
142
0.0
143
0.03937007874016
144
1.0
145
0.0
146
1.0
147
0.625
 71
     0
 72
     0
 73
     0
 74
     0
 75
     0
 76
     0
 77
     1
 78
     8
170
     0
171
     3
172
     1
173
     0
174
     0
175
     0
176
     0
177
     0
178
     0
270
     2
271
     2
272
     2
273
     2
274
     3
340
11
275
     0
280
     0
281
     0
282
     0
283
     0
284
     8
285
     0
286
     0
287
     3
288
     0
  0
ENDTAB
  0
TABLE
  2
BLOCK_RECORD
  5
1
330
0
100
AcDbSymbolTable
 70
     1
  0
BLOCK_RECORD
  5
1F
330
1
100
AcDbSymbolTableRecord
100
AcDbBlockTableRecord
  2
*MODEL_SPACE
  0
BLOCK_RECORD
  5
1B
330
1
100
AcDbSymbolTableRecord
100
AcDbBlockTableRecord
  2
*PAPER_SPACE
  0
ENDTAB
  0
ENDSEC
  0
SECTION
  2
BLOCKS
  0
BLOCK
  5
20
330
1F
100
AcDbEntity
  8
0
100
AcDbBlockBegin
  2
*MODEL_SPACE
 70
     0
 10
0.0
 20
0.0
 30
0.0
  3
*MODEL_SPACE
  1

  0
ENDBLK
  5
21
330
1F
100
AcDbEntity
  8
0
100
AcDbBlockEnd
  0
BLOCK
  5
1C
330
1B
100
AcDbEntity
 67
     1
  8
0
100
AcDbBlockBegin
  2
*PAPER_SPACE
  1

  0
ENDBLK
  5
1D
330
1B
100
AcDbEntity
 67
     1
  8
0
100
AcDbBlockEnd
  0
ENDSEC
  0
SECTION
  2
ENTITIES
  0
LWPOLYLINE
  5
100
100
AcDbEntity
  8
Layer_1
 62
7
100
AcDbPolyline
 90
200
 70
0
 10
566.167395
 20
519.737212
 30
0.0
 10
565.687395
 20
511.017212
 30
0.0
 10
566.007395
 20
499.017212
 30
0.0
 10
566.007395
 20
497.657212
 30
0.0
 10
566.407395
 20
483.497212
 30
0.0
 10
566.407395
 20
476.537212
 30
0.0
 10
566.407395
 20
452.377212
 30
0.0
 10
566.167395
 20
449.177212
 30
0.0
 10
565.979895
 20
447.950962
 30
0.0
 10
565.447395
 20
446.987212
 30
0.0
 10
564.614895
 20
446.218462
 30
0.0
 10
563.527395
 20
445.577212
 30
0.0
 10
556.657395
 20
442.607212
 30
0.0
 10
549.607395
 20
440.057212
 30
0.0
 10
533.767395
 20
434.057212
 30
0.0
 10
528.087395
 20
432.297212
 30
0.0
 10
518.257395
 20
428.737212
 30
0.0
 10
513.293645
 20
427.077212
 30
0.0
 10
508.247395
 20
425.657212
 30
0.0
 10
506.231145
 20
424.877212
 30
0.0
 10
504.837395
 20
423.617212
 30
0.0
 10
504.028645
 20
421.877212
 30
0.0
 10
503.767395
 20
419.657212
 30
0.0
 10
503.607395
 20
400.697212
 30
0.0
 10
503.767395
 20
393.177212
 30
0.0
 10
503.637395
 20
389.207212
 30
0.0
 10
503.447395
 20
385.177212
 30
0.0
 10
503.687395
 20
379.417212
 30
0.0
 10
503.287395
 20
368.217212
 30
0.0
 10
503.607395
 20
360.857212
 30
0.0
 10
503.367395
 20
351.897212
 30
0.0
 10
503.114895
 20
350.068462
 30
0.0
 10
502.487395
 20
348.427212
 30
0.0
 10
501.499895
 20
346.980962
 30
0.0
 10
500.167395
 20
345.737212
 30
0.0
 10
498.351145
 20
344.119712
 30
0.0
 10
496.677395
 20
342.337212
 30
0.0
 10
493.367395
 20
338.697212
 30
0.0
 10
489.447395
 20
334.777212
 30
0.0
 10
480.247395
 20
325.977212
 30
0.0
 10
475.927395
 20
321.497212
 30
0.0
 10
471.127395
 20
316.937212
 30
0.0
 10
469.206145
 20
315.558462
 30
0.0
 10
467.157395
 20
314.787212
 30
0.0
 10
464.973645
 20
314.630962
 30
0.0
 10
462.647395
 20
315.097212
 30
0.0
 10
451.127395
 20
318.377212
 30
0.0
 10
444.917395
 20
320.157212
 30
0.0
 10
438.647395
 20
321.817212
 30
0.0
 10
431.517395
 20
323.737212
 30
0.0
 10
424.327395
 20
325.177212
 30
0.0
 10
421.207395
 20
325.897212
 30
0.0
 10
415.677395
 20
327.467212
 30
0.0
 10
410.087395
 20
328.857212
 30
0.0
 10
395.127395
 20
331.337212
 30
0.0
 10
387.527395
 20
332.937212
 30
0.0
 10
376.807395
 20
334.857212
 30
0.0
 10
373.447395
 20
335.337212
 30
0.0
 10
364.567395
 20
336.377212
 30
0.0
 10
362.567395
 20
336.537212
 30
0.0
 10
355.047395
 20
337.577212
 30
0.0
 10
335.367395
 20
339.177212
 30
0.0
 10
323.047395
 20
339.737212
 30
0.0
 10
309.767395
 20
340.697212
 30
0.0
 10
305.607395
 20
340.777212
 30
0.0
 10
298.647395
 20
340.537212
 30
0.0
 10
286.247395
 20
340.137212
 30
0.0
 10
282.487395
 20
340.137212
 30
0.0
 10
272.727395
 20
340.137212
 30
0.0
 10
272.567395
 20
340.137212
 30
0.0
 10
268.837395
 20
339.487212
 30
0.0
 10
265.047395
 20
339.257212
 30
0.0
 10
258.887395
 20
338.617212
 30
0.0
 10
244.087395
 20
336.777212
 30
0.0
 10
236.967395
 20
335.817212
 30
0.0
 10
223.047395
 20
333.577212
 30
0.0
 10
222.487395
 20
333.417212
 30
0.0
 10
218.086145
 20
332.949712
 30
0.0
 10
213.737395
 20
332.137212
 30
0.0
 10
205.047395
 20
330.137212
 30
0.0
 10
193.447395
 20
328.057212
 30
0.0
 10
190.327395
 20
327.337212
 30
0.0
 10
181.907395
 20
324.897212
 30
0.0
 10
173.367395
 20
322.937212
 30
0.0
 10
165.847395
 20
320.857212
 30
0.0
 10
158.167395
 20
318.697212
 30
0.0
 10
153.607395
 20
317.177212
 30
0.0
 10
137.767395
 20
311.737212
 30
0.0
 10
135.582395
 20
311.257212
 30
0.0
 10
133.487395
 20
311.317212
 30
0.0
 10
131.512395
 20
312.007212
 30
0.0
 10
129.687395
 20
313.417212
 30
0.0
 10
125.287395
 20
317.587212
 30
0.0
 10
121.127395
 20
322.057212
 30
0.0
 10
118.447395
 20
324.867212
 30
0.0
 10
115.527395
 20
327.497212
 30
0.0
 10
106.987395
 20
335.447212
 30
0.0
 10
98.807395
 20
343.817212
 30
0.0
 10
97.836145
 20
345.050962
 30
0.0
 10
97.097395
 20
346.367212
 30
0.0
 10
96.613645
 20
347.788462
 30
0.0
 10
96.407395
 20
349.337212
 30
0.0
 10
96.237395
 20
352.297212
 30
0.0
 10
96.247395
 20
355.257212
 30
0.0
 10
96.227395
 20
358.537212
 30
0.0
 10
96.087395
 20
361.817212
 30
0.0
 10
96.327395
 20
369.977212
 30
0.0
 10
95.607395
 20
385.497212
 30
0.0
 10
95.847395
 20
392.057212
 30
0.0
 10
95.687395
 20
397.017212
 30
0.0
 10
95.457395
 20
404.697212
 30
0.0
 10
95.527395
 20
412.377212
 30
0.0
 10
95.127395
 20
416.537212
 30
0.0
 10
94.479895
 20
418.589712
 30
0.0
 10
93.307395
 20
420.117212
 30
0.0
 10
91.684895
 20
421.194712
 30
0.0
 10
89.687395
 20
421.897212
 30
0.0
 10
81.927395
 20
423.817212
 30
0.0
 10
69.367395
 20
427.817212
 30
0.0
 10
64.247395
 20
429.337212
 30
0.0
 10
46.167395
 20
435.657212
 30
0.0
 10
34.247395
 20
440.297212
 30
0.0
 10
32.198645
 20
441.353462
 30
0.0
 10
30.877395
 20
442.687212
 30
0.0
 10
30.141145
 20
444.425962
 30
0.0
 10
29.847395
 20
446.697212
 30
0.0
 10
29.207395
 20
458.617212
 30
0.0
 10
28.807395
 20
474.777212
 30
0.0
 10
28.247395
 20
484.297212
 30
0.0
 10
27.927395
 20
495.017212
 30
0.0
 10
28.167395
 20
503.177212
 30
0.0
 10
27.847395
 20
520.297212
 30
0.0
 10
27.976145
 20
521.780962
 30
0.0
 10
28.457395
 20
523.107212
 30
0.0
 10
29.253645
 20
524.268462
 30
0.0
 10
30.327395
 20
525.257212
 30
0.0
 10
31.527395
 20
525.977212
 30
0.0
 10
42.007395
 20
530.297212
 30
0.0
 10
53.847395
 20
534.617212
 30
0.0
 10
64.647395
 20
538.057212
 30
0.0
 10
69.527395
 20
539.817212
 30
0.0
 10
74.757395
 20
541.517212
 30
0.0
 10
79.927395
 20
543.337212
 30
0.0
 10
86.417395
 20
545.607212
 30
0.0
 10
92.967395
 20
547.577212
 30
0.0
 10
104.327395
 20
551.257212
 30
0.0
 10
108.567395
 20
552.297212
 30
0.0
 10
110.717395
 20
552.767212
 30
0.0
 10
112.807395
 20
553.417212
 30
0.0
 10
118.877395
 20
555.397212
 30
0.0
 10
125.127395
 20
556.777212
 30
0.0
 10
127.607395
 20
557.437212
 30
0.0
 10
130.087395
 20
558.217212
 30
0.0
 10
137.587395
 20
560.187212
 30
0.0
 10
145.207395
 20
561.737212
 30
0.0
 10
151.447395
 20
563.037212
 30
0.0
 10
157.687395
 20
564.457212
 30
0.0
 10
166.727395
 20
566.137212
 30
0.0
 10
178.807395
 20
568.617212
 30
0.0
 10
187.207395
 20
570.057212
 30
0.0
 10
201.207395
 20
572.297212
 30
0.0
 10
218.567395
 20
574.857212
 30
0.0
 10
232.247395
 20
576.217212
 30
0.0
 10
237.367395
 20
576.857212
 30
0.0
 10
242.087395
 20
577.337212
 30
0.0
 10
257.367395
 20
578.537212
 30
0.0
 10
275.527395
 20
579.417212
 30
0.0
 10
281.687395
 20
579.977212
 30
0.0
 10
283.047395
 20
580.057212
 30
0.0
 10
303.127395
 20
580.217212
 30
0.0
 10
333.127395
 20
580.057212
 30
0.0
 10
338.887395
 20
579.657212
 30
0.0
 10
350.007395
 20
579.257212
 30
0.0
 10
362.167395
 20
578.537212
 30
0.0
 10
374.407395
 20
577.177212
 30
0.0
 10
377.607395
 20
576.857212
 30
0.0
 10
384.327395
 20
576.217212
 30
0.0
 10
405.847395
 20
573.337212
 30
0.0
 10
417.847395
 20
571.417212
 30
0.0
 10
428.487395
 20
569.737212
 30
0.0
 10
441.377395
 20
567.587212
 30
0.0
 10
454.087395
 20
564.777212
 30
0.0
 10
456.407395
 20
564.377212
 30
0.0
 10
463.527395
 20
562.617212
 30
0.0
 10
478.807395
 20
559.017212
 30
0.0
 10
484.567395
 20
557.337212
 30
0.0
 10
502.407395
 20
552.297212
 30
0.0
 10
519.287395
 20
546.937212
 30
0.0
 10
537.607395
 20
540.297212
 30
0.0
 10
544.007395
 20
538.217212
 30
0.0
 10
559.687395
 20
532.217212
 30
0.0
 10
560.087395
 20
532.057212
 30
0.0
 10
562.717395
 20
530.743462
 30
0.0
 10
564.507395
 20
529.287212
 30
0.0
 10
565.096770
 20
528.320493
 30
0.0
 10
565.487395
 20
527.095962
 30
0.0
 10
565.687395
 20
523.577212
 30
0.0
 10
565.687395
 20
519.577212
 30
0.0
 10
566.167395
 20
519.737212
 30
0.0
 10
566.167395
 20
519.737212
 30
0.0
  0
LWPOLYLINE
  5
101
100
AcDbEntity
  8
Layer_1
 62
7
100
AcDbPolyline
 90
165
 70
0
 10
559.287395
 20
513.097212
 30
0.0
 10
559.287395
 20
513.097212
 30
0.0
 10
559.207395
 20
520.457212
 30
0.0
 10
558.973645
 20
522.280962
 30
0.0
 10
558.357395
 20
523.887212
 30
0.0
 10
557.306145
 20
525.238462
 30
0.0
 10
555.767395
 20
526.297212
 30
0.0
 10
554.007395
 20
527.177212
 30
0.0
 10
543.607395
 20
531.177212
 30
0.0
 10
538.887395
 20
532.777212
 30
0.0
 10
533.947395
 20
534.427212
 30
0.0
 10
529.127395
 20
536.377212
 30
0.0
 10
525.297395
 20
538.057212
 30
0.0
 10
523.333645
 20
538.649712
 30
0.0
 10
521.287395
 20
539.017212
 30
0.0
 10
519.927395
 20
539.337212
 30
0.0
 10
514.407395
 20
541.017212
 30
0.0
 10
506.727395
 20
543.337212
 30
0.0
 10
490.087395
 20
548.377212
 30
0.0
 10
474.087395
 20
552.617212
 30
0.0
 10
461.637395
 20
555.827212
 30
0.0
 10
455.401145
 20
557.330962
 30
0.0
 10
449.127395
 20
558.617212
 30
0.0
 10
446.247395
 20
559.257212
 30
0.0
 10
435.527395
 20
561.577212
 30
0.0
 10
425.927395
 20
563.097212
 30
0.0
 10
422.647395
 20
563.977212
 30
0.0
 10
409.047395
 20
566.137212
 30
0.0
 10
398.167395
 20
567.577212
 30
0.0
 10
383.767395
 20
569.417212
 30
0.0
 10
375.287395
 20
570.377212
 30
0.0
 10
365.367395
 20
571.017212
 30
0.0
 10
358.757395
 20
571.807212
 30
0.0
 10
355.433645
 20
572.085962
 30
0.0
 10
352.087395
 20
572.057212
 30
0.0
 10
348.887395
 20
572.297212
 30
0.0
 10
335.767395
 20
573.097212
 30
0.0
 10
322.647395
 20
573.497212
 30
0.0
 10
296.887395
 20
573.657212
 30
0.0
 10
294.727395
 20
573.577212
 30
0.0
 10
279.927395
 20
573.097212
 30
0.0
 10
268.807395
 20
572.697212
 30
0.0
 10
255.527395
 20
571.657212
 30
0.0
 10
240.887395
 20
570.377212
 30
0.0
 10
228.007395
 20
568.777212
 30
0.0
 10
214.567395
 20
567.097212
 30
0.0
 10
209.157395
 20
566.257212
 30
0.0
 10
206.433645
 20
565.972212
 30
0.0
 10
203.687395
 20
565.897212
 30
0.0
 10
201.927395
 20
565.577212
 30
0.0
 10
184.647395
 20
562.697212
 30
0.0
 10
172.327395
 20
560.457212
 30
0.0
 10
162.967395
 20
558.377212
 30
0.0
 10
142.647395
 20
554.217212
 30
0.0
 10
132.737395
 20
551.907212
 30
0.0
 10
122.887395
 20
549.417212
 30
0.0
 10
116.727395
 20
547.657212
 30
0.0
 10
102.567395
 20
543.497212
 30
0.0
 10
97.607395
 20
541.897212
 30
0.0
 10
94.407395
 20
540.857212
 30
0.0
 10
86.727395
 20
538.777212
 30
0.0
 10
80.187395
 20
536.667212
 30
0.0
 10
76.894895
 20
535.705962
 30
0.0
 10
73.527395
 20
535.097212
 30
0.0
 10
72.967395
 20
534.857212
 30
0.0
 10
52.407395
 20
527.177212
 30
0.0
 10
38.327395
 20
522.057212
 30
0.0
 10
36.617395
 20
521.197212
 30
0.0
 10
35.507395
 20
520.097212
 30
0.0
 10
34.907395
 20
518.637212
 30
0.0
 10
34.727395
 20
516.697212
 30
0.0
 10
34.807395
 20
506.537212
 30
0.0
 10
34.727395
 20
502.537212
 30
0.0
 10
35.207395
 20
485.977212
 30
0.0
 10
35.437395
 20
478.697212
 30
0.0
 10
35.847395
 20
471.417212
 30
0.0
 10
36.407395
 20
454.057212
 30
0.0
 10
36.807395
 20
450.537212
 30
0.0
 10
37.203645
 20
449.210962
 30
0.0
 10
37.817395
 20
448.027212
 30
0.0
 10
38.686145
 20
447.038462
 30
0.0
 10
39.847395
 20
446.297212
 30
0.0
 10
44.647395
 20
444.377212
 30
0.0
 10
50.407395
 20
442.217212
 30
0.0
 10
53.927395
 20
440.857212
 30
0.0
 10
70.647395
 20
435.417212
 30
0.0
 10
80.497395
 20
432.237212
 30
0.0
 10
90.407395
 20
429.177212
 30
0.0
 10
110.007395
 20
423.737212
 30
0.0
 10
119.747395
 20
421.147212
 30
0.0
 10
129.607395
 20
419.097212
 30
0.0
 10
131.639895
 20
418.930962
 30
0.0
 10
133.447395
 20
419.267212
 30
0.0
 10
135.074895
 20
420.098462
 30
0.0
 10
136.567395
 20
421.417212
 30
0.0
 10
139.997395
 20
425.187212
 30
0.0
 10
143.607395
 20
428.777212
 30
0.0
 10
157.527395
 20
440.777212
 30
0.0
 10
165.127395
 20
447.087212
 30
0.0
 10
172.967395
 20
453.097212
 30
0.0
 10
182.757395
 20
459.627212
 30
0.0
 10
192.967395
 20
465.497212
 30
0.0
 10
203.207395
 20
470.867212
 30
0.0
 10
213.687395
 20
475.817212
 30
0.0
 10
223.597395
 20
479.807212
 30
0.0
 10
233.687395
 20
483.257212
 30
0.0
 10
244.807395
 20
486.457212
 30
0.0
 10
251.257395
 20
488.147212
 30
0.0
 10
257.767395
 20
489.657212
 30
0.0
 10
263.177395
 20
490.477212
 30
0.0
 10
268.647395
 20
491.177212
 30
0.0
 10
273.527395
 20
492.057212
 30
0.0
 10
281.447395
 20
493.017212
 30
0.0
 10
288.327395
 20
493.897212
 30
0.0
 10
300.247395
 20
494.057212
 30
0.0
 10
302.007395
 20
494.137212
 30
0.0
 10
306.167395
 20
494.297212
 30
0.0
 10
312.567395
 20
494.057212
 30
0.0
 10
321.527395
 20
493.897212
 30
0.0
 10
333.847395
 20
492.697212
 30
0.0
 10
340.967395
 20
491.817212
 30
0.0
 10
354.487395
 20
489.257212
 30
0.0
 10
359.667395
 20
488.167212
 30
0.0
 10
364.727395
 20
486.777212
 30
0.0
 10
377.727395
 20
482.337212
 30
0.0
 10
384.167395
 20
479.914712
 30
0.0
 10
390.487395
 20
477.177212
 30
0.0
 10
401.997395
 20
471.887212
 30
0.0
 10
407.598645
 20
468.975962
 30
0.0
 10
412.967395
 20
465.577212
 30
0.0
 10
415.047395
 20
464.377212
 30
0.0
 10
419.316145
 20
462.052212
 30
0.0
 10
423.397395
 20
459.457212
 30
0.0
 10
431.207395
 20
453.817212
 30
0.0
 10
439.137395
 20
447.617212
 30
0.0
 10
446.887395
 20
441.177212
 30
0.0
 10
451.367395
 20
437.057212
 30
0.0
 10
455.607395
 20
432.697212
 30
0.0
 10
462.967395
 20
424.537212
 30
0.0
 10
464.977395
 20
422.777212
 30
0.0
 10
466.173645
 20
422.219712
 30
0.0
 10
467.527395
 20
421.977212
 30
0.0
 10
469.727395
 20
421.977212
 30
0.0
 10
471.927395
 20
422.217212
 30
0.0
 10
479.847395
 20
424.377212
 30
0.0
 10
490.247395
 20
427.177212
 30
0.0
 10
496.967395
 20
429.017212
 30
0.0
 10
506.807395
 20
432.137212
 30
0.0
 10
518.327395
 20
435.977212
 30
0.0
 10
523.447395
 20
437.737212
 30
0.0
 10
529.547395
 20
439.677212
 30
0.0
 10
535.527395
 20
441.737212
 30
0.0
 10
553.927395
 20
448.937212
 30
0.0
 10
555.627395
 20
449.767212
 30
0.0
 10
557.207395
 20
450.777212
 30
0.0
 10
558.817395
 20
452.387212
 30
0.0
 10
559.311145
 20
453.398462
 30
0.0
 10
559.527395
 20
454.537212
 30
0.0
 10
559.777395
 20
458.217212
 30
0.0
 10
559.847395
 20
461.897212
 30
0.0
 10
559.447395
 20
477.017212
 30
0.0
 10
559.527395
 20
493.577212
 30
0.0
 10
559.527395
 20
503.367212
 30
0.0
 10
559.287395
 20
513.097212
 30
0.0
 10
559.287395
 20
513.097212
 30
0.0
  0
LWPOLYLINE
  5
102
100
AcDbEntity
  8
Layer_1
 62
7
100
AcDbPolyline
 90
139
 70
0
 10
102.007395
 20
373.097212
 30
0.0
 10
102.167395
 20
373.097212
 30
0.0
 10
102.167395
 20
366.937212
 30
0.0
 10
102.807395
 20
353.417212
 30
0.0
 10
103.032395
 20
351.499712
 30
0.0
 10
103.587395
 20
349.717212
 30
0.0
 10
104.472395
 20
348.084712
 30
0.0
 10
105.687395
 20
346.617212
 30
0.0
 10
114.887395
 20
337.177212
 30
0.0
 10
121.207395
 20
331.097212
 30
0.0
 10
130.807395
 20
321.497212
 30
0.0
 10
132.898645
 20
319.813462
 30
0.0
 10
135.117395
 20
318.947212
 30
0.0
 10
137.501145
 20
318.875962
 30
0.0
 10
140.087395
 20
319.577212
 30
0.0
 10
145.137395
 20
321.577212
 30
0.0
 10
150.247395
 20
323.097212
 30
0.0
 10
157.477395
 20
324.967212
 30
0.0
 10
164.647395
 20
327.017212
 30
0.0
 10
184.087395
 20
332.137212
 30
0.0
 10
190.167395
 20
333.417212
 30
0.0
 10
201.447395
 20
335.977212
 30
0.0
 10
220.887395
 20
339.497212
 30
0.0
 10
245.527395
 20
343.017212
 30
0.0
 10
255.207395
 20
343.897212
 30
0.0
 10
264.607395
 20
344.837212
 30
0.0
 10
274.007395
 20
345.657212
 30
0.0
 10
281.447395
 20
345.947212
 30
0.0
 10
288.887395
 20
346.057212
 30
0.0
 10
298.487395
 20
346.057212
 30
0.0
 10
315.207395
 20
346.137212
 30
0.0
 10
336.727395
 20
345.337212
 30
0.0
 10
346.087395
 20
344.617212
 30
0.0
 10
358.327395
 20
343.257212
 30
0.0
 10
366.647395
 20
342.377212
 30
0.0
 10
376.887395
 20
340.857212
 30
0.0
 10
385.527395
 20
339.657212
 30
0.0
 10
390.167395
 20
338.537212
 30
0.0
 10
405.687395
 20
335.897212
 30
0.0
 10
413.047395
 20
334.217212
 30
0.0
 10
425.767395
 20
331.577212
 30
0.0
 10
436.567395
 20
328.857212
 30
0.0
 10
440.637395
 20
327.877212
 30
0.0
 10
444.647395
 20
326.777212
 30
0.0
 10
454.237395
 20
323.807212
 30
0.0
 10
464.007395
 20
321.257212
 30
0.0
 10
465.237395
 20
321.078462
 30
0.0
 10
466.407395
 20
321.147212
 30
0.0
 10
467.517395
 20
321.470962
 30
0.0
 10
468.567395
 20
322.057212
 30
0.0
 10
470.387395
 20
323.447212
 30
0.0
 10
472.087395
 20
325.017212
 30
0.0
 10
483.847395
 20
337.497212
 30
0.0
 10
494.167395
 20
348.057212
 30
0.0
 10
495.347395
 20
349.510962
 30
0.0
 10
496.227395
 20
351.107212
 30
0.0
 10
496.777395
 20
352.838462
 30
0.0
 10
496.967395
 20
354.697212
 30
0.0
 10
496.887395
 20
363.497212
 30
0.0
 10
497.207395
 20
370.057212
 30
0.0
 10
497.287395
 20
374.057212
 30
0.0
 10
497.047395
 20
381.257212
 30
0.0
 10
497.047395
 20
389.657212
 30
0.0
 10
497.287395
 20
411.817212
 30
0.0
 10
497.447395
 20
414.217212
 30
0.0
 10
497.530051
 20
415.787993
 30
0.0
 10
497.313645
 20
417.183462
 30
0.0
 10
496.821614
 20
418.378306
 30
0.0
 10
496.077395
 20
419.347212
 30
0.0
 10
495.104426
 20
420.064868
 30
0.0
 10
493.926145
 20
420.505962
 30
0.0
 10
492.565989
 20
420.645181
 30
0.0
 10
491.047395
 20
420.457212
 30
0.0
 10
482.567395
 20
418.377212
 30
0.0
 10
466.327395
 20
414.297212
 30
0.0
 10
460.087395
 20
413.097212
 30
0.0
 10
453.407395
 20
411.477212
 30
0.0
 10
446.727395
 20
409.977212
 30
0.0
 10
437.997395
 20
408.017212
 30
0.0
 10
433.621145
 20
407.052212
 30
0.0
 10
429.207395
 20
406.297212
 30
0.0
 10
420.447395
 20
404.877212
 30
0.0
 10
411.687395
 20
403.337212
 30
0.0
 10
398.087395
 20
401.417212
 30
0.0
 10
385.847395
 20
399.737212
 30
0.0
 10
376.167395
 20
398.457212
 30
0.0
 10
364.887395
 20
397.097212
 30
0.0
 10
356.567395
 20
396.617212
 30
0.0
 10
345.847395
 20
395.897212
 30
0.0
 10
339.847395
 20
395.657212
 30
0.0
 10
331.927395
 20
395.097212
 30
0.0
 10
328.727395
 20
395.017212
 30
0.0
 10
321.287395
 20
394.357212
 30
0.0
 10
317.567395
 20
394.207212
 30
0.0
 10
313.847395
 20
394.297212
 30
0.0
 10
310.487395
 20
394.297212
 30
0.0
 10
304.807395
 20
394.147212
 30
0.0
 10
301.959895
 20
394.218462
 30
0.0
 10
299.127395
 20
394.537212
 30
0.0
 10
297.367395
 20
394.457212
 30
0.0
 10
294.167395
 20
394.217212
 30
0.0
 10
286.567395
 20
394.217212
 30
0.0
 10
283.207395
 20
394.057212
 30
0.0
 10
281.407395
 20
394.197212
 30
0.0
 10
279.607395
 20
394.217212
 30
0.0
 10
277.268645
 20
394.020962
 30
0.0
 10
274.937395
 20
394.087212
 30
0.0
 10
270.327395
 20
394.617212
 30
0.0
 10
266.877395
 20
394.977212
 30
0.0
 10
263.367395
 20
394.857212
 30
0.0
 10
260.197395
 20
394.677212
 30
0.0
 10
256.967395
 20
394.857212
 30
0.0
 10
243.287395
 20
395.817212
 30
0.0
 10
234.567395
 20
396.377212
 30
0.0
 10
222.327395
 20
397.897212
 30
0.0
 10
215.607395
 20
398.537212
 30
0.0
 10
204.167395
 20
399.737212
 30
0.0
 10
197.217395
 20
400.227212
 30
0.0
 10
193.761145
 20
400.625962
 30
0.0
 10
190.327395
 20
401.257212
 30
0.0
 10
183.287395
 20
402.617212
 30
0.0
 10
167.927395
 20
404.777212
 30
0.0
 10
163.607395
 20
405.417212
 30
0.0
 10
156.967395
 20
406.617212
 30
0.0
 10
144.967395
 20
408.617212
 30
0.0
 10
138.967395
 20
410.057212
 30
0.0
 10
123.847395
 20
413.657212
 30
0.0
 10
108.327395
 20
417.257212
 30
0.0
 10
106.567395
 20
417.497212
 30
0.0
 10
104.919895
 20
417.292212
 30
0.0
 10
103.707395
 20
416.577212
 30
0.0
 10
102.944895
 20
415.382212
 30
0.0
 10
102.647395
 20
413.737212
 30
0.0
 10
102.407395
 20
405.577212
 30
0.0
 10
102.407395
 20
391.977212
 30
0.0
 10
102.407395
 20
389.577212
 30
0.0
 10
102.647395
 20
381.417212
 30
0.0
 10
102.007395
 20
373.097212
 30
0.0
 10
102.007395
 20
373.097212
 30
0.0
  0
LWPOLYLINE
  5
103
100
AcDbEntity
  8
Layer_1
 62
7
100
AcDbPolyline
 90
87
 70
0
 10
339.527395
 20
401.417212
 30
0.0
 10
339.527395
 20
401.097212
 30
0.0
 10
354.407395
 20
402.137212
 30
0.0
 10
370.487395
 20
403.657212
 30
0.0
 10
374.087395
 20
403.737212
 30
0.0
 10
378.177395
 20
404.397212
 30
0.0
 10
382.327395
 20
404.937212
 30
0.0
 10
390.717395
 20
405.947212
 30
0.0
 10
399.047395
 20
407.257212
 30
0.0
 10
411.557395
 20
409.177212
 30
0.0
 10
417.801145
 20
410.159712
 30
0.0
 10
424.007395
 20
411.337212
 30
0.0
 10
433.887395
 20
413.317212
 30
0.0
 10
443.767395
 20
415.177212
 30
0.0
 10
448.247395
 20
416.167212
 30
0.0
 10
452.727395
 20
417.337212
 30
0.0
 10
454.436145
 20
418.078462
 30
0.0
 10
455.597395
 20
419.247212
 30
0.0
 10
455.857864
 20
420.003618
 30
0.0
 10
455.843645
 20
420.880962
 30
0.0
 10
455.508801
 20
421.883931
 30
0.0
 10
454.807395
 20
423.017212
 30
0.0
 10
450.727395
 20
428.057212
 30
0.0
 10
446.167395
 20
432.617212
 30
0.0
 10
436.487395
 20
440.617212
 30
0.0
 10
426.167395
 20
448.777212
 30
0.0
 10
421.847395
 20
451.657212
 30
0.0
 10
417.367395
 20
454.297212
 30
0.0
 10
410.017395
 20
459.227212
 30
0.0
 10
406.218645
 20
461.485962
 30
0.0
 10
402.247395
 20
463.497212
 30
0.0
 10
390.087395
 20
469.497212
 30
0.0
 10
383.117395
 20
472.777212
 30
0.0
 10
376.087395
 20
475.817212
 30
0.0
 10
370.227395
 20
478.077212
 30
0.0
 10
364.247395
 20
479.977212
 30
0.0
 10
353.637395
 20
482.667212
 30
0.0
 10
342.967395
 20
485.177212
 30
0.0
 10
338.687395
 20
486.147212
 30
0.0
 10
334.407395
 20
486.937212
 30
0.0
 10
329.447395
 20
487.407212
 30
0.0
 10
324.487395
 20
487.817212
 30
0.0
 10
317.037395
 20
488.387212
 30
0.0
 10
309.527395
 20
488.537212
 30
0.0
 10
296.727395
 20
488.537212
 30
0.0
 10
286.407395
 20
487.897212
 30
0.0
 10
278.487395
 20
487.177212
 30
0.0
 10
270.047395
 20
485.907212
 30
0.0
 10
261.607395
 20
484.217212
 30
0.0
 10
256.247395
 20
483.167212
 30
0.0
 10
250.887395
 20
482.057212
 30
0.0
 10
237.457395
 20
477.997212
 30
0.0
 10
230.851145
 20
475.689712
 30
0.0
 10
224.327395
 20
473.097212
 30
0.0
 10
209.787395
 20
466.437212
 30
0.0
 10
195.607395
 20
459.177212
 30
0.0
 10
187.847395
 20
454.697212
 30
0.0
 10
177.047395
 20
447.497212
 30
0.0
 10
171.536145
 20
443.725962
 30
0.0
 10
166.257395
 20
439.647212
 30
0.0
 10
161.173645
 20
435.313462
 30
0.0
 10
156.247395
 20
430.777212
 30
0.0
 10
148.487395
 20
423.577212
 30
0.0
 10
144.727395
 20
419.977212
 30
0.0
 10
143.849895
 20
418.445962
 30
0.0
 10
143.827395
 20
416.967212
 30
0.0
 10
144.614895
 20
415.713462
 30
0.0
 10
146.167395
 20
414.857212
 30
0.0
 10
146.727395
 20
414.697212
 30
0.0
 10
163.927395
 20
411.417212
 30
0.0
 10
171.047395
 20
410.377212
 30
0.0
 10
189.927395
 20
407.417212
 30
0.0
 10
206.967395
 20
405.337212
 30
0.0
 10
218.807395
 20
403.737212
 30
0.0
 10
228.727395
 20
402.857212
 30
0.0
 10
241.367395
 20
401.737212
 30
0.0
 10
256.887395
 20
401.017212
 30
0.0
 10
258.887395
 20
400.857212
 30
0.0
 10
267.207395
 20
400.217212
 30
0.0
 10
274.967395
 20
400.057212
 30
0.0
 10
287.687395
 20
399.417212
 30
0.0
 10
312.647395
 20
399.417212
 30
0.0
 10
314.247395
 20
399.417212
 30
0.0
 10
322.807395
 20
399.657212
 30
0.0
 10
326.567395
 20
399.897212
 30
0.0
 10
339.527395
 20
401.417212
 30
0.0
 10
339.527395
 20
401.417212
 30
0.0
  0
LWPOLYLINE
  5
104
100
AcDbEntity
  8
Layer_1
 62
7
100
AcDbPolyline
 90
78
 70
0
 10
530.167395
 20
507.017212
 30
0.0
 10
529.646145
 20
502.597212
 30
0.0
 10
528.457395
 20
498.297212
 30
0.0
 10
527.563489
 20
496.229712
 30
0.0
 10
526.443645
 20
494.237212
 30
0.0
 10
525.078176
 20
492.334712
 30
0.0
 10
523.447395
 20
490.537212
 30
0.0
 10
521.059895
 20
488.479712
 30
0.0
 10
518.447395
 20
486.797212
 30
0.0
 10
515.594895
 20
485.564712
 30
0.0
 10
512.487395
 20
484.857212
 30
0.0
 10
505.367395
 20
484.377212
 30
0.0
 10
503.207395
 20
484.137212
 30
0.0
 10
501.876145
 20
483.710962
 30
0.0
 10
500.957395
 20
483.007212
 30
0.0
 10
500.383645
 20
481.988462
 30
0.0
 10
500.087395
 20
480.617212
 30
0.0
 10
499.247395
 20
471.497212
 30
0.0
 10
498.887395
 20
462.377212
 30
0.0
 10
498.407395
 20
454.057212
 30
0.0
 10
497.847395
 20
445.977212
 30
0.0
 10
497.847395
 20
445.417212
 30
0.0
 10
497.237395
 20
443.432212
 30
0.0
 10
496.722395
 20
442.762212
 30
0.0
 10
496.087395
 20
442.317212
 30
0.0
 10
495.347395
 20
442.104712
 30
0.0
 10
494.517395
 20
442.132212
 30
0.0
 10
492.647395
 20
442.937212
 30
0.0
 10
491.084895
 20
444.185962
 30
0.0
 10
489.927395
 20
445.667212
 30
0.0
 10
489.249895
 20
447.403462
 30
0.0
 10
489.127395
 20
449.417212
 30
0.0
 10
489.927395
 20
460.137212
 30
0.0
 10
489.927395
 20
462.857212
 30
0.0
 10
490.807395
 20
472.777212
 30
0.0
 10
491.447395
 20
483.097212
 30
0.0
 10
491.328645
 20
484.605962
 30
0.0
 10
490.857395
 20
485.987212
 30
0.0
 10
490.041145
 20
487.203462
 30
0.0
 10
488.887395
 20
488.217212
 30
0.0
 10
487.824895
 20
488.739712
 30
0.0
 10
486.807395
 20
488.857212
 30
0.0
 10
485.849895
 20
488.554712
 30
0.0
 10
484.967395
 20
487.817212
 30
0.0
 10
483.207395
 20
485.417212
 30
0.0
 10
480.727395
 20
479.577212
 30
0.0
 10
473.767395
 20
462.617212
 30
0.0
 10
472.407395
 20
460.457212
 30
0.0
 10
471.292395
 20
459.440962
 30
0.0
 10
470.027395
 20
458.927212
 30
0.0
 10
468.672395
 20
458.938462
 30
0.0
 10
467.287395
 20
459.497212
 30
0.0
 10
465.972395
 20
460.534712
 30
0.0
 10
465.167395
 20
461.797212
 30
0.0
 10
464.902395
 20
463.209712
 30
0.0
 10
465.207395
 20
464.697212
 30
0.0
 10
471.927395
 20
481.577212
 30
0.0
 10
475.607395
 20
491.497212
 30
0.0
 10
479.527395
 20
500.697212
 30
0.0
 10
480.247395
 20
502.377212
 30
0.0
 10
486.167395
 20
517.017212
 30
0.0
 10
492.887395
 20
532.777212
 30
0.0
 10
493.977395
 20
534.620962
 30
0.0
 10
495.367395
 20
535.827212
 30
0.0
 10
497.117395
 20
536.388462
 30
0.0
 10
499.287395
 20
536.297212
 30
0.0
 10
502.507395
 20
535.607212
 30
0.0
 10
505.607395
 20
534.617212
 30
0.0
 10
510.947395
 20
532.407212
 30
0.0
 10
516.167395
 20
529.897212
 30
0.0
 10
519.901145
 20
527.510962
 30
0.0
 10
523.177395
 20
524.667212
 30
0.0
 10
525.988645
 20
521.358462
 30
0.0
 10
528.327395
 20
517.577212
 30
0.0
 10
529.143645
 20
515.060962
 30
0.0
 10
529.697395
 20
512.507212
 30
0.0
 10
530.167395
 20
507.017212
 30
0.0
 10
530.167395
 20
507.017212
 30
0.0
  0
LWPOLYLINE
  5
105
100
AcDbEntity
  8
Layer_1
 62
7
100
AcDbPolyline
 90
36
 70
0
 10
520.967395
 20
505.977212
 30
0.0
 10
520.487395
 20
510.697212
 30
0.0
 10
520.087395
 20
512.675962
 30
0.0
 10
519.387395
 20
514.527212
 30
0.0
 10
518.417395
 20
516.243462
 30
0.0
 10
517.207395
 20
517.817212
 30
0.0
 10
514.443645
 20
520.483462
 30
0.0
 10
511.357395
 20
522.647212
 30
0.0
 10
508.016145
 20
524.375962
 30
0.0
 10
504.487395
 20
525.737212
 30
0.0
 10
502.619895
 20
526.138462
 30
0.0
 10
501.067395
 20
525.887212
 30
0.0
 10
499.784895
 20
524.960962
 30
0.0
 10
498.727395
 20
523.337212
 30
0.0
 10
496.167395
 20
517.737212
 30
0.0
 10
490.487395
 20
502.857212
 30
0.0
 10
489.927395
 20
501.177212
 30
0.0
 10
489.752395
 20
499.743462
 30
0.0
 10
489.967395
 20
498.527212
 30
0.0
 10
490.602395
 20
497.475962
 30
0.0
 10
491.687395
 20
496.537212
 30
0.0
 10
493.207395
 20
495.657212
 30
0.0
 10
498.447395
 20
493.417212
 30
0.0
 10
501.149895
 20
492.529712
 30
0.0
 10
503.927395
 20
491.897212
 30
0.0
 10
506.917395
 20
491.597212
 30
0.0
 10
509.847395
 20
491.897212
 30
0.0
 10
512.392395
 20
492.741743
 30
0.0
 10
514.667395
 20
494.018462
 30
0.0
 10
516.642395
 20
495.642056
 30
0.0
 10
518.287395
 20
497.527212
 30
0.0
 10
519.572395
 20
499.588618
 30
0.0
 10
520.467395
 20
501.740962
 30
0.0
 10
520.942395
 20
503.898931
 30
0.0
 10
520.967395
 20
505.977212
 30
0.0
 10
520.967395
 20
505.977212
 30
0.0
  0
LWPOLYLINE
  5
106
100
AcDbEntity
  8
Layer_1
 62
7
100
AcDbPolyline
 90
132
 70
0
 10
104.247395
 20
442.777212
 30
0.0
 10
99.896145
 20
442.929712
 30
0.0
 10
95.837395
 20
443.937212
 30
0.0
 10
92.063645
 20
445.724712
 30
0.0
 10
88.567395
 20
448.217212
 30
0.0
 10
85.747395
 20
450.997212
 30
0.0
 10
83.287395
 20
454.137212
 30
0.0
 10
82.124895
 20
456.480962
 30
0.0
 10
82.013333
 20
457.479868
 30
0.0
 10
82.207395
 20
458.367212
 30
0.0
 10
82.701458
 20
459.145806
 30
0.0
 10
83.489895
 20
459.818462
 30
0.0
 10
85.927395
 20
460.857212
 30
0.0
 10
87.627395
 20
461.109712
 30
0.0
 10
89.147395
 20
460.897212
 30
0.0
 10
90.517395
 20
460.204712
 30
0.0
 10
91.767395
 20
459.017212
 30
0.0
 10
93.887395
 20
456.627212
 30
0.0
 10
96.247395
 20
454.537212
 30
0.0
 10
98.562551
 20
453.100649
 30
0.0
 10
100.983645
 20
452.089712
 30
0.0
 10
103.474114
 20
451.502524
 30
0.0
 10
105.997395
 20
451.337212
 30
0.0
 10
108.516926
 20
451.591899
 30
0.0
 10
110.996145
 20
452.264712
 30
0.0
 10
113.398489
 20
453.353774
 30
0.0
 10
115.687395
 20
454.857212
 30
0.0
 10
117.355676
 20
456.356431
 30
0.0
 10
118.653645
 20
458.015962
 30
0.0
 10
119.600989
 20
459.808618
 30
0.0
 10
120.217395
 20
461.707212
 30
0.0
 10
120.522551
 20
463.684556
 30
0.0
 10
120.536145
 20
465.713462
 30
0.0
 10
120.277864
 20
467.766743
 30
0.0
 10
119.767395
 20
469.817212
 30
0.0
 10
118.851614
 20
472.152212
 30
0.0
 10
117.676145
 20
474.187212
 30
0.0
 10
116.258801
 20
475.937212
 30
0.0
 10
114.617395
 20
477.417212
 30
0.0
 10
112.769739
 20
478.642212
 30
0.0
 10
110.733645
 20
479.627212
 30
0.0
 10
108.526926
 20
480.387212
 30
0.0
 10
106.167395
 20
480.937212
 30
0.0
 10
102.357395
 20
481.337212
 30
0.0
 10
98.487395
 20
481.497212
 30
0.0
 10
89.347395
 20
481.897212
 30
0.0
 10
84.807395
 20
482.352212
 30
0.0
 10
80.327395
 20
483.257212
 30
0.0
 10
75.873645
 20
484.879712
 30
0.0
 10
71.997395
 20
487.237212
 30
0.0
 10
68.706145
 20
490.344712
 30
0.0
 10
66.007395
 20
494.217212
 30
0.0
 10
65.367395
 20
495.657212
 30
0.0
 10
64.557395
 20
500.067212
 30
0.0
 10
64.411145
 20
502.283462
 30
0.0
 10
64.647395
 20
504.537212
 30
0.0
 10
64.727395
 20
505.337212
 30
0.0
 10
64.891145
 20
508.705962
 30
0.0
 10
65.857395
 20
511.767212
 30
0.0
 10
67.438645
 20
514.573462
 30
0.0
 10
69.447395
 20
517.177212
 30
0.0
 10
71.717395
 20
519.547212
 30
0.0
 10
74.167395
 20
521.737212
 30
0.0
 10
76.111145
 20
523.175962
 30
0.0
 10
78.197395
 20
524.307212
 30
0.0
 10
82.647395
 20
525.977212
 30
0.0
 10
84.727395
 20
526.537212
 30
0.0
 10
86.733489
 20
527.129399
 30
0.0
 10
88.731145
 20
527.479712
 30
0.0
 10
92.697395
 20
527.537212
 30
0.0
 10
96.618645
 20
526.874712
 30
0.0
 10
100.487395
 20
525.657212
 30
0.0
 10
102.964895
 20
524.504712
 30
0.0
 10
105.127395
 20
522.977212
 30
0.0
 10
106.989895
 20
521.089712
 30
0.0
 10
108.567395
 20
518.857212
 30
0.0
 10
111.047395
 20
514.537212
 30
0.0
 10
111.507395
 20
512.830962
 30
0.0
 10
111.247395
 20
511.267212
 30
0.0
 10
110.327395
 20
509.958462
 30
0.0
 10
108.807395
 20
509.017212
 30
0.0
 10
107.056145
 20
508.569712
 30
0.0
 10
105.417395
 20
508.677212
 30
0.0
 10
103.913645
 20
509.354712
 30
0.0
 10
102.567395
 20
510.617212
 30
0.0
 10
100.247395
 20
513.657212
 30
0.0
 10
98.408645
 20
515.635962
 30
0.0
 10
96.277395
 20
517.067212
 30
0.0
 10
93.891145
 20
518.033462
 30
0.0
 10
91.287395
 20
518.617212
 30
0.0
 10
88.407395
 20
518.767212
 30
0.0
 10
85.527395
 20
518.377212
 30
0.0
 10
82.398645
 20
517.433462
 30
0.0
 10
79.697395
 20
515.867212
 30
0.0
 10
77.371145
 20
513.775962
 30
0.0
 10
75.367395
 20
511.257212
 30
0.0
 10
74.682395
 20
509.955962
 30
0.0
 10
74.267395
 20
508.587212
 30
0.0
 10
74.007395
 20
505.737212
 30
0.0
 10
74.357395
 20
502.397212
 30
0.0
 10
75.367395
 20
499.177212
 30
0.0
 10
77.052395
 20
496.249712
 30
0.0
 10
79.307395
 20
494.057212
 30
0.0
 10
82.072395
 20
492.584712
 30
0.0
 10
85.287395
 20
491.817212
 30
0.0
 10
91.727395
 20
491.257212
 30
0.0
 10
98.167395
 20
490.937212
 30
0.0
 10
106.887395
 20
490.377212
 30
0.0
 10
110.437395
 20
490.087212
 30
0.0
 10
113.927395
 20
489.257212
 30
0.0
 10
117.856145
 20
487.454712
 30
0.0
 10
121.177395
 20
484.977212
 30
0.0
 10
123.973645
 20
481.899712
 30
0.0
 10
126.327395
 20
478.297212
 30
0.0
 10
127.976145
 20
474.579712
 30
0.0
 10
128.837395
 20
470.757212
 30
0.0
 10
129.083645
 20
466.844712
 30
0.0
 10
128.887395
 20
462.857212
 30
0.0
 10
128.509895
 20
460.577212
 30
0.0
 10
127.847395
 20
458.417212
 30
0.0
 10
126.884895
 20
456.377212
 30
0.0
 10
125.607395
 20
454.457212
 30
0.0
 10
125.047395
 20
453.577212
 30
0.0
 10
123.297395
 20
450.630962
 30
0.0
 10
121.007395
 20
448.307212
 30
0.0
 10
118.297395
 20
446.478462
 30
0.0
 10
115.287395
 20
445.017212
 30
0.0
 10
112.684895
 20
443.890962
 30
0.0
 10
109.947395
 20
443.207212
 30
0.0
 10
107.119895
 20
442.868462
 30
0.0
 10
104.247395
 20
442.777212
 30
0.0
 10
104.247395
 20
442.777212
 30
0.0
  0
LWPOLYLINE
  5
107
100
AcDbEntity
  8
Layer_1
 62
7
100
AcDbPolyline
 90
43
 70
0
 10
421.127395
 20
528.937212
 30
0.0
 10
420.087395
 20
521.417212
 30
0.0
 10
419.276145
 20
517.755962
 30
0.0
 10
418.157395
 20
514.207212
 30
0.0
 10
416.723645
 20
510.763462
 30
0.0
 10
414.967395
 20
507.417212
 30
0.0
 10
413.724895
 20
505.585962
 30
0.0
 10
412.287395
 20
503.927212
 30
0.0
 10
408.887395
 20
501.097212
 30
0.0
 10
405.227395
 20
498.827212
 30
0.0
 10
401.447395
 20
496.857212
 30
0.0
 10
399.161145
 20
495.992212
 30
0.0
 10
396.777395
 20
495.457212
 30
0.0
 10
391.927395
 20
494.777212
 30
0.0
 10
389.957395
 20
494.527212
 30
0.0
 10
387.927395
 20
494.457212
 30
0.0
 10
381.207395
 20
495.257212
 30
0.0
 10
374.407395
 20
496.617212
 30
0.0
 10
372.218645
 20
497.269712
 30
0.0
 10
370.697395
 20
498.417212
 30
0.0
 10
369.851145
 20
500.104712
 30
0.0
 10
369.687395
 20
502.377212
 30
0.0
 10
370.887395
 20
512.857212
 30
0.0
 10
373.127395
 20
526.617212
 30
0.0
 10
375.847395
 20
546.777212
 30
0.0
 10
377.127395
 20
555.657212
 30
0.0
 10
377.889895
 20
557.873462
 30
0.0
 10
379.207395
 20
559.287212
 30
0.0
 10
380.884895
 20
559.965962
 30
0.0
 10
382.727395
 20
559.977212
 30
0.0
 10
389.727395
 20
559.017212
 30
0.0
 10
396.727395
 20
557.817212
 30
0.0
 10
400.574895
 20
556.758462
 30
0.0
 10
404.287395
 20
555.347212
 30
0.0
 10
407.819895
 20
553.530962
 30
0.0
 10
411.127395
 20
551.257212
 30
0.0
 10
414.058645
 20
548.499712
 30
0.0
 10
416.397395
 20
545.397212
 30
0.0
 10
418.181145
 20
541.964712
 30
0.0
 10
419.447395
 20
538.217212
 30
0.0
 10
420.437395
 20
533.607212
 30
0.0
 10
421.127395
 20
528.937212
 30
0.0
 10
421.127395
 20
528.937212
 30
0.0
  0
LWPOLYLINE
  5
108
100
AcDbEntity
  8
Layer_1
 62
7
100
AcDbPolyline
 90
43
 70
0
 10
411.607395
 20
528.457212
 30
0.0
 10
411.607395
 20
530.217212
 30
0.0
 10
411.322395
 20
533.419712
 30
0.0
 10
410.467395
 20
536.457212
 30
0.0
 10
409.222395
 20
539.374712
 30
0.0
 10
407.767395
 20
542.217212
 30
0.0
 10
407.217395
 20
543.037212
 30
0.0
 10
406.487395
 20
543.737212
 30
0.0
 10
403.988645
 20
545.687212
 30
0.0
 10
401.377395
 20
547.397212
 30
0.0
 10
398.601145
 20
548.777212
 30
0.0
 10
395.607395
 20
549.737212
 30
0.0
 10
390.567395
 20
550.937212
 30
0.0
 10
388.441145
 20
551.103462
 30
0.0
 10
386.757395
 20
550.527212
 30
0.0
 10
385.538645
 20
549.215962
 30
0.0
 10
384.807395
 20
547.177212
 30
0.0
 10
383.767395
 20
539.897212
 30
0.0
 10
381.607395
 20
524.937212
 30
0.0
 10
380.167395
 20
514.297212
 30
0.0
 10
379.637395
 20
510.937212
 30
0.0
 10
379.287395
 20
507.577212
 30
0.0
 10
379.433645
 20
506.184712
 30
0.0
 10
379.977395
 20
505.017212
 30
0.0
 10
380.896145
 20
504.089712
 30
0.0
 10
382.167395
 20
503.417212
 30
0.0
 10
383.407395
 20
503.017212
 30
0.0
 10
384.647395
 20
502.857212
 30
0.0
 10
388.727395
 20
502.737212
 30
0.0
 10
392.807395
 20
502.857212
 30
0.0
 10
395.609895
 20
503.259712
 30
0.0
 10
398.247395
 20
504.097212
 30
0.0
 10
400.704895
 20
505.354712
 30
0.0
 10
402.967395
 20
507.017212
 30
0.0
 10
404.792395
 20
508.715962
 30
0.0
 10
406.407395
 20
510.587212
 30
0.0
 10
407.782395
 20
512.653462
 30
0.0
 10
408.887395
 20
514.937212
 30
0.0
 10
410.133645
 20
518.208462
 30
0.0
 10
411.057395
 20
521.547212
 30
0.0
 10
411.576145
 20
524.960962
 30
0.0
 10
411.607395
 20
528.457212
 30
0.0
 10
411.607395
 20
528.457212
 30
0.0
  0
LWPOLYLINE
  5
109
100
AcDbEntity
  8
Layer_1
 62
7
100
AcDbPolyline
 90
90
 70
0
 10
190.807395
 20
484.777212
 30
0.0
 10
189.503645
 20
484.884712
 30
0.0
 10
188.537395
 20
485.277212
 30
0.0
 10
187.826145
 20
486.059712
 30
0.0
 10
187.287395
 20
487.337212
 30
0.0
 10
185.397395
 20
492.917212
 30
0.0
 10
184.553645
 20
495.729712
 30
0.0
 10
183.927395
 20
498.617212
 30
0.0
 10
181.127395
 20
512.297212
 30
0.0
 10
179.847395
 20
518.777212
 30
0.0
 10
176.567395
 20
531.737212
 30
0.0
 10
173.767395
 20
545.577212
 30
0.0
 10
173.694895
 20
546.773462
 30
0.0
 10
173.967395
 20
547.827212
 30
0.0
 10
174.599895
 20
548.715962
 30
0.0
 10
175.607395
 20
549.417212
 30
0.0
 10
177.257395
 20
550.057212
 30
0.0
 10
178.967395
 20
550.457212
 30
0.0
 10
180.023645
 20
550.394712
 30
0.0
 10
180.997395
 20
550.077212
 30
0.0
 10
181.836145
 20
549.489712
 30
0.0
 10
182.487395
 20
548.617212
 30
0.0
 10
183.607395
 20
545.657212
 30
0.0
 10
184.987395
 20
539.047212
 30
0.0
 10
186.007395
 20
532.377212
 30
0.0
 10
186.887395
 20
527.897212
 30
0.0
 10
187.508645
 20
526.413462
 30
0.0
 10
188.677395
 20
525.267212
 30
0.0
 10
190.251145
 20
524.555962
 30
0.0
 10
192.087395
 20
524.377212
 30
0.0
 10
196.536145
 20
524.959712
 30
0.0
 10
200.917395
 20
525.857212
 30
0.0
 10
209.687395
 20
527.817212
 30
0.0
 10
211.831145
 20
528.575962
 30
0.0
 10
213.217395
 20
529.867212
 30
0.0
 10
213.838645
 20
531.653462
 30
0.0
 10
213.687395
 20
533.897212
 30
0.0
 10
210.327395
 20
549.497212
 30
0.0
 10
210.087395
 20
551.457212
 30
0.0
 10
210.087395
 20
553.417212
 30
0.0
 10
210.444895
 20
554.729712
 30
0.0
 10
211.207395
 20
555.697212
 30
0.0
 10
212.269895
 20
556.364712
 30
0.0
 10
213.527395
 20
556.777212
 30
0.0
 10
214.812395
 20
556.934712
 30
0.0
 10
216.007395
 20
556.777212
 30
0.0
 10
217.082395
 20
556.259712
 30
0.0
 10
218.007395
 20
555.337212
 30
0.0
 10
218.717395
 20
554.157212
 30
0.0
 10
219.127395
 20
552.857212
 30
0.0
 10
221.767395
 20
540.617212
 30
0.0
 10
224.087395
 20
527.257212
 30
0.0
 10
225.127395
 20
522.217212
 30
0.0
 10
226.247395
 20
515.337212
 30
0.0
 10
228.647395
 20
504.457212
 30
0.0
 10
229.207395
 20
500.297212
 30
0.0
 10
229.006145
 20
498.610962
 30
0.0
 10
228.317395
 20
497.187212
 30
0.0
 10
227.193645
 20
496.078462
 30
0.0
 10
225.687395
 20
495.337212
 30
0.0
 10
224.769895
 20
495.169712
 30
0.0
 10
223.927395
 20
495.257212
 30
0.0
 10
222.407395
 20
496.137212
 30
0.0
 10
221.633645
 20
496.987212
 30
0.0
 10
221.077395
 20
497.957212
 30
0.0
 10
220.407395
 20
500.137212
 30
0.0
 10
217.207395
 20
514.937212
 30
0.0
 10
216.687395
 20
516.827212
 30
0.0
 10
215.687395
 20
518.537212
 30
0.0
 10
214.237395
 20
519.607212
 30
0.0
 10
213.403645
 20
519.875962
 30
0.0
 10
212.487395
 20
519.897212
 30
0.0
 10
207.927395
 20
519.417212
 30
0.0
 10
196.647395
 20
517.097212
 30
0.0
 10
194.327395
 20
516.457212
 30
0.0
 10
192.622395
 20
515.499712
 30
0.0
 10
191.487395
 20
514.197212
 30
0.0
 10
190.952395
 20
512.564712
 30
0.0
 10
191.047395
 20
510.617212
 30
0.0
 10
194.247395
 20
495.017212
 30
0.0
 10
194.667395
 20
492.947212
 30
0.0
 10
195.207395
 20
490.937212
 30
0.0
 10
195.622395
 20
488.568462
 30
0.0
 10
195.460520
 20
487.504556
 30
0.0
 10
195.047395
 20
486.567212
 30
0.0
 10
194.379270
 20
485.791118
 30
0.0
 10
193.452395
 20
485.210962
 30
0.0
 10
192.263020
 20
484.861431
 30
0.0
 10
190.807395
 20
484.777212
 30
0.0
 10
190.807395
 20
484.777212
 30
0.0
  0
LWPOLYLINE
  5
10a
100
AcDbEntity
  8
Layer_1
 62
7
100
AcDbPolyline
 90
82
 70
0
 10
442.807395
 20
519.657212
 30
0.0
 10
442.983645
 20
518.335962
 30
0.0
 10
443.497395
 20
517.247212
 30
0.0
 10
444.326145
 20
516.383462
 30
0.0
 10
445.447395
 20
515.737212
 30
0.0
 10
449.927395
 20
514.137212
 30
0.0
 10
461.687395
 20
510.457212
 30
0.0
 10
463.347395
 20
509.787212
 30
0.0
 10
464.887395
 20
508.937212
 30
0.0
 10
465.983645
 20
507.938462
 30
0.0
 10
466.517395
 20
506.767212
 30
0.0
 10
466.496145
 20
505.460962
 30
0.0
 10
465.927395
 20
504.057212
 30
0.0
 10
464.631145
 20
502.434712
 30
0.0
 10
463.117395
 20
501.517212
 30
0.0
 10
461.348645
 20
501.289712
 30
0.0
 10
459.287395
 20
501.737212
 30
0.0
 10
444.887395
 20
507.017212
 30
0.0
 10
443.647395
 20
507.377212
 30
0.0
 10
442.407395
 20
507.497212
 30
0.0
 10
440.838645
 20
507.359712
 30
0.0
 10
439.517395
 20
506.817212
 30
0.0
 10
438.481145
 20
505.854712
 30
0.0
 10
437.767395
 20
504.457212
 30
0.0
 10
433.447395
 20
491.017212
 30
0.0
 10
433.204895
 20
489.322212
 30
0.0
 10
433.547395
 20
487.837212
 30
0.0
 10
434.459895
 20
486.562212
 30
0.0
 10
435.927395
 20
485.497212
 30
0.0
 10
442.967395
 20
482.217212
 30
0.0
 10
452.407395
 20
477.977212
 30
0.0
 10
454.226145
 20
476.693462
 30
0.0
 10
455.137395
 20
475.147212
 30
0.0
 10
455.163645
 20
473.375962
 30
0.0
 10
454.327395
 20
471.417212
 30
0.0
 10
453.362395
 20
470.207212
 30
0.0
 10
452.247395
 20
469.477212
 30
0.0
 10
450.952395
 20
469.257212
 30
0.0
 10
449.447395
 20
469.577212
 30
0.0
 10
446.177395
 20
470.997212
 30
0.0
 10
442.967395
 20
472.537212
 30
0.0
 10
428.087395
 20
479.257212
 30
0.0
 10
423.607395
 20
481.497212
 30
0.0
 10
422.669895
 20
482.315962
 30
0.0
 10
422.107395
 20
483.307212
 30
0.0
 10
421.874895
 20
484.433462
 30
0.0
 10
421.927395
 20
485.657212
 30
0.0
 10
422.247395
 20
487.017212
 30
0.0
 10
430.247395
 20
511.497212
 30
0.0
 10
432.567395
 20
519.337212
 30
0.0
 10
434.567395
 20
525.577212
 30
0.0
 10
439.447395
 20
543.657212
 30
0.0
 10
439.527395
 20
543.817212
 30
0.0
 10
440.738645
 20
546.774712
 30
0.0
 10
441.517239
 20
547.791274
 30
0.0
 10
442.437395
 20
548.517212
 30
0.0
 10
443.518801
 20
548.965649
 30
0.0
 10
444.781145
 20
549.149712
 30
0.0
 10
447.927395
 20
548.777212
 30
0.0
 10
455.747395
 20
546.787212
 30
0.0
 10
463.447395
 20
544.377212
 30
0.0
 10
472.087395
 20
541.897212
 30
0.0
 10
474.307395
 20
541.057212
 30
0.0
 10
476.407395
 20
539.977212
 30
0.0
 10
477.494895
 20
539.102212
 30
0.0
 10
478.027395
 20
538.017212
 30
0.0
 10
478.049895
 20
536.692212
 30
0.0
 10
477.607395
 20
535.097212
 30
0.0
 10
476.994895
 20
533.948462
 30
0.0
 10
476.127395
 20
533.167212
 30
0.0
 10
475.019895
 20
532.790962
 30
0.0
 10
473.687395
 20
532.857212
 30
0.0
 10
468.327395
 20
534.377212
 30
0.0
 10
460.657395
 20
536.847212
 30
0.0
 10
452.807395
 20
538.777212
 30
0.0
 10
450.866145
 20
538.954712
 30
0.0
 10
449.337395
 20
538.517212
 30
0.0
 10
448.183645
 20
537.449712
 30
0.0
 10
447.367395
 20
535.737212
 30
0.0
 10
442.967395
 20
521.017212
 30
0.0
 10
442.807395
 20
519.657212
 30
0.0
 10
442.807395
 20
519.657212
 30
0.0
  0
LWPOLYLINE
  5
10b
100
AcDbEntity
  8
Layer_1
 62
7
100
AcDbPolyline
 90
71
 70
0
 10
283.527395
 20
530.297212
 30
0.0
 10
284.087395
 20
518.937212
 30
0.0
 10
284.567395
 20
508.217212
 30
0.0
 10
284.567395
 20
507.417212
 30
0.0
 10
284.149895
 20
506.049712
 30
0.0
 10
283.327395
 20
505.237212
 30
0.0
 10
282.204895
 20
505.054712
 30
0.0
 10
280.887395
 20
505.577212
 30
0.0
 10
279.597395
 20
506.527212
 30
0.0
 10
278.487395
 20
507.657212
 30
0.0
 10
273.847395
 20
513.169712
 30
0.0
 10
268.907395
 20
518.397212
 30
0.0
 10
258.727395
 20
528.537212
 30
0.0
 10
252.647395
 20
534.617212
 30
0.0
 10
252.247395
 20
535.017212
 30
0.0
 10
250.977395
 20
535.837212
 30
0.0
 10
250.278645
 20
535.984712
 30
0.0
 10
249.527395
 20
535.817212
 30
0.0
 10
248.818645
 20
535.359712
 30
0.0
 10
248.357395
 20
534.737212
 30
0.0
 10
248.087395
 20
533.177212
 30
0.0
 10
248.647395
 20
528.057212
 30
0.0
 10
250.487395
 20
513.657212
 30
0.0
 10
251.127395
 20
508.617212
 30
0.0
 10
251.287395
 20
503.577212
 30
0.0
 10
250.986145
 20
502.018462
 30
0.0
 10
250.317395
 20
500.827212
 30
0.0
 10
249.273645
 20
500.010962
 30
0.0
 10
247.847395
 20
499.577212
 30
0.0
 10
246.354895
 20
499.622212
 30
0.0
 10
245.147395
 20
500.117212
 30
0.0
 10
244.269895
 20
501.062212
 30
0.0
 10
243.767395
 20
502.457212
 30
0.0
 10
242.167395
 20
511.897212
 30
0.0
 10
240.887395
 20
521.177212
 30
0.0
 10
238.487395
 20
538.537212
 30
0.0
 10
237.417395
 20
546.707212
 30
0.0
 10
236.887395
 20
554.937212
 30
0.0
 10
236.887395
 20
555.897212
 30
0.0
 10
237.274895
 20
557.462212
 30
0.0
 10
238.127395
 20
558.397212
 30
0.0
 10
239.339895
 20
558.642212
 30
0.0
 10
240.807395
 20
558.137212
 30
0.0
 10
243.047395
 20
556.457212
 30
0.0
 10
250.327395
 20
549.097212
 30
0.0
 10
259.367395
 20
540.137212
 30
0.0
 10
260.327395
 20
539.177212
 30
0.0
 10
268.487395
 20
531.017212
 30
0.0
 10
271.527395
 20
527.577212
 30
0.0
 10
272.957395
 20
526.327212
 30
0.0
 10
273.811145
 20
526.058462
 30
0.0
 10
274.807395
 20
526.217212
 30
0.0
 10
275.626145
 20
526.785962
 30
0.0
 10
276.017395
 20
527.587212
 30
0.0
 10
276.087395
 20
529.497212
 30
0.0
 10
275.607395
 20
540.457212
 30
0.0
 10
274.807395
 20
557.017212
 30
0.0
 10
274.874895
 20
558.813462
 30
0.0
 10
275.347395
 20
560.167212
 30
0.0
 10
276.269895
 20
561.145962
 30
0.0
 10
277.687395
 20
561.817212
 30
0.0
 10
279.426145
 20
562.085962
 30
0.0
 10
280.857395
 20
561.627212
 30
0.0
 10
281.883645
 20
560.523462
 30
0.0
 10
282.407395
 20
558.857212
 30
0.0
 10
282.807395
 20
554.057212
 30
0.0
 10
283.367395
 20
543.097212
 30
0.0
 10
283.767395
 20
534.697212
 30
0.0
 10
283.767395
 20
530.297212
 30
0.0
 10
283.527395
 20
530.297212
 30
0.0
 10
283.527395
 20
530.297212
 30
0.0
  0
LWPOLYLINE
  5
10c
100
AcDbEntity
  8
Layer_1
 62
7
100
AcDbPolyline
 90
106
 70
0
 10
168.407395
 20
494.537212
 30
0.0
 10
168.407395
 20
498.137212
 30
0.0
 10
168.602395
 20
499.263462
 30
0.0
 10
169.067395
 20
500.127212
 30
0.0
 10
169.802395
 20
500.735962
 30
0.0
 10
170.807395
 20
501.097212
 30
0.0
 10
172.777395
 20
501.343462
 30
0.0
 10
174.267395
 20
501.027212
 30
0.0
 10
175.307395
 20
500.005962
 30
0.0
 10
175.927395
 20
498.137212
 30
0.0
 10
176.427395
 20
495.897212
 30
0.0
 10
176.807395
 20
493.657212
 30
0.0
 10
176.769895
 20
489.719712
 30
0.0
 10
176.027395
 20
485.977212
 30
0.0
 10
174.534895
 20
482.474712
 30
0.0
 10
172.247395
 20
479.257212
 30
0.0
 10
170.394895
 20
477.459712
 30
0.0
 10
168.347395
 20
475.977212
 30
0.0
 10
163.847395
 20
473.657212
 30
0.0
 10
160.698645
 20
472.572212
 30
0.0
 10
157.497395
 20
472.057212
 30
0.0
 10
154.251145
 20
472.082212
 30
0.0
 10
150.967395
 20
472.617212
 30
0.0
 10
148.057395
 20
473.327212
 30
0.0
 10
145.207395
 20
474.217212
 30
0.0
 10
143.397395
 20
475.187212
 30
0.0
 10
141.767395
 20
476.457212
 30
0.0
 10
138.237395
 20
479.785962
 30
0.0
 10
135.127395
 20
483.467212
 30
0.0
 10
132.317395
 20
487.403462
 30
0.0
 10
129.687395
 20
491.497212
 30
0.0
 10
128.167395
 20
494.297212
 30
0.0
 10
125.537395
 20
501.527212
 30
0.0
 10
124.466145
 20
505.198462
 30
0.0
 10
123.687395
 20
508.937212
 30
0.0
 10
122.917395
 20
513.257212
 30
0.0
 10
122.327395
 20
517.577212
 30
0.0
 10
122.157395
 20
520.737212
 30
0.0
 10
122.407395
 20
523.897212
 30
0.0
 10
123.249895
 20
527.774712
 30
0.0
 10
124.527395
 20
531.457212
 30
0.0
 10
126.344895
 20
534.899712
 30
0.0
 10
128.807395
 20
538.057212
 30
0.0
 10
131.527395
 20
540.457212
 30
0.0
 10
134.010364
 20
542.006899
 30
0.0
 10
136.541145
 20
543.284712
 30
0.0
 10
139.122551
 20
544.273774
 30
0.0
 10
141.757395
 20
544.957212
 30
0.0
 10
144.448489
 20
545.318149
 30
0.0
 10
147.198645
 20
545.339712
 30
0.0
 10
150.010676
 20
545.005024
 30
0.0
 10
152.887395
 20
544.297212
 30
0.0
 10
156.924895
 20
542.545962
 30
0.0
 10
158.689583
 20
541.396118
 30
0.0
 10
160.287395
 20
540.067212
 30
0.0
 10
162.989895
 20
536.883462
 30
0.0
 10
165.047395
 20
533.017212
 30
0.0
 10
165.457395
 20
531.607212
 30
0.0
 10
165.687395
 20
530.137212
 30
0.0
 10
165.607395
 20
528.932212
 30
0.0
 10
165.167395
 20
527.937212
 30
0.0
 10
164.427395
 20
527.122212
 30
0.0
 10
163.447395
 20
526.457212
 30
0.0
 10
162.371145
 20
526.069712
 30
0.0
 10
161.317395
 20
525.997212
 30
0.0
 10
160.308645
 20
526.254712
 30
0.0
 10
159.367395
 20
526.857212
 30
0.0
 10
157.367395
 20
529.017212
 30
0.0
 10
155.563645
 20
531.323462
 30
0.0
 10
153.437395
 20
533.247212
 30
0.0
 10
151.056145
 20
534.855962
 30
0.0
 10
148.487395
 20
536.217212
 30
0.0
 10
147.019895
 20
536.763462
 30
0.0
 10
145.507395
 20
536.987212
 30
0.0
 10
143.964895
 20
536.925962
 30
0.0
 10
142.407395
 20
536.617212
 30
0.0
 10
139.039895
 20
535.325962
 30
0.0
 10
136.287395
 20
533.367212
 30
0.0
 10
135.155833
 20
532.135181
 30
0.0
 10
134.194895
 20
530.733462
 30
0.0
 10
132.807395
 20
527.417212
 30
0.0
 10
131.977395
 20
523.803462
 30
0.0
 10
131.567395
 20
520.167212
 30
0.0
 10
131.637395
 20
516.515962
 30
0.0
 10
132.247395
 20
512.857212
 30
0.0
 10
133.927395
 20
504.857212
 30
0.0
 10
134.849895
 20
501.274712
 30
0.0
 10
136.147395
 20
497.857212
 30
0.0
 10
137.774895
 20
494.619712
 30
0.0
 10
139.687395
 20
491.577212
 30
0.0
 10
142.389895
 20
488.123462
 30
0.0
 10
145.527395
 20
485.127212
 30
0.0
 10
147.292083
 20
483.877993
 30
0.0
 10
149.204895
 20
482.835962
 30
0.0
 10
151.278958
 20
482.032056
 30
0.0
 10
153.527395
 20
481.497212
 30
0.0
 10
156.977395
 20
481.257212
 30
0.0
 10
160.487395
 20
481.497212
 30
0.0
 10
162.981145
 20
482.214712
 30
0.0
 10
164.957395
 20
483.577212
 30
0.0
 10
166.438645
 20
485.479712
 30
0.0
 10
167.447395
 20
487.817212
 30
0.0
 10
168.097395
 20
491.107212
 30
0.0
 10
168.567395
 20
494.457212
 30
0.0
 10
168.407395
 20
494.537212
 30
0.0
 10
168.407395
 20
494.537212
 30
0.0
  0
LWPOLYLINE
  5
10d
100
AcDbEntity
  8
Layer_1
 62
7
100
AcDbPolyline
 90
90
 70
0
 10
316.247395
 20
563.657212
 30
0.0
 10
324.407395
 20
563.657212
 30
0.0
 10
327.767395
 20
563.457212
 30
0.0
 10
331.127395
 20
563.017212
 30
0.0
 10
332.121145
 20
562.753462
 30
0.0
 10
333.017395
 20
562.287212
 30
0.0
 10
333.748645
 20
561.565962
 30
0.0
 10
334.247395
 20
560.537212
 30
0.0
 10
334.412395
 20
559.538462
 30
0.0
 10
334.307395
 20
558.607212
 30
0.0
 10
333.932395
 20
557.780962
 30
0.0
 10
333.287395
 20
557.097212
 30
0.0
 10
331.907395
 20
556.367212
 30
0.0
 10
330.407395
 20
556.057212
 30
0.0
 10
328.327395
 20
556.047212
 30
0.0
 10
326.247395
 20
556.217212
 30
0.0
 10
323.847395
 20
556.057212
 30
0.0
 10
313.127395
 20
555.657212
 30
0.0
 10
311.767395
 20
555.507212
 30
0.0
 10
310.407395
 20
555.177212
 30
0.0
 10
309.414895
 20
554.639712
 30
0.0
 10
308.707395
 20
553.877212
 30
0.0
 10
308.269895
 20
552.904712
 30
0.0
 10
308.087395
 20
551.737212
 30
0.0
 10
307.847395
 20
544.217212
 30
0.0
 10
307.938645
 20
542.929712
 30
0.0
 10
308.337395
 20
541.837212
 30
0.0
 10
309.051145
 20
540.954712
 30
0.0
 10
310.087395
 20
540.297212
 30
0.0
 10
311.937395
 20
539.637212
 30
0.0
 10
313.847395
 20
539.337212
 30
0.0
 10
324.407395
 20
539.177212
 30
0.0
 10
329.927395
 20
538.777212
 30
0.0
 10
331.424895
 20
538.335962
 30
0.0
 10
332.607395
 20
537.467212
 30
0.0
 10
333.369895
 20
536.313462
 30
0.0
 10
333.607395
 20
535.017212
 30
0.0
 10
333.241145
 20
533.653462
 30
0.0
 10
332.357395
 20
532.447212
 30
0.0
 10
331.098645
 20
531.585962
 30
0.0
 10
329.607395
 20
531.257212
 30
0.0
 10
323.447395
 20
531.577212
 30
0.0
 10
320.887395
 20
531.657212
 30
0.0
 10
313.127395
 20
531.417212
 30
0.0
 10
311.022395
 20
531.088462
 30
0.0
 10
309.367395
 20
530.107212
 30
0.0
 10
308.312395
 20
528.480962
 30
0.0
 10
308.007395
 20
526.217212
 30
0.0
 10
308.007395
 20
518.457212
 30
0.0
 10
308.267395
 20
515.954712
 30
0.0
 10
309.127395
 20
514.217212
 30
0.0
 10
310.707395
 20
513.079712
 30
0.0
 10
313.127395
 20
512.377212
 30
0.0
 10
315.927395
 20
512.137212
 30
0.0
 10
328.247395
 20
511.417212
 30
0.0
 10
330.007395
 20
511.017212
 30
0.0
 10
331.187395
 20
510.453462
 30
0.0
 10
332.067395
 20
509.627212
 30
0.0
 10
332.617395
 20
508.575962
 30
0.0
 10
332.807395
 20
507.337212
 30
0.0
 10
332.606145
 20
506.319712
 30
0.0
 10
332.037395
 20
505.377212
 30
0.0
 10
331.153645
 20
504.614712
 30
0.0
 10
330.007395
 20
504.137212
 30
0.0
 10
328.357395
 20
503.927212
 30
0.0
 10
326.647395
 20
503.897212
 30
0.0
 10
323.687395
 20
504.217212
 30
0.0
 10
314.967395
 20
504.617212
 30
0.0
 10
303.607395
 20
505.337212
 30
0.0
 10
301.936145
 20
505.633462
 30
0.0
 10
300.737395
 20
506.327212
 30
0.0
 10
299.973645
 20
507.485962
 30
0.0
 10
299.607395
 20
509.177212
 30
0.0
 10
299.477395
 20
512.827212
 30
0.0
 10
299.527395
 20
516.537212
 30
0.0
 10
299.527395
 20
521.337212
 30
0.0
 10
299.527395
 20
525.257212
 30
0.0
 10
299.447395
 20
535.257212
 30
0.0
 10
299.207395
 20
541.257212
 30
0.0
 10
299.207395
 20
554.857212
 30
0.0
 10
299.207395
 20
559.817212
 30
0.0
 10
299.401145
 20
560.830962
 30
0.0
 10
299.857395
 20
561.687212
 30
0.0
 10
300.568645
 20
562.348462
 30
0.0
 10
301.527395
 20
562.777212
 30
0.0
 10
304.327395
 20
563.447212
 30
0.0
 10
307.127395
 20
563.817212
 30
0.0
 10
316.087395
 20
563.897212
 30
0.0
 10
316.247395
 20
563.657212
 30
0.0
 10
316.247395
 20
563.657212
 30
0.0
  0
LWPOLYLINE
  5
10e
100
AcDbEntity
  8
Layer_1
 62
7
100
AcDbPolyline
 90
34
 70
0
 10
347.127395
 20
507.097212
 30
0.0
 10
348.727395
 20
526.297212
 30
0.0
 10
348.727395
 20
526.697212
 30
0.0
 10
349.687395
 20
543.817212
 30
0.0
 10
350.237395
 20
548.967212
 30
0.0
 10
350.967395
 20
554.057212
 30
0.0
 10
351.237395
 20
556.127212
 30
0.0
 10
351.687395
 20
558.137212
 30
0.0
 10
352.619895
 20
560.073462
 30
0.0
 10
354.107395
 20
561.267212
 30
0.0
 10
355.984895
 20
561.635962
 30
0.0
 10
358.087395
 20
561.097212
 30
0.0
 10
359.134895
 20
560.425962
 30
0.0
 10
359.867395
 20
559.507212
 30
0.0
 10
360.269895
 20
558.363462
 30
0.0
 10
360.327395
 20
557.017212
 30
0.0
 10
359.287395
 20
546.137212
 30
0.0
 10
358.727395
 20
539.017212
 30
0.0
 10
357.607395
 20
527.737212
 30
0.0
 10
356.727395
 20
517.257212
 30
0.0
 10
355.447395
 20
506.217212
 30
0.0
 10
355.047395
 20
504.667212
 30
0.0
 10
354.407395
 20
503.177212
 30
0.0
 10
353.754895
 20
502.202212
 30
0.0
 10
352.907395
 20
501.557212
 30
0.0
 10
351.909895
 20
501.242212
 30
0.0
 10
350.807395
 20
501.257212
 30
0.0
 10
349.333645
 20
501.665962
 30
0.0
 10
348.257395
 20
502.307212
 30
0.0
 10
347.556145
 20
503.203462
 30
0.0
 10
347.207395
 20
504.377212
 30
0.0
 10
347.207395
 20
506.937212
 30
0.0
 10
347.127395
 20
507.097212
 30
0.0
 10
347.127395
 20
507.097212
 30
0.0
  0
LWPOLYLINE
  5
10f
100
AcDbEntity
  8
Layer_1
 62
7
100
AcDbPolyline
 90
88
 70
0
 10
441.767395
 20
357.177212
 30
0.0
 10
441.767395
 20
371.577212
 30
0.0
 10
442.007395
 20
385.337212
 30
0.0
 10
441.767395
 20
395.497212
 30
0.0
 10
442.087395
 20
398.457212
 30
0.0
 10
442.777395
 20
400.017212
 30
0.0
 10
444.007395
 20
401.097212
 30
0.0
 10
445.911145
 20
401.728462
 30
0.0
 10
446.770676
 20
401.680806
 30
0.0
 10
447.537395
 20
401.407212
 30
0.0
 10
448.187864
 20
400.919868
 30
0.0
 10
448.698645
 20
400.230962
 30
0.0
 10
449.207395
 20
398.297212
 30
0.0
 10
449.207395
 20
391.337212
 30
0.0
 10
449.127395
 20
380.777212
 30
0.0
 10
449.287395
 20
379.177212
 30
0.0
 10
449.764895
 20
377.755962
 30
0.0
 10
450.587395
 20
376.747212
 30
0.0
 10
451.739895
 20
376.173462
 30
0.0
 10
453.207395
 20
376.057212
 30
0.0
 10
456.077395
 20
376.447212
 30
0.0
 10
458.887395
 20
377.017212
 30
0.0
 10
464.727395
 20
378.137212
 30
0.0
 10
466.542395
 20
378.620962
 30
0.0
 10
467.847395
 20
379.427212
 30
0.0
 10
468.732395
 20
380.668462
 30
0.0
 10
469.287395
 20
382.457212
 30
0.0
 10
469.687395
 20
386.377212
 30
0.0
 10
469.607395
 20
401.177212
 30
0.0
 10
469.717395
 20
403.557212
 30
0.0
 10
469.978645
 20
404.709712
 30
0.0
 10
470.487395
 20
405.817212
 30
0.0
 10
471.197395
 20
406.787212
 30
0.0
 10
472.087395
 20
407.577212
 30
0.0
 10
473.569895
 20
408.162212
 30
0.0
 10
475.067395
 20
408.117212
 30
0.0
 10
475.732708
 20
407.802212
 30
0.0
 10
476.294895
 20
407.262212
 30
0.0
 10
476.718333
 20
406.474712
 30
0.0
 10
476.967395
 20
405.417212
 30
0.0
 10
477.207395
 20
401.647212
 30
0.0
 10
477.207395
 20
397.817212
 30
0.0
 10
476.967395
 20
393.417212
 30
0.0
 10
477.207395
 20
379.657212
 30
0.0
 10
476.967395
 20
377.497212
 30
0.0
 10
477.367395
 20
357.737212
 30
0.0
 10
477.207395
 20
344.937212
 30
0.0
 10
477.072395
 20
343.505962
 30
0.0
 10
476.727395
 20
342.127212
 30
0.0
 10
476.082395
 20
340.853462
 30
0.0
 10
475.047395
 20
339.737212
 30
0.0
 10
474.131145
 20
339.153462
 30
0.0
 10
473.177395
 20
338.847212
 30
0.0
 10
472.178645
 20
338.825962
 30
0.0
 10
471.127395
 20
339.097212
 30
0.0
 10
470.256145
 20
339.640962
 30
0.0
 10
469.737395
 20
340.387212
 30
0.0
 10
469.367395
 20
342.217212
 30
0.0
 10
469.207395
 20
350.217212
 30
0.0
 10
469.367395
 20
363.017212
 30
0.0
 10
469.457395
 20
364.977212
 30
0.0
 10
469.367395
 20
366.937212
 30
0.0
 10
468.757395
 20
368.909712
 30
0.0
 10
467.727395
 20
370.177212
 30
0.0
 10
466.217395
 20
370.784712
 30
0.0
 10
464.167395
 20
370.777212
 30
0.0
 10
455.687395
 20
369.737212
 30
0.0
 10
453.177395
 20
369.077212
 30
0.0
 10
450.967395
 20
367.817212
 30
0.0
 10
449.902395
 20
366.732212
 30
0.0
 10
449.287395
 20
365.437212
 30
0.0
 10
449.032395
 20
363.992212
 30
0.0
 10
449.047395
 20
362.457212
 30
0.0
 10
449.047395
 20
358.537212
 30
0.0
 10
449.287395
 20
354.937212
 30
0.0
 10
449.287395
 20
339.337212
 30
0.0
 10
449.167395
 20
338.027212
 30
0.0
 10
448.807395
 20
336.777212
 30
0.0
 10
448.256145
 20
335.805962
 30
0.0
 10
447.397395
 20
335.187212
 30
0.0
 10
446.343645
 20
334.943462
 30
0.0
 10
445.207395
 20
335.097212
 30
0.0
 10
443.724895
 20
335.832212
 30
0.0
 10
442.647395
 20
336.957212
 30
0.0
 10
441.989895
 20
338.472212
 30
0.0
 10
441.767395
 20
340.377212
 30
0.0
 10
441.767395
 20
357.177212
 30
0.0
 10
441.767395
 20
357.177212
 30
0.0
  0
LWPOLYLINE
  5
110
100
AcDbEntity
  8
Layer_1
 62
7
100
AcDbPolyline
 90
81
 70
0
 10
123.828128
 20
405.917892
 30
0.0
 10
122.557816
 20
405.072580
 30
0.0
 10
121.767184
 20
403.417892
 30
0.0
 10
121.446872
 20
400.297580
 30
0.0
 10
121.846872
 20
386.777268
 30
0.0
 10
121.767184
 20
384.377268
 30
0.0
 10
121.528128
 20
379.177268
 30
0.0
 10
122.087504
 20
367.417892
 30
0.0
 10
122.246872
 20
345.497580
 30
0.0
 10
122.487504
 20
342.936636
 30
0.0
 10
122.687504
 20
342.016324
 30
0.0
 10
123.128128
 20
341.267892
 30
0.0
 10
124.487504
 20
340.136636
 30
0.0
 10
125.575000
 20
339.705388
 30
0.0
 10
126.528128
 20
339.736636
 30
0.0
 10
127.300000
 20
340.249140
 30
0.0
 10
127.846872
 20
341.256948
 30
0.0
 10
128.807816
 20
344.767892
 30
0.0
 10
129.040624
 20
346.578828
 30
0.0
 10
129.046872
 20
348.456948
 30
0.0
 10
128.917184
 20
352.106948
 30
0.0
 10
128.967184
 20
355.817892
 30
0.0
 10
128.967184
 20
357.817892
 30
0.0
 10
128.967184
 20
363.177268
 30
0.0
 10
129.292184
 20
364.685076
 30
0.0
 10
130.067184
 20
365.997580
 30
0.0
 10
131.171872
 20
366.980388
 30
0.0
 10
132.487504
 20
367.497580
 30
0.0
 10
133.662496
 20
367.499140
 30
0.0
 10
134.746872
 20
367.036636
 30
0.0
 10
135.682816
 20
366.124140
 30
0.0
 10
136.407816
 20
364.777268
 30
0.0
 10
143.287504
 20
347.097580
 30
0.0
 10
148.487504
 20
335.017892
 30
0.0
 10
149.557816
 20
333.417892
 30
0.0
 10
151.046872
 20
332.056948
 30
0.0
 10
152.470312
 20
331.436636
 30
0.0
 10
153.907816
 20
331.647580
 30
0.0
 10
155.075000
 20
332.563204
 30
0.0
 10
155.687504
 20
334.056948
 30
0.0
 10
155.707816
 20
335.417892
 30
0.0
 10
155.367184
 20
336.777268
 30
0.0
 10
153.207816
 20
342.377268
 30
0.0
 10
150.096872
 20
349.517892
 30
0.0
 10
147.287504
 20
356.777268
 30
0.0
 10
143.996872
 20
364.677268
 30
0.0
 10
142.326560
 20
368.635076
 30
0.0
 10
140.887504
 20
372.697580
 30
0.0
 10
140.467184
 20
375.047580
 30
0.0
 10
140.550000
 20
376.196012
 30
0.0
 10
140.887504
 20
377.336636
 30
0.0
 10
141.767184
 20
379.027268
 30
0.0
 10
142.887504
 20
380.536636
 30
0.0
 10
154.246872
 20
393.097580
 30
0.0
 10
155.687504
 20
395.017892
 30
0.0
 10
156.051560
 20
396.121012
 30
0.0
 10
155.957816
 20
397.127268
 30
0.0
 10
155.428128
 20
397.999140
 30
0.0
 10
154.487504
 20
398.697580
 30
0.0
 10
153.454688
 20
399.099140
 30
0.0
 10
152.407816
 20
399.217892
 30
0.0
 10
151.359376
 20
399.035076
 30
0.0
 10
150.328128
 20
398.536636
 30
0.0
 10
148.917184
 20
397.586636
 30
0.0
 10
147.687504
 20
396.456948
 30
0.0
 10
143.528128
 20
391.336636
 30
0.0
 10
134.167184
 20
380.456948
 30
0.0
 10
132.807816
 20
379.256948
 30
0.0
 10
131.590624
 20
378.714764
 30
0.0
 10
130.507816
 20
378.756948
 30
0.0
 10
129.634376
 20
379.369452
 30
0.0
 10
129.046872
 20
380.536636
 30
0.0
 10
128.696872
 20
382.386636
 30
0.0
 10
128.646872
 20
384.297580
 30
0.0
 10
128.887504
 20
390.856948
 30
0.0
 10
128.567184
 20
401.417892
 30
0.0
 10
128.157816
 20
403.356948
 30
0.0
 10
126.967184
 20
404.936636
 30
0.0
 10
125.367184
 20
405.892892
 30
0.0
 10
123.828128
 20
405.917892
 30
0.0
 10
123.828128
 20
405.917892
 30
0.0
  0
LWPOLYLINE
  5
111
100
AcDbEntity
  8
Layer_1
 62
7
100
AcDbPolyline
 90
66
 70
0
 10
167.928128
 20
397.817892
 30
0.0
 10
166.400000
 20
397.802260
 30
0.0
 10
165.128128
 20
397.217892
 30
0.0
 10
164.215624
 20
396.152260
 30
0.0
 10
163.767184
 20
394.697580
 30
0.0
 10
163.596872
 20
391.817892
 30
0.0
 10
163.607816
 20
388.936636
 30
0.0
 10
163.607816
 20
381.736636
 30
0.0
 10
163.528128
 20
374.377268
 30
0.0
 10
164.087504
 20
364.456948
 30
0.0
 10
163.846872
 20
357.897580
 30
0.0
 10
164.087504
 20
351.736636
 30
0.0
 10
164.246872
 20
340.936636
 30
0.0
 10
164.646872
 20
337.977268
 30
0.0
 10
165.379688
 20
336.622580
 30
0.0
 10
166.487504
 20
335.956948
 30
0.0
 10
167.775000
 20
336.042892
 30
0.0
 10
169.046872
 20
336.936636
 30
0.0
 10
169.746872
 20
337.892892
 30
0.0
 10
170.196872
 20
338.936636
 30
0.0
 10
170.567184
 20
341.177268
 30
0.0
 10
170.567184
 20
344.777268
 30
0.0
 10
170.807816
 20
350.377268
 30
0.0
 10
170.487504
 20
355.977268
 30
0.0
 10
170.557816
 20
357.486636
 30
0.0
 10
170.807816
 20
358.936636
 30
0.0
 10
170.962496
 20
359.905388
 30
0.0
 10
171.328128
 20
360.747580
 30
0.0
 10
171.932816
 20
361.424140
 30
0.0
 10
172.807816
 20
361.897580
 30
0.0
 10
173.721872
 20
362.047580
 30
0.0
 10
174.546872
 20
361.836636
 30
0.0
 10
175.928128
 20
360.697580
 30
0.0
 10
177.687504
 20
358.056948
 30
0.0
 10
183.367184
 20
346.377268
 30
0.0
 10
184.446872
 20
344.306948
 30
0.0
 10
185.767184
 20
342.297580
 30
0.0
 10
186.928128
 20
341.236636
 30
0.0
 10
188.328128
 20
340.536636
 30
0.0
 10
189.887504
 20
340.442892
 30
0.0
 10
191.087504
 20
341.106948
 30
0.0
 10
191.746872
 20
342.325700
 30
0.0
 10
191.687504
 20
343.897580
 30
0.0
 10
190.328128
 20
347.656948
 30
0.0
 10
185.846872
 20
357.256948
 30
0.0
 10
184.087504
 20
361.897580
 30
0.0
 10
183.885936
 20
363.110076
 30
0.0
 10
184.096872
 20
364.217892
 30
0.0
 10
184.684376
 20
365.205388
 30
0.0
 10
185.607816
 20
366.056948
 30
0.0
 10
188.567184
 20
368.456948
 30
0.0
 10
190.742184
 20
370.883516
 30
0.0
 10
192.346872
 20
373.586636
 30
0.0
 10
193.382816
 20
376.546012
 30
0.0
 10
193.846872
 20
379.736636
 30
0.0
 10
193.757816
 20
382.278828
 30
0.0
 10
193.225000
 20
384.716324
 30
0.0
 10
192.298440
 20
387.000700
 30
0.0
 10
191.028128
 20
389.086636
 30
0.0
 10
189.464064
 20
390.930388
 30
0.0
 10
187.659376
 20
392.483516
 30
0.0
 10
185.664064
 20
393.700700
 30
0.0
 10
183.528128
 20
394.536636
 30
0.0
 10
175.757816
 20
396.356948
 30
0.0
 10
167.928128
 20
397.817892
 30
0.0
 10
167.928128
 20
397.817892
 30
0.0
  0
LWPOLYLINE
  5
112
100
AcDbEntity
  8
Layer_1
 62
7
100
AcDbPolyline
 90
28
 70
0
 10
173.998440
 20
390.085076
 30
0.0
 10
175.846872
 20
389.897580
 30
0.0
 10
181.128128
 20
388.136636
 30
0.0
 10
183.717184
 20
386.683516
 30
0.0
 10
184.700000
 20
385.767892
 30
0.0
 10
185.467184
 20
384.727268
 30
0.0
 10
186.018752
 20
383.563204
 30
0.0
 10
186.346872
 20
382.275700
 30
0.0
 10
186.328128
 20
379.336636
 30
0.0
 10
185.993752
 20
377.421012
 30
0.0
 10
185.457816
 20
375.586636
 30
0.0
 10
184.515624
 20
373.949140
 30
0.0
 10
182.967184
 20
372.617892
 30
0.0
 10
180.657816
 20
371.488204
 30
0.0
 10
178.287504
 20
370.847580
 30
0.0
 10
175.857816
 20
370.671012
 30
0.0
 10
173.367184
 20
370.936636
 30
0.0
 10
172.162496
 20
371.400700
 30
0.0
 10
171.228128
 20
372.247580
 30
0.0
 10
170.621872
 20
373.378828
 30
0.0
 10
170.407816
 20
374.697580
 30
0.0
 10
170.407816
 20
382.856948
 30
0.0
 10
170.007816
 20
382.856948
 30
0.0
 10
170.567184
 20
386.777268
 30
0.0
 10
171.290624
 20
388.480388
 30
0.0
 10
172.457816
 20
389.597580
 30
0.0
 10
173.998440
 20
390.085076
 30
0.0
 10
173.998440
 20
390.085076
 30
0.0
  0
LWPOLYLINE
  5
113
100
AcDbEntity
  8
Layer_1
 62
7
100
AcDbPolyline
 90
94
 70
0
 10
418.087395
 20
342.537212
 30
0.0
 10
414.617395
 20
342.847212
 30
0.0
 10
411.207395
 20
343.337212
 30
0.0
 10
408.594895
 20
344.113462
 30
0.0
 10
406.267395
 20
345.347212
 30
0.0
 10
404.209895
 20
347.015962
 30
0.0
 10
402.407395
 20
349.097212
 30
0.0
 10
400.483645
 20
352.210962
 30
0.0
 10
399.077395
 20
355.527212
 30
0.0
 10
398.076145
 20
359.008462
 30
0.0
 10
397.367395
 20
362.617212
 30
0.0
 10
396.892395
 20
366.682212
 30
0.0
 10
396.867395
 20
370.717212
 30
0.0
 10
397.232395
 20
374.722212
 30
0.0
 10
397.927395
 20
378.697212
 30
0.0
 10
398.738020
 20
381.779556
 30
0.0
 10
399.852395
 20
384.650962
 30
0.0
 10
401.274270
 20
387.287993
 30
0.0
 10
403.007395
 20
389.667212
 30
0.0
 10
405.055520
 20
391.765181
 30
0.0
 10
407.422395
 20
393.558462
 30
0.0
 10
410.111770
 20
395.023618
 30
0.0
 10
413.127395
 20
396.137212
 30
0.0
 10
415.547864
 20
396.733306
 30
0.0
 10
417.941145
 20
397.065962
 30
0.0
 10
420.295051
 20
397.111743
 30
0.0
 10
422.597395
 20
396.847212
 30
0.0
 10
424.835989
 20
396.248931
 30
0.0
 10
426.998645
 20
395.293462
 30
0.0
 10
429.073176
 20
393.957368
 30
0.0
 10
431.047395
 20
392.217212
 30
0.0
 10
432.179895
 20
390.873462
 30
0.0
 10
433.087395
 20
389.387212
 30
0.0
 10
434.407395
 20
386.137212
 30
0.0
 10
434.667395
 20
384.505962
 30
0.0
 10
434.387395
 20
383.107212
 30
0.0
 10
433.597395
 20
381.963462
 30
0.0
 10
432.327395
 20
381.097212
 30
0.0
 10
431.327395
 20
380.783462
 30
0.0
 10
430.387395
 20
380.807212
 30
0.0
 10
429.537395
 20
381.175962
 30
0.0
 10
428.807395
 20
381.897212
 30
0.0
 10
427.877395
 20
383.317212
 30
0.0
 10
427.127395
 20
384.857212
 30
0.0
 10
425.780833
 20
387.171899
 30
0.0
 10
424.034895
 20
388.869712
 30
0.0
 10
422.000208
 20
390.001274
 30
0.0
 10
419.787395
 20
390.617212
 30
0.0
 10
417.507083
 20
390.768149
 30
0.0
 10
415.269895
 20
390.504712
 30
0.0
 10
413.186458
 20
389.877524
 30
0.0
 10
411.367395
 20
388.937212
 30
0.0
 10
409.587395
 20
387.357212
 30
0.0
 10
408.167395
 20
385.417212
 30
0.0
 10
406.614895
 20
382.607212
 30
0.0
 10
405.467395
 20
379.677212
 30
0.0
 10
404.769895
 20
376.597212
 30
0.0
 10
404.567395
 20
373.337212
 30
0.0
 10
404.487395
 20
366.777212
 30
0.0
 10
405.367395
 20
360.857212
 30
0.0
 10
406.254895
 20
357.873462
 30
0.0
 10
407.607395
 20
355.167212
 30
0.0
 10
409.439895
 20
352.745962
 30
0.0
 10
411.767395
 20
350.617212
 30
0.0
 10
413.520833
 20
349.600962
 30
0.0
 10
415.579895
 20
348.967212
 30
0.0
 10
417.822708
 20
348.738462
 30
0.0
 10
420.127395
 20
348.937212
 30
0.0
 10
422.372083
 20
349.585962
 30
0.0
 10
424.434895
 20
350.707212
 30
0.0
 10
426.193958
 20
352.323462
 30
0.0
 10
427.527395
 20
354.457212
 30
0.0
 10
428.697395
 20
356.267212
 30
0.0
 10
430.167395
 20
357.897212
 30
0.0
 10
430.938645
 20
358.454712
 30
0.0
 10
431.777395
 20
358.697212
 30
0.0
 10
432.631145
 20
358.639712
 30
0.0
 10
433.447395
 20
358.297212
 30
0.0
 10
434.119895
 20
357.775962
 30
0.0
 10
434.567395
 20
357.067212
 30
0.0
 10
434.774895
 20
356.193462
 30
0.0
 10
434.727395
 20
355.177212
 30
0.0
 10
434.567395
 20
354.377212
 30
0.0
 10
432.449895
 20
350.440962
 30
0.0
 10
431.178333
 20
348.697368
 30
0.0
 10
429.747395
 20
347.127212
 30
0.0
 10
428.143958
 20
345.748306
 30
0.0
 10
426.354895
 20
344.578462
 30
0.0
 10
424.367083
 20
343.635493
 30
0.0
 10
422.167395
 20
342.937212
 30
0.0
 10
420.087395
 20
342.677212
 30
0.0
 10
418.007395
 20
342.537212
 30
0.0
 10
418.087395
 20
342.537212
 30
0.0
 10
418.087395
 20
342.537212
 30
0.0
  0
LWPOLYLINE
  5
114
100
AcDbEntity
  8
Layer_1
 62
7
100
AcDbPolyline
 90
76
 70
0
 10
224.407395
 20
384.217212
 30
0.0
 10
217.287395
 20
384.857212
 30
0.0
 10
216.727395
 20
384.857212
 30
0.0
 10
214.387395
 20
384.693462
 30
0.0
 10
212.827395
 20
383.907212
 30
0.0
 10
211.957395
 20
382.415962
 30
0.0
 10
211.687395
 20
380.137212
 30
0.0
 10
212.087395
 20
375.817212
 30
0.0
 10
212.411145
 20
374.842212
 30
0.0
 10
212.997395
 20
374.077212
 30
0.0
 10
213.808645
 20
373.522212
 30
0.0
 10
214.807395
 20
373.177212
 30
0.0
 10
216.647395
 20
372.767212
 30
0.0
 10
218.487395
 20
372.537212
 30
0.0
 10
227.687395
 20
372.697212
 30
0.0
 10
229.617395
 20
372.517212
 30
0.0
 10
230.533645
 20
372.157212
 30
0.0
 10
231.367395
 20
371.497212
 30
0.0
 10
232.008645
 20
370.562212
 30
0.0
 10
232.237395
 20
369.597212
 30
0.0
 10
232.031145
 20
368.662212
 30
0.0
 10
231.367395
 20
367.817212
 30
0.0
 10
230.137395
 20
366.997212
 30
0.0
 10
228.727395
 20
366.537212
 30
0.0
 10
226.367395
 20
366.247212
 30
0.0
 10
224.007395
 20
366.137212
 30
0.0
 10
216.247395
 20
365.737212
 30
0.0
 10
214.457395
 20
365.309712
 30
0.0
 10
213.147395
 20
364.477212
 30
0.0
 10
212.287395
 20
363.194712
 30
0.0
 10
211.847395
 20
361.417212
 30
0.0
 10
211.697395
 20
358.937212
 30
0.0
 10
211.847395
 20
356.457212
 30
0.0
 10
212.414895
 20
354.550962
 30
0.0
 10
213.507395
 20
353.207212
 30
0.0
 10
215.109895
 20
352.508462
 30
0.0
 10
217.207395
 20
352.537212
 30
0.0
 10
228.007395
 20
354.217212
 30
0.0
 10
228.407395
 20
354.297212
 30
0.0
 10
229.734895
 20
354.197212
 30
0.0
 10
230.807395
 20
353.797212
 30
0.0
 10
231.579895
 20
353.127212
 30
0.0
 10
232.007395
 20
352.217212
 30
0.0
 10
231.957395
 20
351.219712
 30
0.0
 10
231.487395
 20
350.237212
 30
0.0
 10
230.657395
 20
349.404712
 30
0.0
 10
229.527395
 20
348.857212
 30
0.0
 10
222.007395
 20
347.097212
 30
0.0
 10
210.647395
 20
345.097212
 30
0.0
 10
208.904895
 20
344.950962
 30
0.0
 10
207.507395
 20
345.247212
 30
0.0
 10
206.439895
 20
346.008462
 30
0.0
 10
205.687395
 20
347.257212
 30
0.0
 10
205.357395
 20
348.497212
 30
0.0
 10
205.207395
 20
349.737212
 30
0.0
 10
205.047395
 20
362.457212
 30
0.0
 10
205.047395
 20
367.417212
 30
0.0
 10
204.967395
 20
384.377212
 30
0.0
 10
205.127395
 20
387.577212
 30
0.0
 10
205.574895
 20
389.215962
 30
0.0
 10
206.427395
 20
390.427212
 30
0.0
 10
207.669895
 20
391.233462
 30
0.0
 10
209.287395
 20
391.657212
 30
0.0
 10
211.687395
 20
391.657212
 30
0.0
 10
228.967395
 20
390.137212
 30
0.0
 10
230.484895
 20
389.785962
 30
0.0
 10
231.627395
 20
389.127212
 30
0.0
 10
232.319895
 20
388.213462
 30
0.0
 10
232.487395
 20
387.097212
 30
0.0
 10
232.169895
 20
386.088462
 30
0.0
 10
231.387395
 20
385.267212
 30
0.0
 10
230.214895
 20
384.700962
 30
0.0
 10
228.727395
 20
384.457212
 30
0.0
 10
224.567395
 20
384.457212
 30
0.0
 10
224.407395
 20
384.217212
 30
0.0
 10
224.407395
 20
384.217212
 30
0.0
  0
LWPOLYLINE
  5
115
100
AcDbEntity
  8
Layer_1
 62
7
100
AcDbPolyline
 90
46
 70
0
 10
362.247395
 20
351.257212
 30
0.0
 10
360.768645
 20
351.569712
 30
0.0
 10
359.717395
 20
352.317212
 30
0.0
 10
359.131145
 20
353.394712
 30
0.0
 10
359.047395
 20
354.697212
 30
0.0
 10
359.687395
 20
357.017212
 30
0.0
 10
362.967395
 20
364.057212
 30
0.0
 10
363.687395
 20
365.497212
 30
0.0
 10
371.127395
 20
382.697212
 30
0.0
 10
373.207395
 20
387.017212
 30
0.0
 10
374.247395
 20
388.457212
 30
0.0
 10
375.287395
 20
389.320962
 30
0.0
 10
376.327395
 20
389.607212
 30
0.0
 10
377.307395
 20
389.278462
 30
0.0
 10
378.167395
 20
388.297212
 30
0.0
 10
379.927395
 20
384.957212
 30
0.0
 10
381.447395
 20
381.497212
 30
0.0
 10
384.327395
 20
373.897212
 30
0.0
 10
386.327395
 20
368.697212
 30
0.0
 10
389.767395
 20
359.887212
 30
0.0
 10
393.687395
 20
351.257212
 30
0.0
 10
394.327395
 20
349.417212
 30
0.0
 10
394.269895
 20
348.068462
 30
0.0
 10
393.687395
 20
347.087212
 30
0.0
 10
392.684895
 20
346.570962
 30
0.0
 10
391.367395
 20
346.617212
 30
0.0
 10
390.064895
 20
347.072212
 30
0.0
 10
388.927395
 20
347.737212
 30
0.0
 10
387.969895
 20
348.642212
 30
0.0
 10
387.207395
 20
349.817212
 30
0.0
 10
385.527395
 20
353.177212
 30
0.0
 10
384.604895
 20
354.574712
 30
0.0
 10
383.487395
 20
355.717212
 30
0.0
 10
382.129895
 20
356.529712
 30
0.0
 10
380.487395
 20
356.937212
 30
0.0
 10
374.967395
 20
357.337212
 30
0.0
 10
370.967395
 20
357.337212
 30
0.0
 10
369.379895
 20
357.227212
 30
0.0
 10
367.987395
 20
356.757212
 30
0.0
 10
366.804895
 20
355.897212
 30
0.0
 10
365.847395
 20
354.617212
 30
0.0
 10
365.007395
 20
353.367212
 30
0.0
 10
363.927395
 20
352.297212
 30
0.0
 10
363.087395
 20
351.627212
 30
0.0
 10
362.247395
 20
351.257212
 30
0.0
 10
362.247395
 20
351.257212
 30
0.0
  0
LWPOLYLINE
  5
116
100
AcDbEntity
  8
Layer_1
 62
7
100
AcDbPolyline
 90
19
 70
0
 10
380.007395
 20
367.177212
 30
0.0
 10
378.937395
 20
369.907212
 30
0.0
 10
377.687395
 20
372.457212
 30
0.0
 10
376.603645
 20
373.613462
 30
0.0
 10
375.377395
 20
373.967212
 30
0.0
 10
374.166145
 20
373.525962
 30
0.0
 10
373.127395
 20
372.297212
 30
0.0
 10
372.057395
 20
369.877212
 30
0.0
 10
371.287395
 20
367.337212
 30
0.0
 10
371.191145
 20
366.587212
 30
0.0
 10
371.357395
 20
365.897212
 30
0.0
 10
372.327395
 20
364.697212
 30
0.0
 10
373.801145
 20
363.934712
 30
0.0
 10
375.597395
 20
363.697212
 30
0.0
 10
377.378645
 20
363.999712
 30
0.0
 10
378.807395
 20
364.857212
 30
0.0
 10
379.407395
 20
365.897212
 30
0.0
 10
380.007395
 20
367.177212
 30
0.0
 10
380.007395
 20
367.177212
 30
0.0
  0
LWPOLYLINE
  5
117
100
AcDbEntity
  8
Layer_1
 62
7
100
AcDbPolyline
 90
66
 70
0
 10
321.127395
 20
365.017212
 30
0.0
 10
321.767395
 20
381.177212
 30
0.0
 10
321.967395
 20
382.917212
 30
0.0
 10
322.352395
 20
383.697212
 30
0.0
 10
323.127395
 20
384.297212
 30
0.0
 10
324.044895
 20
384.508462
 30
0.0
 10
324.887395
 20
384.367212
 30
0.0
 10
326.407395
 20
383.417212
 30
0.0
 10
328.647395
 20
381.177212
 30
0.0
 10
333.747395
 20
376.087212
 30
0.0
 10
338.487395
 20
370.697212
 30
0.0
 10
339.367395
 20
369.897212
 30
0.0
 10
340.592395
 20
369.309712
 30
0.0
 10
341.607395
 20
369.337212
 30
0.0
 10
342.382395
 20
369.964712
 30
0.0
 10
342.887395
 20
371.177212
 30
0.0
 10
343.067395
 20
372.547212
 30
0.0
 10
343.127395
 20
373.977212
 30
0.0
 10
343.357395
 20
377.427212
 30
0.0
 10
343.287395
 20
380.937212
 30
0.0
 10
343.327395
 20
383.097212
 30
0.0
 10
343.607395
 20
385.257212
 30
0.0
 10
343.607395
 20
385.417212
 30
0.0
 10
343.998645
 20
386.484712
 30
0.0
 10
344.637395
 20
387.357212
 30
0.0
 10
345.441145
 20
387.959712
 30
0.0
 10
346.327395
 20
388.217212
 30
0.0
 10
347.251145
 20
388.064712
 30
0.0
 10
348.137395
 20
387.537212
 30
0.0
 10
348.858645
 20
386.709712
 30
0.0
 10
349.287395
 20
385.657212
 30
0.0
 10
349.567395
 20
383.297212
 30
0.0
 10
349.607395
 20
380.937212
 30
0.0
 10
349.527395
 20
376.137212
 30
0.0
 10
349.287395
 20
370.377212
 30
0.0
 10
349.527395
 20
364.217212
 30
0.0
 10
349.207395
 20
356.457212
 30
0.0
 10
349.127395
 20
355.657212
 30
0.0
 10
348.586145
 20
354.373462
 30
0.0
 10
347.737395
 20
353.667212
 30
0.0
 10
346.663645
 20
353.575962
 30
0.0
 10
345.447395
 20
354.137212
 30
0.0
 10
341.847395
 20
357.257212
 30
0.0
 10
336.967395
 20
362.537212
 30
0.0
 10
332.247395
 20
367.097212
 30
0.0
 10
330.807395
 20
367.967212
 30
0.0
 10
329.997395
 20
368.053462
 30
0.0
 10
329.127395
 20
367.817212
 30
0.0
 10
328.408645
 20
367.288462
 30
0.0
 10
327.997395
 20
366.587212
 30
0.0
 10
327.767395
 20
364.937212
 30
0.0
 10
327.687395
 20
358.537212
 30
0.0
 10
327.537395
 20
357.347212
 30
0.0
 10
327.207395
 20
356.217212
 30
0.0
 10
326.674895
 20
355.169712
 30
0.0
 10
325.947395
 20
354.437212
 30
0.0
 10
325.069895
 20
354.034712
 30
0.0
 10
324.087395
 20
353.977212
 30
0.0
 10
323.043645
 20
354.259712
 30
0.0
 10
322.217395
 20
354.857212
 30
0.0
 10
321.646145
 20
355.754712
 30
0.0
 10
321.367395
 20
356.937212
 30
0.0
 10
321.287395
 20
361.897212
 30
0.0
 10
321.287395
 20
364.857212
 30
0.0
 10
321.127395
 20
365.017212
 30
0.0
 10
321.127395
 20
365.017212
 30
0.0
  0
LWPOLYLINE
  5
118
100
AcDbEntity
  8
Layer_1
 62
7
100
AcDbPolyline
 90
65
 70
0
 10
267.047395
 20
377.977212
 30
0.0
 10
267.607395
 20
384.137212
 30
0.0
 10
267.928645
 20
385.213462
 30
0.0
 10
268.497395
 20
386.027212
 30
0.0
 10
269.261145
 20
386.555962
 30
0.0
 10
270.167395
 20
386.777212
 30
0.0
 10
271.058645
 20
386.663462
 30
0.0
 10
271.897395
 20
386.227212
 30
0.0
 10
272.631145
 20
385.505962
 30
0.0
 10
273.207395
 20
384.537212
 30
0.0
 10
273.707395
 20
382.207212
 30
0.0
 10
273.607395
 20
379.817212
 30
0.0
 10
273.527395
 20
376.297212
 30
0.0
 10
273.577395
 20
368.037212
 30
0.0
 10
273.201145
 20
363.944712
 30
0.0
 10
272.247395
 20
359.897212
 30
0.0
 10
271.271145
 20
357.649712
 30
0.0
 10
269.897395
 20
355.837212
 30
0.0
 10
268.118645
 20
354.474712
 30
0.0
 10
265.927395
 20
353.577212
 30
0.0
 10
262.337395
 20
352.717212
 30
0.0
 10
258.747395
 20
352.277212
 30
0.0
 10
255.127395
 20
352.407212
 30
0.0
 10
251.447395
 20
353.257212
 30
0.0
 10
248.158645
 20
354.810962
 30
0.0
 10
246.833489
 20
355.817993
 30
0.0
 10
245.717395
 20
356.987212
 30
0.0
 10
244.807551
 20
358.325181
 30
0.0
 10
244.101145
 20
359.838462
 30
0.0
 10
243.287395
 20
363.417212
 30
0.0
 10
243.144895
 20
366.523462
 30
0.0
 10
243.227395
 20
369.607212
 30
0.0
 10
243.527395
 20
375.737212
 30
0.0
 10
243.607395
 20
382.537212
 30
0.0
 10
243.757395
 20
384.327212
 30
0.0
 10
244.087395
 20
386.057212
 30
0.0
 10
244.539895
 20
387.117212
 30
0.0
 10
245.247395
 20
387.877212
 30
0.0
 10
246.134895
 20
388.307212
 30
0.0
 10
247.127395
 20
388.377212
 30
0.0
 10
248.117395
 20
388.133462
 30
0.0
 10
248.987395
 20
387.567212
 30
0.0
 10
249.647395
 20
386.745962
 30
0.0
 10
250.007395
 20
385.737212
 30
0.0
 10
250.287395
 20
384.177212
 30
0.0
 10
250.327395
 20
382.617212
 30
0.0
 10
250.007395
 20
372.057212
 30
0.0
 10
250.287395
 20
367.697212
 30
0.0
 10
250.807395
 20
363.337212
 30
0.0
 10
251.207395
 20
362.037212
 30
0.0
 10
251.907395
 20
360.917212
 30
0.0
 10
252.877395
 20
360.007212
 30
0.0
 10
254.087395
 20
359.337212
 30
0.0
 10
256.248645
 20
358.628462
 30
0.0
 10
258.417395
 20
358.347212
 30
0.0
 10
260.601145
 20
358.560962
 30
0.0
 10
262.807395
 20
359.337212
 30
0.0
 10
264.019895
 20
360.088462
 30
0.0
 10
265.007395
 20
361.027212
 30
0.0
 10
265.754895
 20
362.160962
 30
0.0
 10
266.247395
 20
363.497212
 30
0.0
 10
266.647395
 20
366.217212
 30
0.0
 10
267.127395
 20
377.977212
 30
0.0
 10
267.047395
 20
377.977212
 30
0.0
 10
267.047395
 20
377.977212
 30
0.0
  0
LWPOLYLINE
  5
119
100
AcDbEntity
  8
Layer_1
 62
7
100
AcDbPolyline
 90
56
 70
0
 10
289.367395
 20
380.297212
 30
0.0
 10
285.207395
 20
380.697212
 30
0.0
 10
284.146145
 20
381.077212
 30
0.0
 10
283.377395
 20
381.697212
 30
0.0
 10
282.923645
 20
382.497212
 30
0.0
 10
282.807395
 20
383.417212
 30
0.0
 10
283.028645
 20
384.367212
 30
0.0
 10
283.557395
 20
385.137212
 30
0.0
 10
284.371145
 20
385.667212
 30
0.0
 10
285.447395
 20
385.897212
 30
0.0
 10
294.167395
 20
385.977212
 30
0.0
 10
302.967395
 20
385.977212
 30
0.0
 10
305.127395
 20
385.817212
 30
0.0
 10
306.352395
 20
385.297212
 30
0.0
 10
307.127395
 20
384.477212
 30
0.0
 10
307.422395
 20
383.387212
 30
0.0
 10
307.207395
 20
382.057212
 30
0.0
 10
306.087395
 20
379.897212
 30
0.0
 10
296.567395
 20
366.137212
 30
0.0
 10
295.047395
 20
363.737212
 30
0.0
 10
294.659895
 20
362.517212
 30
0.0
 10
294.827395
 20
361.297212
 30
0.0
 10
295.564895
 20
360.317212
 30
0.0
 10
296.887395
 20
359.817212
 30
0.0
 10
301.047395
 20
359.657212
 30
0.0
 10
305.607395
 20
359.737212
 30
0.0
 10
308.087395
 20
359.017212
 30
0.0
 10
309.187395
 20
358.207212
 30
0.0
 10
309.687395
 20
356.857212
 30
0.0
 10
309.287395
 20
355.427212
 30
0.0
 10
308.167395
 20
354.537212
 30
0.0
 10
306.927395
 20
354.137212
 30
0.0
 10
305.687395
 20
353.977212
 30
0.0
 10
296.327395
 20
354.217212
 30
0.0
 10
290.007395
 20
353.737212
 30
0.0
 10
287.327395
 20
353.707212
 30
0.0
 10
284.647395
 20
353.977212
 30
0.0
 10
283.338645
 20
354.485962
 30
0.0
 10
282.637395
 20
355.287212
 30
0.0
 10
282.521145
 20
356.373462
 30
0.0
 10
282.967395
 20
357.737212
 30
0.0
 10
284.577395
 20
360.467212
 30
0.0
 10
286.487395
 20
363.017212
 30
0.0
 10
289.377395
 20
366.807212
 30
0.0
 10
292.087395
 20
370.777212
 30
0.0
 10
293.847395
 20
373.177212
 30
0.0
 10
295.127395
 20
375.017212
 30
0.0
 10
296.017395
 20
377.137212
 30
0.0
 10
296.055520
 20
378.020962
 30
0.0
 10
295.827395
 20
378.777212
 30
0.0
 10
295.336770
 20
379.398462
 30
0.0
 10
294.587395
 20
379.877212
 30
0.0
 10
292.327395
 20
380.377212
 30
0.0
 10
289.367395
 20
380.377212
 30
0.0
 10
289.367395
 20
380.297212
 30
0.0
 10
289.367395
 20
380.297212
 30
0.0
  0
LWPOLYLINE
  5
11a
100
AcDbEntity
  8
Layer_1
 62
7
100
AcDbPolyline
 90
47
 70
0
 10
216.007395
 20
439.417212
 30
0.0
 10
216.059739
 20
441.939087
 30
0.0
 10
216.381145
 20
444.352212
 30
0.0
 10
216.948176
 20
446.667837
 30
0.0
 10
217.737395
 20
448.897212
 30
0.0
 10
219.888645
 20
453.142212
 30
0.0
 10
222.647395
 20
457.177212
 30
0.0
 10
224.372395
 20
459.192212
 30
0.0
 10
226.307395
 20
460.937212
 30
0.0
 10
228.452395
 20
462.442212
 30
0.0
 10
230.807395
 20
463.737212
 30
0.0
 10
233.689895
 20
464.805962
 30
0.0
 10
236.587395
 20
465.207212
 30
0.0
 10
239.514895
 20
465.053462
 30
0.0
 10
242.487395
 20
464.457212
 30
0.0
 10
245.073645
 20
463.539712
 30
0.0
 10
247.337395
 20
462.157212
 30
0.0
 10
249.316145
 20
460.384712
 30
0.0
 10
251.047395
 20
458.297212
 30
0.0
 10
253.108645
 20
455.025962
 30
0.0
 10
254.637395
 20
451.567212
 30
0.0
 10
255.671145
 20
447.913462
 30
0.0
 10
256.247395
 20
444.057212
 30
0.0
 10
256.399895
 20
440.498462
 30
0.0
 10
256.147395
 20
437.007212
 30
0.0
 10
255.504895
 20
433.560962
 30
0.0
 10
254.487395
 20
430.137212
 30
0.0
 10
252.967395
 20
425.017212
 30
0.0
 10
252.251145
 20
423.410962
 30
0.0
 10
251.317395
 20
421.947212
 30
0.0
 10
248.887395
 20
419.417212
 30
0.0
 10
245.097395
 20
416.697212
 30
0.0
 10
243.071145
 20
415.569712
 30
0.0
 10
240.887395
 20
414.697212
 30
0.0
 10
238.886145
 20
414.222212
 30
0.0
 10
236.937395
 20
414.077212
 30
0.0
 10
233.047395
 20
414.537212
 30
0.0
 10
228.978645
 20
415.864712
 30
0.0
 10
225.397395
 20
417.897212
 30
0.0
 10
222.281145
 20
420.589712
 30
0.0
 10
219.607395
 20
423.897212
 30
0.0
 10
218.378645
 20
426.054712
 30
0.0
 10
217.517395
 20
428.317212
 30
0.0
 10
216.941145
 20
430.669712
 30
0.0
 10
216.567395
 20
433.097212
 30
0.0
 10
216.007395
 20
439.417212
 30
0.0
 10
216.007395
 20
439.417212
 30
0.0
  0
LWPOLYLINE
  5
11b
100
AcDbEntity
  8
Layer_1
 62
7
100
AcDbPolyline
 90
37
 70
0
 10
248.327395
 20
439.817212
 30
0.0
 10
247.687395
 20
445.977212
 30
0.0
 10
247.147395
 20
448.442212
 30
0.0
 10
246.307395
 20
450.757212
 30
0.0
 10
245.077395
 20
452.862212
 30
0.0
 10
243.367395
 20
454.697212
 30
0.0
 10
241.828645
 20
455.908462
 30
0.0
 10
240.177395
 20
456.827212
 30
0.0
 10
238.361145
 20
457.340962
 30
0.0
 10
236.327395
 20
457.337212
 30
0.0
 10
234.510520
 20
456.919868
 30
0.0
 10
232.892395
 20
456.278462
 30
0.0
 10
231.461770
 20
455.428931
 30
0.0
 10
230.207395
 20
454.387212
 30
0.0
 10
228.182395
 20
451.790962
 30
0.0
 10
226.727395
 20
448.617212
 30
0.0
 10
225.257395
 20
444.097212
 30
0.0
 10
224.826145
 20
441.754712
 30
0.0
 10
224.807395
 20
439.337212
 30
0.0
 10
224.887395
 20
436.217212
 30
0.0
 10
225.123645
 20
433.292212
 30
0.0
 10
225.817395
 20
430.517212
 30
0.0
 10
226.946145
 20
427.892212
 30
0.0
 10
228.487395
 20
425.417212
 30
0.0
 10
230.036145
 20
423.763462
 30
0.0
 10
231.877395
 20
422.627212
 30
0.0
 10
233.943645
 20
421.985962
 30
0.0
 10
236.167395
 20
421.817212
 30
0.0
 10
238.802395
 20
422.245962
 30
0.0
 10
241.167395
 20
423.267212
 30
0.0
 10
243.232395
 20
424.843462
 30
0.0
 10
244.967395
 20
426.937212
 30
0.0
 10
246.561145
 20
429.917212
 30
0.0
 10
247.637395
 20
433.077212
 30
0.0
 10
248.218645
 20
436.387212
 30
0.0
 10
248.327395
 20
439.817212
 30
0.0
 10
248.327395
 20
439.817212
 30
0.0
  0
LWPOLYLINE
  5
11c
100
AcDbEntity
  8
Layer_1
 62
7
100
AcDbPolyline
 90
84
 70
0
 10
350.807395
 20
430.617212
 30
0.0
 10
351.207395
 20
443.737212
 30
0.0
 10
350.967395
 20
447.097212
 30
0.0
 10
350.967395
 20
459.497212
 30
0.0
 10
350.807395
 20
465.497212
 30
0.0
 10
350.887395
 20
467.097212
 30
0.0
 10
351.454895
 20
468.642212
 30
0.0
 10
352.487395
 20
469.737212
 30
0.0
 10
353.879895
 20
470.292212
 30
0.0
 10
355.527395
 20
470.217212
 30
0.0
 10
356.892395
 20
469.733462
 30
0.0
 10
357.987395
 20
468.987212
 30
0.0
 10
358.812395
 20
467.955962
 30
0.0
 10
359.367395
 20
466.617212
 30
0.0
 10
359.907395
 20
463.207212
 30
0.0
 10
359.847395
 20
459.737212
 30
0.0
 10
359.527395
 20
449.737212
 30
0.0
 10
359.827395
 20
448.297212
 30
0.0
 10
360.269895
 20
447.734712
 30
0.0
 10
360.967395
 20
447.337212
 30
0.0
 10
361.777395
 20
447.168462
 30
0.0
 10
362.527395
 20
447.247212
 30
0.0
 10
363.847395
 20
448.057212
 30
0.0
 10
365.447395
 20
449.817212
 30
0.0
 10
375.527395
 20
460.057212
 30
0.0
 10
377.927395
 20
461.817212
 30
0.0
 10
378.853645
 20
462.225962
 30
0.0
 10
379.817395
 20
462.387212
 30
0.0
 10
381.767395
 20
462.057212
 30
0.0
 10
382.927395
 20
461.339712
 30
0.0
 10
383.607395
 20
460.337212
 30
0.0
 10
383.747395
 20
459.154712
 30
0.0
 10
383.287395
 20
457.897212
 30
0.0
 10
381.657395
 20
455.487212
 30
0.0
 10
379.847395
 20
453.257212
 30
0.0
 10
377.027395
 20
450.587212
 30
0.0
 10
374.087395
 20
447.977212
 30
0.0
 10
373.767395
 20
447.737212
 30
0.0
 10
372.241145
 20
446.042212
 30
0.0
 10
371.397395
 20
444.197212
 30
0.0
 10
371.258645
 20
442.202212
 30
0.0
 10
371.847395
 20
440.057212
 30
0.0
 10
373.797395
 20
436.147212
 30
0.0
 10
375.927395
 20
432.297212
 30
0.0
 10
381.607395
 20
422.217212
 30
0.0
 10
381.687395
 20
422.057212
 30
0.0
 10
382.243645
 20
420.547212
 30
0.0
 10
382.357395
 20
419.337212
 30
0.0
 10
382.036145
 20
418.367212
 30
0.0
 10
381.287395
 20
417.577212
 30
0.0
 10
379.986145
 20
416.953462
 30
0.0
 10
378.497395
 20
416.787212
 30
0.0
 10
377.023645
 20
417.115962
 30
0.0
 10
375.767395
 20
417.977212
 30
0.0
 10
373.527395
 20
420.497212
 30
0.0
 10
371.527395
 20
423.257212
 30
0.0
 10
369.707395
 20
426.467212
 30
0.0
 10
368.007395
 20
429.737212
 30
0.0
 10
366.007395
 20
432.697212
 30
0.0
 10
365.207395
 20
433.577212
 30
0.0
 10
364.323645
 20
434.313462
 30
0.0
 10
363.357395
 20
434.727212
 30
0.0
 10
362.316145
 20
434.825962
 30
0.0
 10
361.207395
 20
434.617212
 30
0.0
 10
360.241145
 20
434.070962
 30
0.0
 10
359.597395
 20
433.307212
 30
0.0
 10
359.238645
 20
432.378462
 30
0.0
 10
359.127395
 20
431.337212
 30
0.0
 10
359.127395
 20
421.977212
 30
0.0
 10
358.997395
 20
419.697212
 30
0.0
 10
358.567395
 20
417.417212
 30
0.0
 10
357.662395
 20
415.703462
 30
0.0
 10
356.187395
 20
414.687212
 30
0.0
 10
354.382395
 20
414.435962
 30
0.0
 10
352.487395
 20
415.017212
 30
0.0
 10
351.659895
 20
415.642212
 30
0.0
 10
351.087395
 20
416.417212
 30
0.0
 10
350.754895
 20
417.312212
 30
0.0
 10
350.647395
 20
418.297212
 30
0.0
 10
350.647395
 20
427.257212
 30
0.0
 10
350.847395
 20
428.937212
 30
0.0
 10
350.807395
 20
430.617212
 30
0.0
 10
350.807395
 20
430.617212
 30
0.0
 10
350.807395
 20
430.617212
 30
0.0
  0
LWPOLYLINE
  5
11d
100
AcDbEntity
  8
Layer_1
 62
7
100
AcDbPolyline
 90
48
 70
0
 10
275.607395
 20
475.097212
 30
0.0
 10
279.262395
 20
474.910962
 30
0.0
 10
282.767395
 20
474.207212
 30
0.0
 10
286.092395
 20
472.948462
 30
0.0
 10
289.207395
 20
471.097212
 30
0.0
 10
291.643645
 20
468.900962
 30
0.0
 10
293.457395
 20
466.307212
 30
0.0
 10
294.686145
 20
463.368462
 30
0.0
 10
295.367395
 20
460.137212
 30
0.0
 10
295.484895
 20
456.734712
 30
0.0
 10
294.987395
 20
453.497212
 30
0.0
 10
293.859895
 20
450.439712
 30
0.0
 10
292.087395
 20
447.577212
 30
0.0
 10
289.088645
 20
444.240962
 30
0.0
 10
285.617395
 20
441.587212
 30
0.0
 10
281.681145
 20
439.668462
 30
0.0
 10
277.287395
 20
438.537212
 30
0.0
 10
275.209895
 20
437.913462
 30
0.0
 10
273.747395
 20
436.787212
 30
0.0
 10
272.854895
 20
435.195962
 30
0.0
 10
272.487395
 20
433.177212
 30
0.0
 10
272.327395
 20
427.177212
 30
0.0
 10
272.007395
 20
417.417212
 30
0.0
 10
271.847395
 20
416.057212
 30
0.0
 10
271.417395
 20
414.532212
 30
0.0
 10
270.687395
 20
413.517212
 30
0.0
 10
269.597395
 20
412.952212
 30
0.0
 10
268.087395
 20
412.777212
 30
0.0
 10
266.481145
 20
412.999712
 30
0.0
 10
265.197395
 20
413.657212
 30
0.0
 10
264.318645
 20
414.734712
 30
0.0
 10
263.927395
 20
416.217212
 30
0.0
 10
263.757395
 20
422.737212
 30
0.0
 10
263.983645
 20
426.004712
 30
0.0
 10
264.487395
 20
429.257212
 30
0.0
 10
264.697395
 20
432.387212
 30
0.0
 10
264.487395
 20
435.577212
 30
0.0
 10
264.177395
 20
438.427212
 30
0.0
 10
264.167395
 20
441.337212
 30
0.0
 10
264.137395
 20
444.617212
 30
0.0
 10
263.927395
 20
447.897212
 30
0.0
 10
264.087395
 20
468.297212
 30
0.0
 10
264.383645
 20
470.504712
 30
0.0
 10
265.197395
 20
472.217212
 30
0.0
 10
266.596145
 20
473.449712
 30
0.0
 10
268.647395
 20
474.217212
 30
0.0
 10
275.607395
 20
475.097212
 30
0.0
 10
275.607395
 20
475.097212
 30
0.0
  0
LWPOLYLINE
  5
11e
100
AcDbEntity
  8
Layer_1
 62
7
100
AcDbPolyline
 90
26
 70
0
 10
271.607395
 20
455.177212
 30
0.0
 10
272.087395
 20
449.977212
 30
0.0
 10
272.437395
 20
448.605962
 30
0.0
 10
273.087395
 20
447.527212
 30
0.0
 10
273.977395
 20
446.793462
 30
0.0
 10
275.047395
 20
446.457212
 30
0.0
 10
277.726145
 20
446.453462
 30
0.0
 10
280.217395
 20
447.027212
 30
0.0
 10
282.483645
 20
448.155962
 30
0.0
 10
284.487395
 20
449.817212
 30
0.0
 10
286.292395
 20
452.060962
 30
0.0
 10
287.347395
 20
454.567212
 30
0.0
 10
287.592395
 20
457.298462
 30
0.0
 10
286.967395
 20
460.217212
 30
0.0
 10
285.573645
 20
462.902212
 30
0.0
 10
283.617395
 20
464.897212
 30
0.0
 10
281.196145
 20
466.292212
 30
0.0
 10
278.407395
 20
467.177212
 30
0.0
 10
275.923645
 20
467.309712
 30
0.0
 10
274.895989
 20
467.039399
 30
0.0
 10
274.017395
 20
466.557212
 30
0.0
 10
273.292551
 20
465.872524
 30
0.0
 10
272.726145
 20
464.994712
 30
0.0
 10
272.087395
 20
462.697212
 30
0.0
 10
271.607395
 20
455.177212
 30
0.0
 10
271.607395
 20
455.177212
 30
0.0
  0
LWPOLYLINE
  5
11f
100
AcDbEntity
  8
Layer_1
 62
7
100
AcDbPolyline
 90
61
 70
0
 10
305.207395
 20
425.577212
 30
0.0
 10
305.207395
 20
432.137212
 30
0.0
 10
304.967395
 20
436.697212
 30
0.0
 10
305.207395
 20
442.057212
 30
0.0
 10
305.477395
 20
445.387212
 30
0.0
 10
305.447395
 20
448.777212
 30
0.0
 10
305.287395
 20
451.947212
 30
0.0
 10
305.367395
 20
455.177212
 30
0.0
 10
305.207395
 20
464.137212
 30
0.0
 10
304.807395
 20
466.697212
 30
0.0
 10
304.341145
 20
467.788462
 30
0.0
 10
303.657395
 20
468.647212
 30
0.0
 10
302.748645
 20
469.250962
 30
0.0
 10
301.607395
 20
469.577212
 30
0.0
 10
299.847395
 20
469.897212
 30
0.0
 10
297.607395
 20
470.617212
 30
0.0
 10
296.747395
 20
471.268462
 30
0.0
 10
296.187395
 20
472.107212
 30
0.0
 10
295.897395
 20
473.080962
 30
0.0
 10
295.847395
 20
474.137212
 30
0.0
 10
296.063645
 20
475.078462
 30
0.0
 10
296.557395
 20
475.847212
 30
0.0
 10
297.276145
 20
476.420962
 30
0.0
 10
298.167395
 20
476.777212
 30
0.0
 10
299.927395
 20
477.097212
 30
0.0
 10
312.487395
 20
477.497212
 30
0.0
 10
316.557395
 20
477.247212
 30
0.0
 10
320.567395
 20
476.697212
 30
0.0
 10
321.657395
 20
476.362212
 30
0.0
 10
322.507395
 20
475.757212
 30
0.0
 10
323.087395
 20
474.942212
 30
0.0
 10
323.367395
 20
473.977212
 30
0.0
 10
323.264895
 20
472.889712
 30
0.0
 10
322.847395
 20
471.937212
 30
0.0
 10
322.129895
 20
471.164712
 30
0.0
 10
321.127395
 20
470.617212
 30
0.0
 10
318.967395
 20
470.217212
 30
0.0
 10
316.776145
 20
469.645962
 30
0.0
 10
315.237395
 20
468.527212
 30
0.0
 10
314.343645
 20
466.853462
 30
0.0
 10
314.087395
 20
464.617212
 30
0.0
 10
314.087395
 20
464.217212
 30
0.0
 10
314.308645
 20
461.470962
 30
0.0
 10
314.237395
 20
458.747212
 30
0.0
 10
313.847395
 20
453.337212
 30
0.0
 10
314.007395
 20
444.937212
 30
0.0
 10
314.007395
 20
441.977212
 30
0.0
 10
313.767395
 20
427.657212
 30
0.0
 10
313.607395
 20
417.097212
 30
0.0
 10
313.307395
 20
415.547212
 30
0.0
 10
312.647395
 20
414.057212
 30
0.0
 10
311.751145
 20
412.934712
 30
0.0
 10
310.577395
 20
412.217212
 30
0.0
 10
309.238645
 20
411.919712
 30
0.0
 10
307.847395
 20
412.057212
 30
0.0
 10
306.771145
 20
412.544712
 30
0.0
 10
305.957395
 20
413.377212
 30
0.0
 10
305.428645
 20
414.509712
 30
0.0
 10
305.207395
 20
415.897212
 30
0.0
 10
305.207395
 20
425.577212
 30
0.0
 10
305.207395
 20
425.577212
 30
0.0
  0
LWPOLYLINE
  5
120
100
AcDbEntity
  8
Layer_1
 62
7
100
AcDbPolyline
 90
36
 70
0
 10
330.167395
 20
422.697212
 30
0.0
 10
329.847395
 20
430.457212
 30
0.0
 10
330.087395
 20
437.657212
 30
0.0
 10
330.247395
 20
453.577212
 30
0.0
 10
330.487395
 20
459.977212
 30
0.0
 10
330.337395
 20
462.747212
 30
0.0
 10
330.247395
 20
465.577212
 30
0.0
 10
330.487395
 20
468.647212
 30
0.0
 10
330.967395
 20
471.657212
 30
0.0
 10
331.687395
 20
473.557212
 30
0.0
 10
332.384895
 20
474.312212
 30
0.0
 10
333.367395
 20
474.857212
 30
0.0
 10
335.359895
 20
475.095962
 30
0.0
 10
337.127395
 20
474.547212
 30
0.0
 10
338.474895
 20
473.293462
 30
0.0
 10
339.207395
 20
471.417212
 30
0.0
 10
339.287395
 20
468.057212
 30
0.0
 10
338.967395
 20
459.337212
 30
0.0
 10
339.207395
 20
454.777212
 30
0.0
 10
338.887395
 20
444.217212
 30
0.0
 10
339.047395
 20
439.017212
 30
0.0
 10
339.047395
 20
433.497212
 30
0.0
 10
339.207395
 20
430.137212
 30
0.0
 10
339.207395
 20
418.377212
 30
0.0
 10
338.887395
 20
416.217212
 30
0.0
 10
338.197395
 20
414.725962
 30
0.0
 10
337.027395
 20
413.647212
 30
0.0
 10
335.467395
 20
413.033462
 30
0.0
 10
333.607395
 20
412.937212
 30
0.0
 10
332.144895
 20
413.338462
 30
0.0
 10
331.027395
 20
414.167212
 30
0.0
 10
330.299895
 20
415.400962
 30
0.0
 10
330.007395
 20
417.017212
 30
0.0
 10
330.007395
 20
422.777212
 30
0.0
 10
330.167395
 20
422.697212
 30
0.0
 10
330.167395
 20
422.697212
 30
0.0
  0
ENDSEC
  0
SECTION
  2
OBJECTS
  0
DICTIONARY
  5
C
330
0
100
AcDbDictionary
  3
ACAD_GROUP
350
D
  3
ACAD_MLINESTYLE
350
17
  0
DICTIONARY
  5
D
330
C
100
AcDbDictionary
  0
DICTIONARY
  5
1A
330
C
100
AcDbDictionary
  0
DICTIONARY
  5
17
330
C
100
AcDbDictionary
  3
STANDARD
350
18
  0
DICTIONARY
  5
19
330
C
100
AcDbDictionary
  0
ENDSEC
  0
EOF
